<svg width="40" height="40" viewBox="0 0 40 40" fill="none" xmlns="http://www.w3.org/2000/svg">
<g clip-path="url(#clip0_1080_102)">
<path d="M27.7963 21.3156C26.0983 21.3156 24.3857 21.3156 22.6877 21.3156C21.9911 21.3156 21.8024 21.5074 21.8024 22.2155C21.8024 24.1481 21.8024 26.0807 21.7879 28.0133C21.7879 28.3379 21.8605 28.5149 22.1797 28.6772C24.168 29.6951 25.213 31.967 24.7195 34.1209C24.1971 36.3632 22.3104 37.9418 20.0754 37.986C17.8839 38.0303 15.8521 36.4813 15.3151 34.3274C14.7491 32.0998 15.7069 29.7984 17.6952 28.7509C18.0871 28.5444 18.2032 28.3231 18.1887 27.8953C18.1596 26.0069 18.1741 24.1186 18.1741 22.2303C18.1741 21.5222 17.9855 21.3304 17.2888 21.3304C14.0379 21.3304 10.787 21.3304 7.53609 21.3304C6.83946 21.3304 6.66531 21.5074 6.66531 22.2303C6.66531 24.1924 6.66531 26.1545 6.66531 28.1166C6.66531 28.3969 6.75238 28.5444 6.99911 28.6772C9.01642 29.6951 10.0614 31.9375 9.58243 34.1356C9.1035 36.3337 7.20229 37.927 4.98179 38.0008C2.77581 38.0598 0.729472 36.496 0.163463 34.3274C-0.417058 32.0998 0.584342 29.7541 2.61617 28.6919C2.92094 28.5296 3.03705 28.3674 3.03705 28.0133C3.02253 22.3188 3.02253 16.6096 3.03705 10.9151C3.03705 10.62 2.97899 10.4577 2.70325 10.325C0.642394 9.27754 -0.388032 7.0204 0.134437 4.77801C0.656907 2.57988 2.57263 1.03086 4.80764 1.00136C7.07167 0.986605 9.00191 2.52087 9.5534 4.77801C10.0904 6.94664 9.07447 9.23329 7.07167 10.2807C6.75238 10.443 6.66531 10.62 6.66531 10.9741C6.67982 12.8919 6.66531 14.8098 6.67982 16.7276C6.67982 17.4505 6.85397 17.6275 7.5506 17.6275C10.8015 17.6275 14.0524 17.6275 17.3034 17.6275C18 17.6275 18.1887 17.4357 18.1887 16.7276C18.1887 14.7803 18.1887 12.8329 18.1887 10.8856C18.1887 10.6053 18.1016 10.4577 17.8549 10.3397C15.823 9.3218 14.7636 7.0204 15.2715 4.83702C15.8085 2.55038 17.7533 1.00136 20.0318 1.01611C22.3104 1.03086 24.2406 2.62414 24.734 4.91079C25.1985 7.04991 24.168 9.26279 22.1797 10.2955C21.875 10.443 21.7879 10.62 21.7879 10.9446C21.8024 12.8624 21.8024 14.7803 21.8024 16.6981C21.8024 17.4357 21.9766 17.6127 22.7167 17.6127C25.9531 17.6127 29.1895 17.6127 32.4259 17.6127C33.1371 17.6127 33.3112 17.4357 33.3112 16.7276C33.3112 14.7803 33.3112 12.8329 33.3258 10.8856C33.3258 10.5905 33.2387 10.4282 32.9629 10.2955C31.1198 9.33655 30.0458 7.31545 30.3216 5.33861C30.6263 3.18474 32.1067 1.53245 34.153 1.10463C36.5186 0.603039 38.8697 1.94552 39.697 4.26167C40.5097 6.56307 39.5373 9.15952 37.3749 10.266C37.0121 10.4577 36.9395 10.6495 36.9395 11.0183C36.954 12.9509 36.954 14.8835 36.9395 16.8161C36.9395 19.4421 35.1399 21.2861 32.5566 21.3009C30.9746 21.3156 29.3782 21.3156 27.7963 21.3156ZM4.24163 19.4716C4.24163 22.0828 4.24163 24.694 4.24163 27.3052C4.24163 28.1166 4.24163 28.1018 5.05436 28.1461C5.4317 28.1756 5.46072 28.028 5.46072 27.7035C5.44621 25.8447 5.44621 23.9858 5.46072 22.1123C5.46072 20.8288 6.2154 20.0764 7.47804 20.0764C10.7725 20.0764 14.067 20.0764 17.3614 20.0764C18.6531 20.0764 19.4078 20.8288 19.4078 22.127C19.4078 23.8236 19.4078 25.5349 19.4078 27.2314C19.4078 28.1018 19.4078 28.0871 20.2495 28.1313C20.5688 28.1461 20.6269 28.0428 20.6269 27.7478C20.6123 25.8889 20.6269 24.0301 20.6269 22.1565C20.6269 20.7993 21.3525 20.0617 22.6732 20.0617C25.9676 20.0617 29.2621 20.0617 32.5566 20.0617C34.5158 20.0617 35.7785 18.7634 35.7785 16.7718C35.7785 15.0753 35.7785 13.364 35.7785 11.6675C35.7785 10.8413 35.7785 10.8561 34.9657 10.7971C34.6319 10.7676 34.5594 10.8708 34.5739 11.1954C34.5884 13.0542 34.5884 14.913 34.5739 16.7866C34.5739 18.0701 33.8192 18.8372 32.5711 18.8372C29.2621 18.8372 25.9531 18.8372 22.6442 18.8372C21.3815 18.8372 20.6414 18.0848 20.6414 16.7866C20.6414 15.0901 20.6414 13.3788 20.6414 11.6822C20.6414 10.8413 20.6414 10.8708 19.8431 10.7971C19.4658 10.7676 19.4368 10.9151 19.4368 11.2249C19.4513 13.069 19.4368 14.913 19.4368 16.7718C19.4368 18.0848 18.6966 18.8372 17.405 18.8372C14.125 18.8372 10.8451 18.8372 7.56511 18.8372C6.2154 18.8372 5.50426 18.0996 5.48975 16.7128C5.48975 15.031 5.48975 13.3345 5.48975 11.6527C5.48975 10.8413 5.48975 10.8708 4.69153 10.8118C4.34322 10.7823 4.27065 10.9003 4.27065 11.2249C4.24163 13.9836 4.24163 16.7276 4.24163 19.4716ZM19.8867 36.7468C21.8605 36.8353 23.5149 35.2421 23.631 33.1767C23.7326 31.1999 22.1217 29.459 20.1189 29.3705C18.1306 29.282 16.4471 30.89 16.36 32.9702C16.2729 34.947 17.8694 36.6583 19.8867 36.7468ZM19.9592 9.6021C21.9766 9.61685 23.631 7.96457 23.631 5.91396C23.631 3.90761 22.0201 2.24057 20.0463 2.22582C18.0145 2.21107 16.3745 3.83385 16.36 5.88446C16.331 7.92031 17.971 9.6021 19.9592 9.6021ZM1.22292 33.0587C1.22292 35.0945 2.84838 36.7468 4.85118 36.7468C6.83946 36.7468 8.47944 35.0945 8.49395 33.0734C8.50846 31.0376 6.83946 29.3558 4.83666 29.3558C2.83386 29.3705 1.22292 31.0228 1.22292 33.0587ZM38.7681 5.92871C38.7681 3.89286 37.1572 2.24057 35.1544 2.24057C33.1516 2.24057 31.5261 3.87811 31.5116 5.89921C31.4971 7.93506 33.1371 9.61685 35.1544 9.6021C37.1572 9.6021 38.7681 7.96457 38.7681 5.92871ZM1.22292 5.91396C1.22292 7.94981 2.83386 9.6021 4.83666 9.6021C6.83946 9.6021 8.47944 7.97932 8.49395 5.94347C8.50846 3.92237 6.86849 2.24057 4.89471 2.24057C2.86289 2.22582 1.22292 3.86335 1.22292 5.91396Z" fill="#424242"/>
<path d="M36.9538 26.2727C36.9538 26.8775 36.9684 27.4824 36.9538 28.0872C36.9393 28.3675 37.0409 28.5151 37.2876 28.6478C39.0873 29.5477 40.1902 31.5393 39.9726 33.4572C39.7258 35.67 38.3181 37.3223 36.2572 37.8387C33.9206 38.414 31.4969 37.101 30.6407 34.8144C29.7699 32.4835 30.6987 29.887 32.8467 28.7363C33.2385 28.5298 33.3401 28.2938 33.3401 27.8807C33.3111 26.73 33.3111 25.5645 33.3401 24.4138C33.3546 23.5287 33.8481 22.8648 34.6318 22.6288C35.3574 22.4075 36.1411 22.6583 36.6055 23.2926C36.8377 23.6172 36.9684 23.9713 36.9684 24.3843C36.9538 25.0039 36.9538 25.6383 36.9538 26.2727ZM38.768 33.0588C38.768 31.023 37.157 29.3707 35.1542 29.3559C33.1514 29.3412 31.4969 31.0377 31.4969 33.0736C31.4969 35.0947 33.1369 36.747 35.1397 36.747C37.1425 36.747 38.7535 35.0947 38.768 33.0588ZM34.5447 26.1399C34.5447 26.4939 34.5447 26.8628 34.5447 27.2168C34.5447 28.1315 34.5447 28.1167 35.4445 28.1462C35.6912 28.1462 35.7638 28.0872 35.7638 27.8364C35.7493 26.73 35.7638 25.6088 35.7638 24.5024C35.7638 24.045 35.5171 23.7795 35.1397 23.7942C34.7769 23.809 34.5592 24.045 34.5592 24.5024C34.5302 25.0482 34.5447 25.594 34.5447 26.1399Z" fill="#424242"/>
</g>
<defs>
<clipPath id="clip0_1080_102">
<rect width="40" height="40" fill="white"/>
</clipPath>
</defs>
</svg>
