<svg width="263" height="230" viewBox="0 0 263 230" fill="none" xmlns="http://www.w3.org/2000/svg">
<g clip-path="url(#clip0_64_174)">
<path opacity="0.1" d="M142.225 0.0377545C177.946 -0.840971 210.554 13.9279 229.073 38.3376C266.306 87.4081 273.2 136.447 248.224 162.219C243.018 167.592 228.136 180.503 206.122 185.122C170.614 192.579 155.176 170.36 125.825 176.078C86.9854 183.647 82.8539 228.626 56.7527 229.975C31.8453 231.262 4.57521 191.901 0.550017 154.744C-6.41906 90.4209 53.6775 8.67437 132.594 0.646585C135.856 0.313925 139.075 0.11935 142.232 0.0377545H142.225Z" fill="#87C71F"/>
</g>
<g clip-path="url(#clip1_64_174)">
<path d="M169.553 164.42L164.713 165.352L137.193 170.595L133.717 171.258C110.803 126.237 111.941 104.552 127.224 96.3312C129.435 95.1316 131.979 94.2213 134.77 93.565C138.408 92.6971 142.528 92.2878 147.014 92.2243C149.247 92.2031 151.317 92.3513 153.26 92.6547C155.846 93.0711 158.185 93.7697 160.269 94.7435C178.774 103.296 178.427 132.56 169.553 164.427V164.42Z" fill="#A9CBE8"/>
<path d="M160.269 96.0913C159.195 99.8736 157.874 101.61 156.503 103.861C153.564 108.779 144.428 114.248 144.428 114.248C144.428 114.248 137.271 111.355 128.425 101.814L127.224 97.6861C129.435 96.4864 131.979 95.5761 134.77 94.9199C138.408 94.0519 142.528 93.6426 147.014 93.5791C149.247 93.558 151.317 93.7062 153.26 94.0096C155.846 94.4259 158.185 95.1245 160.269 96.0983V96.0913Z" fill="#205FAE"/>
<path d="M169.553 164.42L164.713 165.352C159.273 155.952 156.729 146.722 155.549 137.824C153.38 121.326 155.881 105.935 153.253 92.6548C158.34 93.4592 162.431 95.3786 165.639 98.2295C178.604 109.668 177.467 136.003 169.546 164.42H169.553Z" fill="#005F93"/>
<path d="M137.193 170.595L133.717 171.258C111.552 127.726 111.899 106.02 125.754 97.2204C128.319 95.5691 131.336 94.3695 134.77 93.5651C126.807 106.246 139.277 106.408 133.717 123.076C131.774 128.94 130.431 133.343 129.951 137.803V137.824C129.124 145.798 131.046 153.892 137.186 170.602L137.193 170.595Z" fill="#005F93"/>
<path d="M160.269 94.7364C159.195 98.5187 157.874 100.255 156.503 102.506C153.564 107.424 144.428 112.893 144.428 112.893C144.428 112.893 137.271 110 128.425 100.459L127.224 96.3312C129.435 95.1316 131.979 94.2213 134.77 93.565C138.408 92.6971 142.528 92.2878 147.014 92.2243C149.247 92.2031 151.317 92.3513 153.26 92.6547C155.846 93.0711 158.185 93.7697 160.269 94.7435V94.7364Z" fill="white"/>
<path d="M158.983 108.821L163.738 112.293C163.738 112.293 154.807 129.617 155.549 137.817C153.38 121.319 155.881 105.928 153.253 92.6477C158.34 93.4522 162.431 95.3715 165.639 98.2224C160.841 101.92 158.983 108.814 158.983 108.814V108.821Z" fill="#0071BC"/>
<path d="M133.717 123.076C131.774 128.94 130.431 133.343 129.951 137.803C129.209 128.283 132.473 116.548 125.337 109.922C127.817 109.033 131.541 109.238 131.541 109.238C131.541 109.238 124.843 104.016 125.754 97.2204C128.319 95.5691 131.336 94.3695 134.77 93.5651C126.807 106.246 139.277 106.408 133.717 123.076Z" fill="#0071BC"/>
<path d="M98.3823 136.977C97.379 127.528 107.426 107.184 119.953 102.788C119.953 102.788 125.062 116.485 117.975 131.741C117.975 131.741 99.8378 150.688 98.3823 136.977Z" fill="#0071BC"/>
<path d="M178.731 82.6626C166.981 91.2293 165.646 103.719 165.646 103.719C165.646 103.719 164.515 111.792 171.708 120.444C172.69 121.622 174.443 121.968 175.714 121.1C187.019 113.408 192.735 88.6184 191.004 76.7351C180.18 64.6048 161.039 66.7148 161.039 66.7148L160.262 69.2198C160.262 69.2198 175.552 75.5496 178.724 82.6626H178.731Z" fill="#0071BC"/>
<path d="M153.585 97.4251C147.05 89.056 133.724 96.6982 133.724 96.6982C134.635 99.2598 137.659 102.322 141.383 103.381L143.029 106.98L144.548 103.748C147.587 103.571 150.801 101.828 153.585 97.4251Z" fill="#FF96A5"/>
<path d="M146.619 72.847C146.513 72.847 146.428 72.7693 146.414 72.6635C145.947 68.8388 141.828 68.5142 141.659 68.5001C141.546 68.493 141.461 68.3943 141.468 68.2814C141.475 68.1755 141.567 68.0908 141.673 68.0908H141.687C141.729 68.0908 145.389 68.3731 146.534 71.4074C146.788 70.3983 147.403 69.4386 148.194 68.9376C148.894 68.486 149.65 68.4437 150.335 68.8106C150.434 68.867 150.469 68.987 150.42 69.0929C150.363 69.1917 150.236 69.2269 150.137 69.1775C149.445 68.8035 148.816 69.0293 148.413 69.2904C147.417 69.9326 146.739 71.3651 146.823 72.6353C146.831 72.7482 146.746 72.847 146.64 72.854H146.619V72.847Z" fill="#205FAE"/>
<path d="M138.507 105.738C137.363 105.738 135.427 105.547 135.427 104.842C135.427 104.136 137.363 103.945 138.507 103.945C139.652 103.945 141.581 104.136 141.581 104.842C141.581 105.547 139.645 105.738 138.507 105.738ZM138.507 104.355C136.889 104.355 135.907 104.679 135.844 104.849C135.914 105.004 136.889 105.321 138.507 105.321C140.125 105.321 141.065 105.011 141.164 104.834C141.065 104.658 140.097 104.348 138.507 104.348V104.355Z" fill="#205FAE"/>
<path d="M147.523 105.738C146.378 105.738 144.449 105.547 144.449 104.842C144.449 104.136 146.385 103.945 147.523 103.945C148.66 103.945 150.603 104.136 150.603 104.842C150.603 105.547 148.668 105.738 147.523 105.738ZM147.523 104.355C145.905 104.355 144.93 104.679 144.859 104.849C144.93 105.004 145.898 105.321 147.523 105.321C149.148 105.321 150.088 105.011 150.187 104.834C150.088 104.658 149.113 104.348 147.523 104.348V104.355Z" fill="#205FAE"/>
<path d="M150.392 105.046C150.392 105.046 150.37 105.046 150.363 105.046C150.25 105.032 150.172 104.926 150.187 104.813L150.745 100.699C150.759 100.593 150.844 100.523 150.95 100.523C150.957 100.523 150.971 100.523 150.978 100.523C151.091 100.537 151.169 100.643 151.155 100.756L150.596 104.87C150.582 104.976 150.497 105.046 150.392 105.046Z" fill="#205FAE"/>
<path d="M135.632 105.046C135.533 105.046 135.441 104.968 135.427 104.87L134.572 98.7093C134.558 98.5964 134.635 98.4905 134.748 98.4764C134.854 98.4552 134.967 98.5399 134.982 98.6528L135.837 104.813C135.851 104.926 135.773 105.032 135.66 105.046C135.653 105.046 135.639 105.046 135.632 105.046Z" fill="#205FAE"/>
<path d="M131.873 82.4298C131.279 76.0013 134.84 72.4448 139.892 72.6424C144.944 72.8399 143.849 69.855 146.626 72.6353C146.626 72.6353 147.551 69.975 150.356 72.9387C153.161 75.9025 157.909 75.9025 156.129 82.4298C154.348 88.9572 157.612 97.7567 153.755 99.7326C149.897 101.708 147.219 101.017 147.516 96.67C147.516 96.67 145.735 101.744 140.387 100.791C135.038 99.8384 130.361 96.3736 131.809 91.3352C133.258 86.2898 131.873 82.4369 131.873 82.4369V82.4298Z" fill="#333333"/>
<path d="M178.858 160.878C173.581 143.3 173.312 141.754 163.547 141.275C158.616 141.035 151.981 147.442 147.968 155.705C146.272 159.191 141.461 159.699 139.009 156.693C130.764 146.56 121.444 138.748 112.012 137.852C99.0041 136.61 110.584 176.614 129.937 180.883H173.312C173.312 180.883 184.136 178.456 178.858 160.885V160.878Z" fill="#005F93"/>
<path d="M126.129 42.6871C126.129 34.7696 119.699 28.3481 111.771 28.3481C110.62 28.3481 109.51 28.4963 108.437 28.7503C109.419 26.6969 109.991 24.4035 109.991 21.969C109.991 13.2611 102.925 6.19751 94.1995 6.19751C87.3742 6.19751 81.5805 10.5302 79.3761 16.5848C76.352 13.8257 72.3388 12.1321 67.9158 12.1321C58.7801 12.1321 51.3472 19.3227 50.9303 28.3481C44.6562 30.825 40.2049 36.9219 40.2049 44.0702C40.2049 53.406 47.7862 60.9777 57.1339 60.9777C60.0166 60.9777 62.7368 60.2509 65.1108 58.9807C67.9794 65.4234 74.4373 69.9255 81.955 69.9255C87.6851 69.9255 92.8076 67.3145 96.1849 63.2217C104.77 69.0434 119.989 80.1575 119.989 80.1575L110.641 56.9625C111.015 56.9908 111.39 57.019 111.771 57.019C119.699 57.019 126.129 50.5975 126.129 42.68V42.6871Z" fill="white"/>
<path d="M119.996 80.3622C119.953 80.3622 119.911 80.3481 119.876 80.327C119.727 80.2141 104.741 69.2764 96.2273 63.497C92.6734 67.7169 87.4802 70.1302 81.955 70.1302C74.6775 70.1302 68.0501 65.8751 65.0119 59.2631C62.5884 60.5191 59.8682 61.1825 57.1339 61.1825C47.6873 61.1825 40 53.5049 40 44.0703C40 37.0419 44.211 30.8321 50.7396 28.2071C51.2271 19.0688 58.7519 11.9346 67.9229 11.9346C72.1127 11.9346 76.1401 13.4588 79.2913 16.2391C81.6653 10.107 87.6145 6.00708 94.2066 6.00708C103.024 6.00708 110.203 13.1695 110.203 21.9832C110.203 24.2272 109.737 26.4076 108.811 28.4682C109.814 28.2565 110.811 28.1506 111.779 28.1506C119.805 28.1506 126.341 34.6709 126.341 42.6942C126.341 50.7176 119.812 57.2378 111.779 57.2378C111.496 57.2378 111.22 57.2237 110.966 57.2096L120.186 80.0941C120.222 80.1788 120.194 80.2776 120.123 80.334C120.088 80.3622 120.038 80.3764 119.996 80.3764V80.3622ZM96.1849 63.0101C96.2273 63.0101 96.2627 63.0172 96.298 63.0454C103.844 68.1614 116.654 77.469 119.529 79.5578L110.457 57.0332C110.429 56.9697 110.436 56.8921 110.486 56.8356C110.528 56.7792 110.592 56.758 110.669 56.7509C111.001 56.7792 111.39 56.8074 111.779 56.8074C119.579 56.8074 125.924 50.4706 125.924 42.6801C125.924 34.8897 119.579 28.5528 111.779 28.5528C110.712 28.5528 109.602 28.6869 108.493 28.9551C108.415 28.9621 108.331 28.948 108.281 28.8845C108.232 28.821 108.225 28.7363 108.26 28.6658C109.277 26.5488 109.793 24.2907 109.793 21.9691C109.793 13.3883 102.805 6.40225 94.2137 6.40225C87.6993 6.40225 81.8137 10.5233 79.581 16.6484C79.5598 16.7119 79.5033 16.7613 79.4326 16.7754C79.369 16.7895 79.2984 16.7754 79.2418 16.726C76.133 13.8893 72.1127 12.3298 67.9229 12.3298C58.9285 12.3298 51.5592 19.3652 51.1423 28.3482C51.1423 28.4258 51.0858 28.4964 51.0151 28.5317C44.5714 31.0791 40.4098 37.176 40.4098 44.0703C40.4098 53.2791 47.9134 60.7661 57.1268 60.7661C59.8753 60.7661 62.5955 60.0816 65.0119 58.7903C65.0614 58.7621 65.1179 58.755 65.1744 58.7762C65.2309 58.7973 65.2733 58.8326 65.2945 58.8891C68.2196 65.4658 74.7552 69.7139 81.9479 69.7139C87.4096 69.7139 92.5391 67.2935 96.0154 63.0807C96.0578 63.0313 96.1143 63.0031 96.1779 63.0031L96.1849 63.0101Z" fill="#0071BC"/>
<path d="M119.996 80.3622C119.953 80.3622 119.911 80.3481 119.876 80.327C119.727 80.2141 104.741 69.2764 96.2273 63.497C92.6734 67.7169 87.4802 70.1302 81.955 70.1302C74.6775 70.1302 68.0501 65.8751 65.0119 59.2631C62.5884 60.5191 59.8682 61.1825 57.1339 61.1825C47.6873 61.1825 40 53.5049 40 44.0703C40 37.0419 44.211 30.8321 50.7396 28.2071C51.2271 19.0688 58.7519 11.9346 67.9229 11.9346C72.1127 11.9346 76.1401 13.4588 79.2913 16.2391C81.6653 10.107 87.6145 6.00708 94.2066 6.00708C103.024 6.00708 110.203 13.1695 110.203 21.9832C110.203 24.2272 109.737 26.4076 108.811 28.4682C109.814 28.2565 110.811 28.1506 111.779 28.1506C119.805 28.1506 126.341 34.6709 126.341 42.6942C126.341 50.7176 119.812 57.2378 111.779 57.2378C111.496 57.2378 111.22 57.2237 110.966 57.2096L120.186 80.0941C120.222 80.1788 120.194 80.2776 120.123 80.334C120.088 80.3622 120.038 80.3764 119.996 80.3764V80.3622ZM96.1849 63.0101C96.2273 63.0101 96.2627 63.0172 96.298 63.0454C103.844 68.1614 116.654 77.469 119.529 79.5578L110.457 57.0332C110.429 56.9697 110.436 56.8921 110.486 56.8356C110.528 56.7792 110.592 56.758 110.669 56.7509C111.001 56.7792 111.39 56.8074 111.779 56.8074C119.579 56.8074 125.924 50.4706 125.924 42.6801C125.924 34.8897 119.579 28.5528 111.779 28.5528C110.712 28.5528 109.602 28.6869 108.493 28.9551C108.415 28.9621 108.331 28.948 108.281 28.8845C108.232 28.821 108.225 28.7363 108.26 28.6658C109.277 26.5488 109.793 24.2907 109.793 21.9691C109.793 13.3883 102.805 6.40225 94.2137 6.40225C87.6993 6.40225 81.8137 10.5233 79.581 16.6484C79.5598 16.7119 79.5033 16.7613 79.4326 16.7754C79.369 16.7895 79.2984 16.7754 79.2418 16.726C76.133 13.8893 72.1127 12.3298 67.9229 12.3298C58.9285 12.3298 51.5592 19.3652 51.1423 28.3482C51.1423 28.4258 51.0858 28.4964 51.0151 28.5317C44.5714 31.0791 40.4098 37.176 40.4098 44.0703C40.4098 53.2791 47.9134 60.7661 57.1268 60.7661C59.8753 60.7661 62.5955 60.0816 65.0119 58.7903C65.0614 58.7621 65.1179 58.755 65.1744 58.7762C65.2309 58.7973 65.2733 58.8326 65.2945 58.8891C68.2196 65.4658 74.7552 69.7139 81.9479 69.7139C87.4096 69.7139 92.5391 67.2935 96.0154 63.0807C96.0578 63.0313 96.1143 63.0031 96.1779 63.0031L96.1849 63.0101Z" fill="#0071BC"/>
<path d="M214.617 215.799L219.909 217.662L215.295 221.938H133.971L140.048 218.961L133.971 217.126L150.081 207.106L141.249 202.236L137.278 195.646L143.609 192.611L136.225 180.876H210.667L214.49 187.982L210.54 192.343L214.617 195.109L206.569 202.752L219.909 206.322L216.207 210.267L220.962 212.109L214.617 215.799Z" fill="#F25C43"/>
<path d="M190.333 215.799L195.625 217.662L191.018 221.938H109.687L115.771 218.961L109.687 217.126L125.796 207.106L116.965 202.236L112.994 195.646L119.324 192.611L111.941 180.876H186.383L190.213 187.982L186.263 192.343L190.333 195.109L182.292 202.752L195.625 206.322L191.93 210.267L196.685 212.109L190.333 215.799Z" fill="#FFB865"/>
<path d="M195.625 217.662L191.018 221.938H109.687L115.771 218.961L190.333 215.799L195.625 217.662Z" fill="#FF785E"/>
<path d="M109.687 217.126L195.625 206.322L182.292 202.752L125.796 207.105L109.687 217.126Z" fill="#FF785E"/>
<path d="M112.994 195.646L190.333 195.109L186.263 192.343L190.213 187.982L119.324 192.611L112.994 195.646Z" fill="#FF785E"/>
<path d="M210.667 180.876L224 172.168C224 172.168 205.531 175.33 195.625 173.093L180.575 180.876H210.667Z" fill="#FFB865"/>
<path d="M145.41 203.852C145.961 167.313 149.805 137.168 167.398 141.733C184.998 146.299 152.2 200.31 149.614 204.742L145.41 203.852Z" fill="#0071BC"/>
<path d="M149.621 204.742L148.766 208.616L144.4 207.508L145.41 203.852L149.621 204.742Z" fill="#FF96A5"/>
<path d="M148.766 208.616C148.54 210.902 149.162 217.479 149.537 221.183C149.628 222.08 148.766 222.778 147.904 222.503L140.139 220.075C139.193 219.779 138.684 218.763 139.016 217.824C139.942 215.199 141.927 210.224 144.4 207.501L148.766 208.608V208.616Z" fill="#005F93"/>
<path d="M98.8981 201.34C95.0474 165.712 96.1284 135.615 113.806 137.951C131.484 140.287 104.346 197.388 102.36 202.011L98.8981 201.34Z" fill="#005F93"/>
<path d="M102.36 202.011L101.661 206.527L97.0187 205.511L98.8981 201.34L102.36 202.011Z" fill="#FF96A5"/>
<path d="M102.191 214.007C102.297 215.305 101.449 216.505 100.184 216.815C99.4775 216.999 98.6296 217.232 97.6616 217.479C97.5344 217.521 97.3931 217.563 97.266 217.584C92.8995 218.72 86.4487 220.414 80.662 222.044C79.6516 222.312 79.0723 220.95 79.9767 220.414C93.168 212.482 97.0187 205.525 97.0187 205.525L101.675 206.534L102.049 211.798L102.07 212.214L102.198 214.014L102.191 214.007Z" fill="#005F93"/>
<path d="M161.039 66.7147C158.693 66.3196 150.18 59.0019 142.662 64.0474L147.36 66.0726C147.36 66.0726 148.696 64.4425 151.564 65.5786C154.433 66.7147 156.136 72.3177 160.262 69.2198L161.039 66.7147Z" fill="#FF96A5"/>
<path d="M118.816 163.559C103.816 154.611 92.1929 137.647 102.014 131.191C107.228 127.768 111.284 132.355 113.877 139.08C116.633 146.242 115.975 156.46 121.366 159.918L118.816 163.552V163.559Z" fill="#0071BC"/>
<path d="M113.51 159.064C116.562 163.178 121.812 166.714 124.433 167.659C127.054 168.605 130.085 165.676 130.085 165.676C130.085 165.676 123.571 161.322 121.571 159.184C123.627 158.817 125.676 159.89 126.56 158.33C124.221 157.074 120.017 157.046 117.24 156.213C115.848 155.797 114.308 156.376 113.757 157.716C113.397 158.598 113.51 159.057 113.51 159.057V159.064Z" fill="#FF96A5"/>
<path d="M102.063 212.207C100.721 212.003 99.541 212.348 98.6508 213.238C97.6404 214.268 97.2448 215.919 97.6616 217.472C97.5344 217.514 97.3931 217.556 97.266 217.577C96.8138 215.884 97.2236 214.084 98.3611 212.948C99.2938 211.996 100.615 211.586 102.042 211.791L102.063 212.207Z" fill="white"/>
</g>
<g clip-path="url(#clip2_64_174)">
<path d="M79.6313 27.3254C80.5386 30.3505 77.6106 31.7127 78.1881 29.1123C78.9341 25.751 77.5556 24.9016 77.5556 24.9016C77.6379 26.0517 76.992 27.8206 76.2774 26.5648C75.5625 25.3087 75.4145 24.2848 75.7802 22.8116C73.1891 24.6031 75.6825 29.0781 74.0879 27.9326C73.253 27.3665 73.2643 25.6975 73.2643 25.6975C73.2643 25.6975 72.1639 26.4363 72.9099 29.7976C73.4871 32.3983 70.651 31.5755 71.5583 28.5501C69.3664 31.8586 70.0478 36.0009 73.8463 35.9058H77.6519C81.4504 36.0009 81.8229 30.6339 79.6313 27.3254Z" fill="#FFB21C"/>
<path d="M96.1211 27.3254C97.0284 30.3505 94.1007 31.7127 94.6779 29.1123C95.4239 25.751 94.0453 24.9016 94.0453 24.9016C94.1277 26.0517 93.4818 27.8206 92.7669 26.5648C92.0519 25.3087 91.904 24.2848 92.2696 22.8116C89.6785 24.6031 92.1719 29.0781 90.5773 27.9326C89.7424 27.3665 89.7534 25.6975 89.7534 25.6975C89.7534 25.6975 88.653 26.4363 89.399 29.7976C89.9762 32.3983 87.1401 31.5755 88.0474 28.5501C85.8555 31.8586 86.5369 36.0009 90.3354 35.9058H94.141C97.9395 36.0009 98.312 30.6339 96.1204 27.3254H96.1211Z" fill="#FFB21C"/>
<path d="M88.8604 24.6549C89.9916 28.4274 86.3407 30.1259 87.0608 26.8831C87.9913 22.692 86.2724 21.6329 86.2724 21.6329C86.3752 23.0666 85.5698 25.2727 84.6785 23.7066C83.7872 22.1405 83.6027 20.8633 84.0586 19.027C80.8277 21.2604 83.9366 26.8409 81.9483 25.4123C80.907 24.7067 80.921 22.6254 80.921 22.6254C80.921 22.6254 79.5489 23.5466 80.4792 27.738C81.1989 30.9808 77.6625 29.9548 78.7937 26.1826C76.0608 30.308 76.9103 35.4731 81.6469 35.3543H86.392C91.1285 35.4731 91.593 28.7802 88.8601 24.6552L88.8604 24.6549Z" fill="#FFB21C"/>
<path d="M77.5959 31.7093C78.0395 33.189 76.6076 33.8556 76.8898 32.5835C77.2548 30.9393 76.5806 30.5236 76.5806 30.5236C76.6209 31.0859 76.3048 31.9515 75.9552 31.3371C75.6056 30.7227 75.5331 30.2216 75.7119 29.5011C74.4443 30.3775 75.664 32.5666 74.8842 32.0061C74.4758 31.7293 74.4812 30.9127 74.4812 30.9127C74.4812 30.9127 73.943 31.2742 74.308 32.9184C74.5906 34.1908 73.2031 33.7882 73.6467 32.3085C72.5747 33.9268 72.9079 35.9532 74.7659 35.9065H76.6277C78.4858 35.9532 78.6679 33.3275 77.5959 31.7093Z" fill="#FFE14D"/>
<path d="M94.0856 31.7093C94.5296 33.189 93.0973 33.8556 93.3796 32.5835C93.7446 30.9393 93.0703 30.5236 93.0703 30.5236C93.1107 31.0859 92.7945 31.9515 92.4449 31.3371C92.0953 30.7227 92.0229 30.2216 92.2016 29.5011C90.9341 30.3775 92.1538 32.5666 91.3739 32.0061C90.9655 31.7293 90.971 30.9127 90.971 30.9127C90.971 30.9127 90.4328 31.2742 90.7977 32.9184C91.08 34.1908 89.6929 33.7882 90.1365 32.3085C89.0644 33.9268 89.3976 35.9532 91.2557 35.9065H93.1175C94.9755 35.9532 95.1577 33.3275 94.0856 31.7093Z" fill="#FFE14D"/>
<path d="M86.3219 30.1214C86.8752 31.9667 85.0896 32.7978 85.4416 31.2113C85.8968 29.1611 85.0558 28.6431 85.0558 28.6431C85.106 29.3446 84.712 30.4234 84.2759 29.6577C83.8399 28.8915 83.7496 28.2668 83.9725 27.3683C82.3922 28.461 83.913 31.1906 82.9404 30.4919C82.4309 30.1466 82.4377 29.1286 82.4377 29.1286C82.4377 29.1286 81.7665 29.5792 82.2217 31.6295C82.5737 33.2156 80.8438 32.7138 81.3974 30.8685C80.0605 32.8866 80.4761 35.4131 82.7931 35.355H85.1142C87.4312 35.4131 87.6585 32.1392 86.3216 30.1211L86.3219 30.1214Z" fill="#FFE14D"/>
<path d="M100.476 34.6072H67.307C67.0766 34.6072 66.8898 34.7961 66.8898 35.0291V56.0806C66.8898 56.3137 67.0766 56.5026 67.307 56.5026H100.476C100.706 56.5026 100.893 56.3137 100.893 56.0806V35.0291C100.893 34.7961 100.706 34.6072 100.476 34.6072Z" fill="#95C42D"/>
<path d="M99.6086 35.9055H68.1737H68.1734V55.2043H99.6096V35.9062C99.6096 35.9062 99.6092 35.9055 99.6089 35.9055H99.6086ZM97.9976 50.0243C96.215 50.3726 94.831 51.7718 94.4865 53.5746H73.2961C72.9516 51.7718 71.5679 50.3726 69.785 50.0243V41.0856C71.5679 40.7372 72.9519 39.3377 73.2961 37.5349H94.4865C94.8313 39.3377 96.215 40.7376 97.9979 41.0856V50.0243H97.9976Z" fill="#3D9315"/>
<path d="M73.3173 44.0398C72.4899 44.0398 71.8191 44.7185 71.8191 45.5554C71.8191 46.3924 72.4899 47.0701 73.3173 47.0701C74.1446 47.0701 74.8158 46.3921 74.8158 45.5554C74.8158 44.7188 74.145 44.0398 73.3173 44.0398Z" fill="#3D9315"/>
<path d="M94.465 44.0398C93.6373 44.0398 92.9668 44.7185 92.9668 45.5554C92.9668 46.3924 93.6373 47.0701 94.465 47.0701C95.2927 47.0701 95.9635 46.3921 95.9635 45.5554C95.9635 44.7188 95.2923 44.0398 94.465 44.0398Z" fill="#3D9315"/>
<path d="M83.8911 38.8456C80.2317 38.8456 77.2562 41.8555 77.2562 45.5554C77.2562 49.2554 80.2321 52.2646 83.8911 52.2646C87.5502 52.2646 90.5267 49.2551 90.5267 45.5554C90.5267 41.8558 87.5498 38.8456 83.8911 38.8456ZM84.537 49.0505V49.8453C84.537 50.2043 84.2486 50.496 83.8935 50.496C83.5384 50.496 83.25 50.2043 83.25 49.8453V49.0536C82.4623 48.9959 81.7604 48.4865 81.476 47.7391C81.3479 47.4039 81.5129 47.0275 81.8451 46.8986C82.1742 46.7677 82.5491 46.936 82.6762 47.2719C82.7887 47.5656 83.0778 47.7636 83.3966 47.7636H84.3928C84.8155 47.7636 85.1597 47.4163 85.1597 46.9888C85.1597 46.5614 84.8155 46.2054 84.3928 46.2054H83.3966C82.2596 46.2054 81.3352 45.2703 81.3352 44.121C81.3352 42.9716 82.1827 42.1374 83.2497 42.0604V41.2642C83.2497 40.9052 83.5381 40.6135 83.8932 40.6135C84.2482 40.6135 84.5367 40.9052 84.5367 41.2642V42.0562C85.3264 42.1129 86.0301 42.6226 86.3144 43.3711C86.4426 43.7063 86.2775 44.0826 85.9453 44.2115C85.6162 44.3442 85.2417 44.1742 85.1142 43.8383C85.0018 43.5442 84.712 43.3466 84.3928 43.3466H83.3966C82.9691 43.3466 82.6219 43.6939 82.6219 44.121C82.6219 44.5481 82.9623 44.9044 83.3966 44.9044H84.3928C85.5247 44.9044 86.4463 45.8395 86.4463 46.9888C86.4463 48.1382 85.6005 48.9738 84.5367 49.0498L84.537 49.0505Z" fill="#3D9315"/>
</g>
<defs>
<clipPath id="clip0_64_174">
<rect width="263" height="230" fill="white"/>
</clipPath>
<clipPath id="clip1_64_174">
<rect width="184" height="216.566" fill="white" transform="translate(40 6)"/>
</clipPath>
<clipPath id="clip2_64_174">
<rect width="39.0796" height="45.5929" fill="white" transform="translate(64.4248 19.0266)"/>
</clipPath>
</defs>
</svg>
