<svg width="23" height="17" viewBox="0 0 23 17" fill="none" xmlns="http://www.w3.org/2000/svg">
<path d="M0 8.51812C0.120737 8.46446 0.196757 8.36161 0.286192 8.27664C1.22526 7.40018 2.15985 6.52819 3.08997 5.64726C3.24201 5.49969 3.30909 5.53099 3.4343 5.66515C4.96364 7.30628 6.50192 8.93846 8.02678 10.5796C8.16988 10.7316 8.23695 10.7182 8.38452 10.5841C12.1408 7.0961 15.906 3.60367 19.6667 0.111241C19.8188 -0.0318551 19.8903 -0.0452703 20.0424 0.120184C20.9412 1.11291 21.8579 2.09669 22.7656 3.08048C22.8059 3.1252 22.8506 3.16097 22.8953 3.20122C22.8953 3.21463 22.8953 3.23252 22.8953 3.24593C22.2961 3.79149 21.6969 4.33704 21.1022 4.88706C16.7735 8.89822 12.4449 12.9094 8.12516 16.925C7.97759 17.0636 7.91499 17.001 7.81661 16.8937C5.27219 14.1749 2.73224 11.465 0.187813 8.75065C0.125209 8.68804 0.0626044 8.62544 0 8.56284C0 8.54942 0 8.53601 0 8.51812Z" fill="#0071BC"/>
</svg>
