<svg width="40" height="40" viewBox="0 0 40 40" fill="none" xmlns="http://www.w3.org/2000/svg">
<g clip-path="url(#clip0_1080_107)">
<path d="M39.9926 29.0481C39.6516 29.8358 39.0364 30.1108 38.2063 30.0513C37.7912 30.0216 37.3761 30.0588 36.9611 30.0439C36.7313 30.0365 36.6201 30.1256 36.5312 30.3337C36.3162 30.839 36.0494 31.3146 35.7084 31.7457C35.575 31.9166 35.5898 32.0503 35.6936 32.2287C35.9753 32.6969 36.2495 33.1725 36.5163 33.6481C36.9314 34.3912 36.7387 35.1269 36.0049 35.5579C34.8931 36.2119 33.7813 36.8584 32.6621 37.49C31.9135 37.9136 31.1945 37.713 30.7572 36.9773C30.4755 36.5091 30.2013 36.0335 29.9419 35.5579C29.8381 35.3721 29.7343 35.2904 29.5194 35.3201C28.9635 35.4018 28.4002 35.4018 27.8443 35.3201C27.6293 35.2904 27.5181 35.3573 27.4144 35.5505C27.1549 36.0335 26.8807 36.5017 26.599 36.9773C26.1617 37.713 25.4353 37.921 24.6941 37.4975C23.5601 36.8584 22.4335 36.2044 21.3142 35.543C20.6249 35.1343 20.4248 34.3912 20.8102 33.6852C21.0771 33.1948 21.3587 32.7117 21.6478 32.2287C21.7516 32.0578 21.7812 31.924 21.6404 31.7457C21.292 31.3072 21.0178 30.8168 20.8028 30.2966C20.7139 30.0885 20.5953 30.0365 20.3877 30.0365C19.8689 30.0513 19.3501 30.0439 18.8238 30.0365C17.8825 30.029 17.3414 29.494 17.3488 28.5502C17.3488 28.2455 17.3414 28.0523 16.9486 28.2009C16.6447 28.3124 16.3185 28.2604 16.0295 28.1489C15.7849 28.0523 15.6515 28.1266 15.4884 28.2901C14.9695 28.8252 14.4507 29.3528 13.917 29.8655C13.7614 30.0216 13.7169 30.1479 13.7836 30.3709C14.0134 31.114 13.8577 31.8051 13.3092 32.355C10.9522 34.733 8.58037 37.0962 6.22334 39.4742C5.52661 40.1801 4.09608 40.1802 3.39935 39.4445C2.48767 38.4933 1.53893 37.5792 0.619835 36.6429C-0.202901 35.8031 -0.210313 34.6067 0.619835 33.7744C2.9398 31.4335 5.26718 29.1001 7.60198 26.7741C8.18753 26.1871 8.89167 26.0162 9.68476 26.254C9.88488 26.3134 9.98865 26.2762 10.1221 26.1425C10.6706 25.5851 11.2191 25.0278 11.775 24.4853C11.9084 24.3515 11.9528 24.2475 11.8861 24.0469C11.6341 23.2592 11.8046 22.5532 12.3976 21.9661C12.405 21.9587 12.4124 21.9512 12.4272 21.9364C13.2574 21.0892 13.2499 21.0818 12.5532 20.1009C12.4569 19.9671 12.3531 19.9522 12.2197 19.9671C11.6341 20.0414 11.0486 20.0488 10.4704 19.9671C10.2629 19.9374 10.1665 20.0414 10.0776 20.2049C9.81076 20.6805 9.54393 21.1561 9.26227 21.6317C8.83238 22.36 8.08376 22.5606 7.34997 22.1445C6.23075 21.5054 5.11894 20.8588 4.00714 20.2049C3.27335 19.7739 3.08063 19.0456 3.50312 18.2951C3.76995 17.8195 4.03679 17.3364 4.32585 16.8757C4.43704 16.6973 4.44445 16.571 4.31103 16.3927C3.97749 15.9616 3.70324 15.486 3.48829 14.9733C3.39935 14.7652 3.28817 14.676 3.05098 14.6835C2.53214 14.6983 2.0133 14.6983 1.48704 14.6835C0.545715 14.6686 0.0194597 14.1336 0.0120477 13.1898C0.00463566 11.9488 0.00463566 10.7077 0.0120477 9.47414C0.0194597 8.5601 0.560539 8.01018 1.46481 8.00275C1.98365 7.99532 2.50249 7.99532 3.02875 8.00275C3.2437 8.01018 3.38453 7.95816 3.47347 7.73523C3.68101 7.21504 3.97008 6.732 4.31103 6.28613C4.43704 6.12264 4.42221 6.00374 4.32585 5.84025C4.03679 5.36465 3.75513 4.87419 3.48829 4.38372C3.11028 3.64803 3.29558 2.91976 4.01455 2.50361C5.13377 1.84223 6.2604 1.19571 7.39444 0.549188C8.12082 0.140468 8.83979 0.333681 9.26969 1.04708C9.55875 1.53012 9.84041 2.01315 10.1072 2.50361C10.211 2.69683 10.3296 2.74884 10.5446 2.71912C11.1005 2.63738 11.6638 2.63738 12.2197 2.71912C12.4198 2.74884 12.5236 2.68939 12.6199 2.51104C12.8719 2.04287 13.1462 1.58213 13.413 1.1214C13.8948 0.303956 14.5989 0.110743 15.4291 0.586345C16.3185 1.0991 17.2154 1.61186 18.0974 2.13205C18.2827 2.24352 18.4161 2.26581 18.6163 2.13948C26.7399 -2.8692 37.1612 1.31461 39.5627 10.5442C39.7406 11.2279 39.8592 11.919 39.9259 12.625C39.9407 12.7513 39.9704 12.8777 40 12.9966C40 13.6728 40 14.3565 40 15.0327C39.9778 15.1293 39.9407 15.2334 39.9333 15.33C39.8518 16.2366 39.6739 17.1284 39.4144 18.0052C38.8734 19.8185 37.9988 21.4608 36.7906 22.9247C36.7091 23.0213 36.5756 23.1031 36.6349 23.2517C36.7016 23.4152 36.8573 23.3483 36.9759 23.3483C37.391 23.3558 37.806 23.3781 38.2211 23.3483C39.0438 23.2889 39.659 23.5564 40 24.3441C39.9926 25.9195 39.9926 27.4801 39.9926 29.0481ZM26.0061 1.3369C19.0165 1.3592 13.3537 7.03669 13.376 13.9998C13.3908 21.0892 19.0758 26.7147 26.184 26.6998C32.9882 26.685 38.6732 20.9034 38.6658 14.0221C38.651 6.99953 32.9808 1.31461 26.0061 1.3369ZM1.36845 11.3097C1.36845 11.8447 1.39069 12.3798 1.36104 12.9148C1.34621 13.2492 1.42775 13.3756 1.79094 13.3607C2.41355 13.331 3.04357 13.3607 3.66618 13.3458C4.10349 13.3384 4.37033 13.5168 4.51857 13.9329C4.7854 14.7058 5.19306 15.3969 5.71932 16.0211C5.99356 16.3406 6.0158 16.6602 5.80085 17.0243C5.45248 17.604 5.13377 18.1985 4.77799 18.7781C4.6594 18.9713 4.69646 19.0605 4.88176 19.1645C5.87497 19.7293 6.86818 20.3015 7.85399 20.8886C8.07635 21.0223 8.15788 20.948 8.26165 20.7548C8.57295 20.1826 8.9065 19.6253 9.23263 19.0605C9.50687 18.5849 9.66993 18.5106 10.2258 18.6072C10.9596 18.7261 11.7008 18.7112 12.442 18.6295C12.7385 18.5923 12.7904 18.4957 12.694 18.2059C12.5532 17.8046 12.4494 17.381 12.3679 16.9574C12.316 16.6973 12.2345 16.6156 11.938 16.6528C8.57295 17.0912 5.57849 14.0221 6.06768 10.6706C6.60876 6.94751 10.463 4.94107 13.8281 6.62797C14.0356 6.732 14.1246 6.71714 14.2506 6.5165C14.9918 5.32006 15.9035 4.27225 16.9708 3.36564C17.2006 3.17243 17.1264 3.10555 16.9189 2.99408C16.2518 2.61508 15.5847 2.24352 14.9251 1.84223C14.6805 1.6936 14.5841 1.75305 14.4581 1.98342C14.1394 2.57793 13.791 3.15756 13.4501 3.75207C13.2648 4.07161 12.9979 4.19794 12.6348 4.13106C11.8194 3.98243 11.0041 3.98987 10.1888 4.1162C9.66993 4.19794 9.50687 4.1162 9.24004 3.65546C8.91391 3.09068 8.58037 2.53334 8.26906 1.96113C8.15788 1.76049 8.06894 1.70847 7.85399 1.8348C6.88301 2.41444 5.90462 2.98664 4.91882 3.53656C4.66681 3.67775 4.69646 3.78922 4.81505 3.98987C5.156 4.56207 5.47472 5.14171 5.81567 5.71392C6.02321 6.06319 6.00839 6.36787 5.74897 6.67999C5.20048 7.31908 4.79281 8.04734 4.51116 8.83505C4.37774 9.20662 4.13314 9.37011 3.74772 9.36267C3.0584 9.35524 2.36908 9.37011 1.67976 9.35524C1.4574 9.35524 1.38328 9.42213 1.38328 9.64506C1.37586 10.1875 1.36845 10.7449 1.36845 11.3097ZM38.6658 26.7073C38.6658 26.1499 38.651 25.5851 38.6732 25.0278C38.6807 24.7677 38.5917 24.6934 38.3397 24.7008C37.68 24.7157 37.0129 24.7008 36.3459 24.7082C36.0939 24.7082 35.8344 24.686 35.6862 24.4482C35.5528 24.2326 35.4712 24.3218 35.3378 24.4333C34.9376 24.7677 34.5447 25.1095 34.1223 25.4142C33.9221 25.5628 33.8702 25.704 33.9221 25.9344C34.0259 26.4249 34.0185 26.9228 33.9592 27.4132C33.6256 29.977 31.5651 31.9389 29.0598 32.0949C26.4656 32.2584 24.1827 30.6087 23.5304 28.0895C23.4712 27.8591 23.3674 27.7699 23.1524 27.7253C22.0258 27.5098 20.9511 27.1308 19.9134 26.6329C19.313 26.3431 19.3278 26.358 18.8535 26.8187C18.6311 27.0268 18.683 27.2646 18.683 27.5024C18.6756 27.7997 18.6978 28.1043 18.6756 28.4016C18.6607 28.6394 18.7423 28.7211 18.9869 28.7137C19.6762 28.6988 20.3655 28.7137 21.0548 28.7063C21.4254 28.7063 21.67 28.8623 21.796 29.219C22.0851 30.029 22.5002 30.7573 23.0561 31.4113C23.3081 31.7085 23.3229 32.0132 23.1228 32.3476C22.7818 32.9272 22.4557 33.5292 22.0999 34.1014C21.9665 34.3243 22.0036 34.4135 22.2259 34.5398C23.1969 35.0897 24.1679 35.6471 25.1314 36.2193C25.3464 36.3456 25.4502 36.3382 25.5762 36.1078C25.8875 35.5207 26.2358 34.956 26.562 34.3763C26.7621 34.0122 27.0363 33.8636 27.4662 33.9453C28.2667 34.0939 29.0747 34.1014 29.8752 33.9527C30.3125 33.871 30.5941 34.0122 30.8091 34.3912C31.1352 34.9857 31.4836 35.5653 31.8171 36.1524C31.9135 36.3233 31.995 36.3605 32.1803 36.2564C33.1809 35.6694 34.1815 35.0897 35.1896 34.5175C35.3971 34.3986 35.3823 34.3094 35.2711 34.1237C34.9376 33.5663 34.6189 32.9941 34.2927 32.4293C34.0037 31.924 34.0111 31.7754 34.3669 31.3369C34.8709 30.7127 35.2711 30.029 35.538 29.2785C35.6788 28.8772 35.9308 28.6988 36.3533 28.7063C37.0055 28.7211 37.6578 28.6988 38.3026 28.7137C38.5843 28.7211 38.6955 28.6543 38.6807 28.3496C38.6436 27.8071 38.6658 27.2572 38.6658 26.7073ZM12.5755 30.9654C12.5606 30.7424 12.4569 30.5715 12.3012 30.4229C11.4044 29.5311 10.5223 28.632 9.62546 27.7402C9.25486 27.3761 8.9065 27.3761 8.53589 27.7402C6.89783 29.3751 5.26718 31.0248 3.62171 32.6597C3.45865 32.8232 3.48088 32.9124 3.62912 33.061C4.75575 34.1831 5.88238 35.3052 6.99419 36.4422C7.14984 36.5983 7.23879 36.6057 7.39444 36.4422C9.02509 34.7925 10.6631 33.1576 12.3012 31.5153C12.4569 31.3592 12.5606 31.1883 12.5755 30.9654ZM11.3895 7.3488C8.80273 7.35623 6.92748 9.69708 7.45374 12.1866C7.86881 14.141 9.74406 15.5306 11.7082 15.3374C11.9603 15.3151 12.0863 15.2631 12.064 14.9436C11.9084 12.625 12.3012 10.3956 13.2796 8.28514C13.3982 8.02505 13.4056 7.88385 13.1091 7.75009C12.5458 7.49743 11.9603 7.33394 11.3895 7.3488ZM32.625 26.4249C32.6028 26.4249 32.5731 26.41 32.5509 26.4249C32.4916 26.4472 32.4323 26.4769 32.373 26.5066C30.1198 27.651 27.7331 28.1712 25.213 28.0077C24.8127 27.9854 24.9684 28.1712 25.0425 28.3421C25.7985 30.0959 27.7924 31.0694 29.6602 30.5938C31.5429 30.1108 32.8993 28.2009 32.625 26.4249ZM16.6669 26.9228C16.7336 26.9005 16.867 26.8856 16.9486 26.8113C17.3266 26.462 17.6972 26.0905 18.0678 25.7263C18.1938 25.6 18.0752 25.548 17.9937 25.4885C16.6447 24.5373 15.4884 23.3855 14.5471 22.0256C14.4433 21.8769 14.3766 21.8695 14.258 21.9958C13.9689 22.2931 13.665 22.5829 13.3834 22.8802C13.035 23.2443 13.0276 23.5787 13.3834 23.9354C14.2876 24.8494 15.1993 25.7561 16.1036 26.6701C16.2518 26.8262 16.4149 26.9153 16.6669 26.9228ZM4.85952 38.7088C5.05223 38.7013 5.20789 38.627 5.34872 38.4933C5.57849 38.2629 5.79344 38.0177 6.04545 37.8096C6.25299 37.6312 6.20851 37.5198 6.03804 37.3488C5.14118 36.4645 4.25173 35.5579 3.35488 34.6736C3.07322 34.3912 2.80639 33.8784 2.48767 33.9007C2.17636 33.923 1.90212 34.3986 1.62046 34.6884C1.27209 35.0526 1.26468 35.387 1.61305 35.7437C2.50991 36.6503 3.41417 37.5495 4.31103 38.4561C4.45927 38.6122 4.63716 38.7162 4.85952 38.7088ZM14.7027 27.1977C14.6582 27.1457 14.6286 27.1011 14.5915 27.064C14.0579 26.5289 13.5242 25.9939 12.9979 25.4514C12.8719 25.3176 12.7904 25.3622 12.6792 25.4662C12.1678 25.9864 11.6564 26.5066 11.1301 27.0119C11.0041 27.1308 10.967 27.2126 11.1153 27.3538C11.6415 27.8591 12.153 28.3793 12.6644 28.8995C12.783 29.0258 12.8645 29.063 13.0054 28.9143C13.5242 28.3793 14.0505 27.8591 14.5767 27.3315C14.6212 27.3018 14.6582 27.2497 14.7027 27.1977Z" fill="#424242"/>
<path d="M14.725 13.9772C14.6953 7.73496 19.7652 2.64454 26.0358 2.61482C32.2248 2.59252 37.3539 7.71267 37.391 13.9549C37.4281 20.1823 32.3582 25.3173 26.1543 25.3471C19.8541 25.3842 14.7546 20.3087 14.725 13.9772ZM36.0198 13.9624C36.168 13.4793 35.8864 13.1226 35.3453 12.9146C35.286 12.8923 35.2341 12.8477 35.1748 12.818C34.7746 12.595 34.6634 12.6247 34.4262 13.026C33.8555 14.0144 33.2773 15.0102 32.714 16.006C32.5065 16.3701 32.2396 16.5262 31.8171 16.4518C30.4756 16.2215 29.1266 16.214 27.785 16.4518C27.3255 16.5336 27.0512 16.3552 26.8363 15.9688C26.2878 14.9805 25.717 13.9995 25.1463 13.0186C24.924 12.6247 24.7905 12.595 24.3977 12.8254C22.73 13.7914 21.0697 14.7501 19.402 15.7161C18.9869 15.9539 18.9573 16.0803 19.1944 16.4964C19.7652 17.4922 20.3285 18.488 20.9066 19.4764C21.1216 19.8405 21.0993 20.1526 20.8325 20.4796C20.5508 20.8214 20.3137 21.193 20.0468 21.5497C19.8986 21.7503 19.8838 21.8767 20.1209 22.0402C21.0697 22.7238 22.1 23.2292 23.2192 23.571C23.449 23.6379 23.575 23.623 23.7158 23.3927C25.6874 20.2195 29.5639 19.1271 32.8771 20.814C33.1217 20.9403 33.2477 20.9106 33.4256 20.71C35.0933 18.8224 35.9457 16.6079 36.0198 13.9624ZM18.8461 20.918C19.0536 20.6282 19.2167 20.3607 19.4168 20.1229C19.5725 19.9445 19.5576 19.7959 19.4465 19.6027C18.9498 18.763 18.4607 17.9158 17.9789 17.0686C17.4452 16.1249 17.6972 15.1662 18.6311 14.6238C20.3507 13.6205 22.0703 12.6247 23.7973 11.6289C24.7535 11.079 25.7022 11.3391 26.2581 12.2978C26.7399 13.1226 27.2143 13.9401 27.6738 14.7724C27.7998 14.9953 27.9184 15.0845 28.1852 15.0473C29.2452 14.9061 30.3125 14.9061 31.3724 15.0473C31.617 15.0771 31.743 15.0102 31.8616 14.7947C32.3434 13.9326 32.8326 13.0706 33.3366 12.2235C33.7962 11.4432 34.5967 11.1682 35.449 11.4729C35.5158 11.4952 35.5825 11.5695 35.6714 11.4878C35.1822 9.62251 34.2483 8.01735 32.8474 6.67972C32.6325 6.47908 32.5361 6.57569 32.3879 6.73174C31.1278 8.01735 29.8752 9.30296 28.6077 10.5811C27.7924 11.3986 26.814 11.406 25.9913 10.596C25.3168 9.92719 24.6349 9.26581 23.9678 8.58213C23.7973 8.40378 23.6565 8.37405 23.4267 8.47809C22.4335 8.9091 21.3958 9.19149 20.3211 9.33269C20.1061 9.36241 20.0172 9.45159 19.9653 9.65966C19.7207 10.648 19.4687 11.6289 19.2019 12.6099C18.9424 13.5536 18.053 14.0515 17.1042 13.8063C16.8671 13.7469 16.6225 13.6948 16.3927 13.6057C16.0888 13.4793 16.0295 13.6131 16.0369 13.8806C16.0443 14.4454 16.0666 15.0027 16.1629 15.5527C16.5113 17.5963 17.3933 19.3723 18.8461 20.918ZM31.5577 5.68393C31.5207 5.63935 31.4984 5.60219 31.4688 5.5799C31.3872 5.52045 31.2983 5.461 31.2094 5.40898C29.9197 4.62869 28.5262 4.16052 27.0364 4.0119C22.0036 3.514 17.4304 6.82092 16.2963 11.7627C16.2296 12.0377 16.2445 12.2012 16.5706 12.2606C16.8226 12.3052 17.0672 12.4018 17.3192 12.4687C17.7565 12.5876 17.8677 12.5281 17.9789 12.0823C18.2679 10.975 18.557 9.86774 18.8387 8.75305C18.9424 8.35176 19.1574 8.11396 19.5799 8.0768C20.9289 7.9579 22.2037 7.58634 23.4341 7.02899C23.9381 6.79862 24.116 6.82835 24.5089 7.22221C25.3242 8.02478 26.1395 8.83479 26.9474 9.6448C27.1624 9.86031 27.3699 9.94948 27.6145 9.69682C28.9339 8.35919 30.2458 7.02156 31.5577 5.68393ZM29.6602 21.3639C27.8146 21.4159 26.3026 22.1516 25.1611 23.623C25.0648 23.7493 24.8424 23.9277 25.2427 23.9574C27.659 24.1135 29.8678 23.5115 31.8542 22.107C32.0617 21.9584 32.0692 21.8841 31.8246 21.7875C31.1278 21.5125 30.4089 21.3565 29.6602 21.3639Z" fill="#424242"/>
</g>
<defs>
<clipPath id="clip0_1080_107">
<rect width="40" height="40" fill="white"/>
</clipPath>
</defs>
</svg>
