<svg width="40" height="40" viewBox="0 0 40 40" fill="none" xmlns="http://www.w3.org/2000/svg">
<g clip-path="url(#clip0_1080_34)">
<path d="M20.0079 40C14.4107 40 8.81356 40 3.2164 40C1.1352 40 0 38.8312 0 36.6722C0 26.4779 0 16.2998 0 6.10549C0 4.46596 0.835633 3.29718 2.23886 2.97252C2.52266 2.90759 2.82223 2.90759 3.10603 2.90759C5.1084 2.90759 7.09499 2.89136 9.09736 2.90759C9.49153 2.90759 9.61766 2.81019 9.58613 2.40437C9.55459 1.98231 9.57036 1.56025 9.58613 1.12196C9.61766 0.456408 10.0118 0.0343503 10.5952 0.0181173C11.2101 0.00188427 11.62 0.440175 11.6358 1.13819C11.6516 1.54402 11.6673 1.94984 11.6358 2.35567C11.6043 2.76149 11.7146 2.90759 12.1403 2.89136C13.6697 2.85889 15.1991 2.87513 16.7442 2.87513C20.4493 2.87513 24.1545 2.87513 27.8439 2.89136C28.2854 2.89136 28.4115 2.76149 28.38 2.3232C28.3484 1.90115 28.3642 1.47909 28.38 1.0408C28.3957 0.440175 28.7899 0.0181173 29.3417 0.00188427C29.9251 -0.0305817 30.3666 0.35901 30.4296 0.975864C30.4612 1.44662 30.4612 1.93361 30.4454 2.40437C30.4296 2.77773 30.5558 2.87513 30.9184 2.87513C32.9365 2.85889 34.9389 2.85889 36.957 2.87513C38.849 2.87513 40 4.06013 40 6.02433C40 16.2836 40 26.5428 40 36.8183C40 38.7988 38.8333 39.9838 36.894 39.9838C31.2653 40 25.6366 40 20.0079 40ZM20.0552 13.459C14.2531 13.459 8.45093 13.459 2.6488 13.4428C2.20733 13.4428 2.06543 13.5402 2.06543 14.0272C2.0812 21.5918 2.0812 29.1564 2.0812 36.7372C2.0812 37.6624 2.3177 37.8897 3.2164 37.8897C14.4107 37.8897 25.5893 37.8897 36.7836 37.8897C37.7296 37.8897 37.9503 37.6624 37.9503 36.7047C37.9503 29.1564 37.9503 21.608 37.9661 14.0597C37.9661 13.5564 37.8084 13.4428 37.3512 13.4428C31.5964 13.459 25.8258 13.459 20.0552 13.459ZM20.0079 11.3325C25.1163 11.3325 30.2247 11.3325 35.3488 11.3325C36.0899 11.3325 36.8309 11.3163 37.5719 11.3325C37.8873 11.3325 37.9976 11.2351 37.9819 10.9105C37.9661 9.2547 37.9819 7.61516 37.9661 5.9594C37.9661 5.32631 37.6823 5.01788 37.0989 5.00165C35.002 4.98542 32.905 5.00165 30.7923 4.98542C30.4927 4.98542 30.4139 5.09905 30.4139 5.39124C30.4296 5.89446 30.4454 6.38145 30.4139 6.88468C30.3823 7.46906 29.9251 7.87489 29.389 7.87489C28.8372 7.87489 28.3957 7.4366 28.3642 6.83598C28.3484 6.39769 28.3327 5.94316 28.3642 5.50487C28.3957 5.13151 28.3011 4.98542 27.8912 4.98542C22.6251 5.00165 17.3591 5.00165 12.093 4.98542C11.7462 4.98542 11.5885 5.06658 11.62 5.45617C11.6516 5.87823 11.6358 6.30029 11.62 6.73858C11.6043 7.4366 11.1943 7.89112 10.5952 7.89112C10.0276 7.89112 9.60189 7.4366 9.57036 6.78728C9.55459 6.36522 9.53883 5.92693 9.57036 5.50487C9.60189 5.11528 9.47576 5.00165 9.08159 5.00165C7.07923 5.01788 5.09263 5.00165 3.09026 5.01788C2.28616 5.01788 2.04966 5.26138 2.0339 6.08926C2.0339 7.6314 2.04966 9.17353 2.01813 10.7157C2.00237 11.1864 2.1285 11.3488 2.61726 11.3325C8.45093 11.3325 14.2215 11.3325 20.0079 11.3325Z" fill="#424242"/>
<path d="M20.0236 26.8359C19.456 26.8521 18.9988 26.3974 18.983 25.829C18.9673 25.2281 19.4403 24.7246 20.0079 24.7246C20.5597 24.7246 21.0327 25.2118 21.0327 25.7802C21.0485 26.3486 20.5912 26.8359 20.0236 26.8359Z" fill="#424242"/>
<path d="M9.17618 25.7964C9.17618 26.381 8.73472 26.8357 8.16712 26.8357C7.59952 26.8357 7.14229 26.381 7.12652 25.7964C7.11075 25.2117 7.61529 24.7083 8.18289 24.7245C8.73472 24.7407 9.17618 25.2117 9.17618 25.7964Z" fill="#424242"/>
<path d="M31.8486 24.7245C32.3847 24.7083 32.8735 25.1793 32.905 25.7477C32.9365 26.3161 32.4793 26.8033 31.9275 26.8358C31.3283 26.8683 30.8711 26.4135 30.8553 25.7964C30.8553 25.2117 31.2968 24.7408 31.8486 24.7245Z" fill="#424242"/>
<path d="M9.17621 19.6933C9.17621 20.278 8.71897 20.7489 8.16714 20.7489C7.61531 20.7489 7.14231 20.278 7.12654 19.7096C7.11078 19.1249 7.58378 18.6377 8.16714 18.6377C8.75051 18.6539 9.17621 19.0924 9.17621 19.6933Z" fill="#424242"/>
<path d="M19.9921 18.6377C20.5597 18.6377 21.017 19.0762 21.0485 19.6446C21.0643 20.2293 20.5755 20.7489 20.0079 20.7327C19.4561 20.7327 18.9988 20.2455 18.9988 19.6771C18.9831 19.1087 19.4245 18.6539 19.9921 18.6377Z" fill="#424242"/>
<path d="M31.8802 18.6377C32.4478 18.6377 32.905 19.1087 32.905 19.6771C32.9208 20.2617 32.4005 20.7652 31.8486 20.7489C31.2968 20.7327 30.8553 20.2455 30.8553 19.6771C30.8711 19.0762 31.3126 18.6377 31.8802 18.6377Z" fill="#424242"/>
<path d="M13.0706 25.7317C13.1021 25.147 13.5751 24.6923 14.1269 24.7248C14.6788 24.7573 15.136 25.2607 15.1202 25.8129C15.1045 26.3975 14.5999 26.8685 14.0166 26.836C13.4647 26.8035 13.0548 26.3326 13.0706 25.7317Z" fill="#424242"/>
<path d="M26.961 25.8126C26.9452 26.3973 26.5195 26.852 25.9361 26.8357C25.3843 26.8357 24.9113 26.3648 24.9113 25.7964C24.9113 25.2117 25.4158 24.7083 25.9677 24.7245C26.5353 24.757 26.9767 25.228 26.961 25.8126Z" fill="#424242"/>
<path d="M13.0706 19.7095C13.0548 19.1086 13.4805 18.6539 14.0481 18.6376C14.6315 18.6214 15.1045 19.0923 15.1045 19.6932C15.1045 20.2617 14.6315 20.7489 14.0796 20.7489C13.5436 20.7489 13.0863 20.2941 13.0706 19.7095Z" fill="#424242"/>
<path d="M26.961 19.6933C26.961 20.278 26.5195 20.7489 25.9519 20.7489C25.4001 20.7489 24.9271 20.278 24.9113 19.7096C24.8956 19.1087 25.3686 18.6377 25.9519 18.6377C26.5353 18.6539 26.961 19.0924 26.961 19.6933Z" fill="#424242"/>
<path d="M26.961 31.8836C26.961 32.4683 26.5195 32.9392 25.9677 32.9392C25.3843 32.9555 24.9113 32.452 24.9271 31.8674C24.9428 31.299 25.4001 30.8442 25.9677 30.8442C26.5195 30.8605 26.961 31.299 26.961 31.8836Z" fill="#424242"/>
<path d="M19.9921 30.8442C20.5597 30.8279 21.017 31.2827 21.0485 31.8511C21.0643 32.4357 20.5913 32.9392 20.0079 32.9392C19.4403 32.9392 18.9988 32.4682 18.9988 31.8998C18.9831 31.3151 19.4245 30.8604 19.9921 30.8442Z" fill="#424242"/>
<path d="M8.19867 30.8442C8.76627 30.8604 9.19197 31.3152 9.1762 31.9161C9.16043 32.5007 8.71897 32.9392 8.15137 32.9392C7.568 32.923 7.095 32.4195 7.1423 31.8348C7.15807 31.2664 7.63107 30.8279 8.19867 30.8442Z" fill="#424242"/>
<path d="M14.1427 30.8442C14.7103 30.8604 15.1517 31.3477 15.1202 31.9161C15.1044 32.517 14.6157 32.9717 14.0165 32.923C13.4489 32.8905 13.039 32.4195 13.0706 31.8186C13.1021 31.2502 13.5593 30.828 14.1427 30.8442Z" fill="#424242"/>
<path d="M31.9432 30.8608C32.4951 30.8932 32.9365 31.3967 32.905 31.9651C32.8735 32.5335 32.4005 32.972 31.8329 32.9558C31.2495 32.9395 30.8238 32.4361 30.8553 31.8189C30.9026 31.2343 31.3599 30.812 31.9432 30.8608Z" fill="#424242"/>
</g>
<defs>
<clipPath id="clip0_1080_34">
<rect width="40" height="40" fill="white"/>
</clipPath>
</defs>
</svg>
