<svg width="41" height="41" viewBox="0 0 41 41" fill="none" xmlns="http://www.w3.org/2000/svg">
<circle cx="20.5" cy="20.5" r="20.5" fill="white"/>
<path d="M23.05 15C24.0267 15.1906 24.9244 15.6683 25.6281 16.3719C26.3317 17.0756 26.8094 17.9733 27 18.95M23.05 11C25.0793 11.2254 26.9716 12.1342 28.4162 13.577C29.8609 15.0198 30.772 16.911 31 18.94M30 26.92V29.92C30.0011 30.1985 29.9441 30.4742 29.8325 30.7293C29.7209 30.9845 29.5573 31.2136 29.3521 31.4019C29.1468 31.5901 28.9046 31.7335 28.6407 31.8227C28.3769 31.9119 28.0974 31.9451 27.82 31.92C24.7428 31.5856 21.787 30.5341 19.19 28.85C16.7738 27.3147 14.7253 25.2662 13.19 22.85C11.5 20.2412 10.4482 17.271 10.12 14.18C10.095 13.9035 10.1279 13.6248 10.2165 13.3616C10.3051 13.0985 10.4476 12.8567 10.6348 12.6516C10.822 12.4466 11.0498 12.2827 11.3038 12.1705C11.5578 12.0583 11.8323 12.0003 12.11 12H15.11C15.5953 11.9952 16.0658 12.1671 16.4338 12.4835C16.8017 12.8 17.0421 13.2394 17.11 13.72C17.2366 14.6801 17.4714 15.6227 17.81 16.53C17.9445 16.8879 17.9737 17.2769 17.8939 17.6509C17.8141 18.0248 17.6289 18.3681 17.36 18.64L16.09 19.91C17.5135 22.4135 19.5864 24.4864 22.09 25.91L23.36 24.64C23.6319 24.3711 23.9751 24.1858 24.3491 24.1061C24.7231 24.0263 25.1121 24.0555 25.47 24.19C26.3773 24.5286 27.3199 24.7634 28.28 24.89C28.7658 24.9585 29.2094 25.2032 29.5265 25.5775C29.8437 25.9518 30.0122 26.4296 30 26.92Z" stroke="#0071BC" stroke-width="1.5" stroke-linecap="round" stroke-linejoin="round"/>
</svg>
