<svg width="16" height="16" viewBox="0 0 16 16" fill="none" xmlns="http://www.w3.org/2000/svg">
<g clip-path="url(#clip0_29_408)">
<path d="M6.80663 12C6.50242 12 6.21429 11.884 6.02966 11.684L3.5309 8.986C3.45365 8.90268 3.39725 8.80774 3.36492 8.70659C3.3326 8.60545 3.32499 8.50009 3.34253 8.39654C3.36006 8.29299 3.4024 8.19329 3.46712 8.10312C3.53185 8.01295 3.61768 7.93409 3.71972 7.87104C3.82173 7.80774 3.93802 7.7615 4.06193 7.73499C4.18584 7.70848 4.31494 7.70221 4.44182 7.71654C4.56871 7.73088 4.69088 7.76553 4.80134 7.81852C4.9118 7.87151 5.00838 7.9418 5.08554 8.02534L6.7297 9.79922L10.8635 4.37472C11.0006 4.19561 11.2191 4.06826 11.4709 4.02058C11.7228 3.97291 11.9875 4.00881 12.207 4.12041C12.6636 4.35243 12.8042 4.8439 12.5189 5.21765L7.63466 11.624C7.55128 11.7338 7.43636 11.8254 7.29986 11.8907C7.16336 11.956 7.00942 11.9932 6.85139 11.9989C6.836 12 6.82202 12 6.80663 12Z" fill="#181059"/>
</g>
<defs>
<clipPath id="clip0_29_408">
<rect width="9.92" height="8.32" fill="white" transform="translate(3.04 3.83984)"/>
</clipPath>
</defs>
</svg>
