<svg width="20" height="20" viewBox="0 0 20 20" fill="none" xmlns="http://www.w3.org/2000/svg">
<path d="M0 2.76371C0 2.75199 0 2.74027 0 2.72269C0.0761793 2.69925 0.111339 2.63479 0.158219 2.58791C0.990331 1.7558 1.82244 0.935408 2.64284 0.0974357C2.7659 -0.0256232 2.83035 -0.0314831 2.95341 0.0974357C5.24465 2.4004 7.54761 4.69163 9.83885 6.99459C9.97363 7.12937 10.0322 7.12937 10.167 6.99459C12.4641 4.68577 14.7671 2.38868 17.0642 0.0857158C17.1814 -0.0314831 17.2341 -0.0256232 17.3454 0.0857158C18.1717 0.923688 19.0097 1.7558 19.8418 2.58791C19.8887 2.63479 19.9297 2.70511 20 2.72269C20 2.73441 20 2.74613 20 2.76371C19.959 2.79887 19.9238 2.82817 19.8828 2.86919C17.574 5.17801 15.2593 7.49269 12.9446 9.79565C12.8157 9.91871 12.8157 9.98317 12.9446 10.1062C15.2593 12.415 17.5681 14.7239 19.8828 17.0327C19.918 17.0678 19.959 17.103 20 17.1382C20 17.1499 20 17.1616 20 17.1792C19.9648 17.2085 19.9238 17.2261 19.8945 17.2612C19.0331 18.1226 18.1658 18.984 17.3044 19.8513C17.2751 19.8806 17.2517 19.9216 17.2224 19.9568C17.2107 19.9568 17.1989 19.9568 17.1814 19.9568C17.1462 19.9158 17.1169 19.8806 17.0759 19.8396C14.7671 17.5308 12.4524 15.2161 10.1494 12.9014C10.0264 12.7725 9.96191 12.7784 9.83885 12.9014C7.53003 15.2161 5.22121 17.5249 2.91239 19.8396C2.87723 19.8748 2.84207 19.9158 2.80692 19.9568C2.7952 19.9568 2.78348 19.9568 2.7659 19.9568C2.7366 19.9216 2.71902 19.8806 2.68386 19.8513C1.83416 18.984 0.966891 18.1168 0.105479 17.2554C0.0761793 17.2261 0.0351597 17.2026 0 17.1733C0 17.1616 0 17.1499 0 17.1323C0.0410196 17.0971 0.0761793 17.0678 0.117199 17.0268C2.42602 14.718 4.7407 12.4033 7.05538 10.1004C7.1843 9.97731 7.1843 9.91285 7.05538 9.78979C4.73484 7.48683 2.42602 5.17215 0.117199 2.86333C0.0761793 2.82817 0.0410196 2.79301 0 2.76371Z" fill="black"/>
</svg>
