<svg width="40" height="40" viewBox="0 0 40 40" fill="none" xmlns="http://www.w3.org/2000/svg">
<g clip-path="url(#clip0_1080_119)">
<path d="M16.1369 16.845C18.1417 15.0688 20.0607 13.3735 22.0131 11.645C21.7464 11.5783 21.5036 11.5878 21.3464 11.3783C21.1893 11.1688 21.2131 10.9259 21.2131 10.6926C21.2083 9.78307 21.2083 8.87354 21.2131 7.95926C21.2179 7.38307 21.394 7.2164 21.9798 7.21164C22.4417 7.20688 22.9036 7.20688 23.3655 7.21164C23.5464 7.2164 23.6655 7.16878 23.6988 6.97831C23.6988 6.96402 23.7083 6.94973 23.7131 6.94021C24.0893 6.00212 24.0893 6.00212 23.375 5.28783C22.4083 4.32116 22.4083 4.32116 23.375 3.34974C23.9131 2.8164 24.4464 2.27831 24.9845 1.74497C25.3798 1.3545 25.656 1.3545 26.0607 1.74974C26.3893 2.07354 26.7179 2.39735 27.0417 2.73069C27.1655 2.85926 27.2798 2.92116 27.4417 2.80688C27.4512 2.79735 27.4655 2.79259 27.4798 2.78783C28.4036 2.40212 28.4036 2.40212 28.4036 1.37354C28.4036 0.00211643 28.4036 0.0021164 29.7798 0.0021164C30.5226 0.0021164 31.2655 -0.0026455 32.0083 0.0021164C32.594 0.00687831 32.7845 0.197354 32.7893 0.783069C32.794 1.2164 32.8083 1.6545 32.7845 2.08783C32.7702 2.34497 32.8655 2.46402 33.1036 2.53069C33.3179 2.59259 33.5274 2.67831 33.7226 2.78783C33.9226 2.90688 34.0512 2.84974 34.194 2.69735C34.5226 2.3545 34.8607 2.0164 35.2036 1.68783C35.5369 1.36878 35.8274 1.35926 36.156 1.67831C36.8845 2.39259 37.6083 3.1164 38.3226 3.84974C38.6274 4.16402 38.6226 4.4545 38.3226 4.77354C38.0036 5.11164 37.6798 5.44021 37.3417 5.7545C37.1512 5.93069 37.1512 6.07354 37.2131 6.33069C37.394 7.10688 37.8464 7.34973 38.594 7.2164C38.8369 7.17354 39.0988 7.20212 39.3512 7.21164C39.756 7.22593 39.9798 7.42592 39.9893 7.83545C40.0036 8.87354 40.0036 9.90688 39.9893 10.945C39.9845 11.3735 39.756 11.5831 39.3274 11.5926C38.8512 11.6021 38.375 11.6069 37.8988 11.5926C37.675 11.5878 37.5845 11.664 37.4655 11.8688C37.056 12.5497 37.1607 13.0688 37.8131 13.5116C38.0083 13.645 38.1607 13.8354 38.3226 14.0116C38.6321 14.345 38.6369 14.6354 38.3083 14.964C37.5988 15.6831 36.8893 16.3974 36.1655 17.1021C35.8274 17.4354 35.5321 17.4212 35.1845 17.0831C34.8417 16.7497 34.5036 16.4164 34.175 16.0735C34.0417 15.9307 33.9321 15.9069 33.7417 15.9878C32.794 16.4069 32.794 16.3974 32.794 17.445C32.794 17.6259 32.794 17.8069 32.794 17.9926C32.7893 18.6164 32.6226 18.7783 31.9845 18.7831C31.075 18.7878 30.1655 18.7878 29.2512 18.7831C28.6036 18.7831 28.475 18.6735 28.356 17.9878C26.6321 19.9354 24.9321 21.8593 23.156 23.864C23.4798 23.864 23.6988 23.845 23.9179 23.8688C24.7131 23.9497 25.694 23.5116 26.2607 24.0878C26.8274 24.664 26.4179 25.6402 26.4607 26.4402C26.5083 27.2354 26.4702 28.0354 26.4702 28.8354C26.4702 29.4974 26.294 29.6688 25.6179 29.6688C24.8893 29.6688 24.1607 29.6831 23.4321 29.664C23.1655 29.6593 23.0274 29.7259 22.956 29.9926C22.8226 30.4783 22.6274 30.945 22.3798 31.3831C22.2607 31.5974 22.294 31.7212 22.4655 31.8831C23.0226 32.4164 23.5607 32.964 24.1036 33.5116C24.5131 33.9259 24.5083 34.2069 24.0988 34.6212C23.0988 35.6259 22.0988 36.6259 21.0988 37.6212C20.6798 38.0402 20.4226 38.0354 19.994 37.6116C19.4893 37.1069 18.9702 36.6116 18.4845 36.0926C18.256 35.8497 18.0702 35.764 17.7417 35.9545C17.3702 36.1688 16.9607 36.3354 16.5417 36.4497C16.1988 36.545 16.1226 36.7116 16.1321 37.0402C16.156 37.7688 16.1417 38.4974 16.1369 39.2259C16.1321 39.7878 15.9369 39.9973 15.3893 39.9973C13.9607 40.0021 12.5321 40.0021 11.1036 39.9973C10.5464 39.9973 10.3417 39.7831 10.3369 39.2354C10.3321 38.464 10.3274 37.6926 10.3417 36.9259C10.3464 36.6831 10.2845 36.5497 10.0321 36.4783C9.54643 36.3402 9.07976 36.1497 8.6369 35.9021C8.4131 35.7735 8.27024 35.8116 8.09881 35.9926C7.575 36.5402 7.03691 37.0688 6.49881 37.6021C6.07024 38.0259 5.80357 38.0307 5.38929 37.6164C4.375 36.6069 3.36548 35.5974 2.35595 34.5878C1.97024 34.2021 1.97024 33.9307 2.35119 33.545C2.90357 32.9878 3.45119 32.4259 4.01786 31.8831C4.18929 31.7164 4.21786 31.5878 4.10357 31.3783C3.85119 30.9259 3.65119 30.445 3.5131 29.945C3.44643 29.7116 3.32738 29.6497 3.09405 29.6545C2.32262 29.6688 1.55119 29.664 0.784524 29.6593C0.222619 29.6545 0.00833333 29.4593 0.00357143 28.9116C-0.00119048 27.4688 -0.00119048 26.0259 0.00357143 24.5831C0.00357143 24.0593 0.217857 23.8593 0.755952 23.8545C1.49881 23.8497 2.24167 23.8402 2.98452 23.8593C3.29405 23.8688 3.45119 23.7974 3.54643 23.4688C3.675 23.0307 3.86548 22.6021 4.075 22.1926C4.20357 21.9402 4.19881 21.7831 3.98452 21.5831C3.42262 21.0545 2.88929 20.5021 2.34643 19.9545C1.98452 19.5878 1.97976 19.3069 2.34167 18.945C3.37024 17.9116 4.39881 16.8831 5.43214 15.8545C5.78929 15.5021 6.08929 15.5021 6.44643 15.8545C7.01786 16.4164 7.58452 16.9783 8.1369 17.5497C8.28929 17.7069 8.4131 17.7307 8.60357 17.6259C9.05595 17.3735 9.53214 17.1688 10.0369 17.0354C10.2988 16.964 10.3464 16.8259 10.3417 16.5831C10.3274 15.8116 10.3321 15.0402 10.3369 14.2735C10.3417 13.7354 10.5417 13.5307 11.0702 13.5307C12.5131 13.5259 13.956 13.5259 15.3988 13.5307C15.9369 13.5307 16.1369 13.7259 16.1417 14.2593C16.1369 15.0831 16.1369 15.9069 16.1369 16.845ZM13.2321 38.8307C13.6369 38.8307 14.0464 38.8021 14.4512 38.8402C14.8417 38.8735 14.994 38.7735 14.9702 38.345C14.9321 37.6735 14.9655 37.0021 14.956 36.3307C14.9512 35.9069 15.1083 35.6497 15.5369 35.5402C16.3417 35.3354 17.1036 35.0259 17.8131 34.5926C18.1655 34.3783 18.4655 34.4212 18.756 34.7164C19.275 35.2497 19.8083 35.764 20.3226 36.2974C20.4798 36.4593 20.5702 36.4926 20.7464 36.3116C21.4083 35.6259 22.0798 34.9497 22.7655 34.2926C22.9702 34.0974 22.9131 33.9926 22.7417 33.8307C22.2274 33.3354 21.7369 32.8116 21.2179 32.3212C20.894 32.0116 20.8274 31.7164 21.0702 31.3212C21.494 30.6259 21.7988 29.8735 21.9988 29.0783C22.1036 28.6545 22.3512 28.4783 22.7845 28.4926C23.4845 28.5116 24.1845 28.4783 24.8845 28.5069C25.2321 28.5212 25.2988 28.3974 25.294 28.0831C25.275 27.2021 25.2702 26.3164 25.294 25.4354C25.3036 25.1164 25.2083 25.0307 24.8988 25.0402C24.1417 25.064 23.3798 25.1069 22.6321 25.0212C22.2464 24.9783 22.0655 25.0878 21.8417 25.3402C20.3369 27.0593 18.8417 28.7831 17.2988 30.4688C15.8702 32.0307 14.0655 32.6164 12.0036 32.1497C9.88929 31.6735 8.47976 30.3307 7.9131 28.2402C7.32738 26.0831 7.90833 24.1878 9.56548 22.6735C11.1655 21.2069 12.8083 19.7878 14.4417 18.3545C14.7988 18.0402 15.0702 17.7783 14.9798 17.1974C14.8702 16.4878 14.9464 15.745 14.956 15.0164C14.9607 14.7831 14.894 14.7021 14.6512 14.7069C13.7131 14.7212 12.775 14.7259 11.8369 14.7069C11.5417 14.7021 11.494 14.8164 11.4988 15.0735C11.5131 15.7878 11.4893 16.5021 11.5083 17.2164C11.5179 17.6497 11.3417 17.8974 10.9179 18.0021C10.1274 18.1974 9.375 18.5021 8.67976 18.9307C8.28452 19.1735 7.98452 19.1021 7.67976 18.7783C7.18929 18.2593 6.66548 17.7688 6.17024 17.2545C6.00357 17.0831 5.89881 17.0354 5.70833 17.2354C5.04643 17.9212 4.375 18.5974 3.68929 19.2593C3.50833 19.4354 3.54643 19.5307 3.70357 19.6831C4.2369 20.1974 4.75119 20.7354 5.28452 21.2545C5.58452 21.545 5.61786 21.845 5.40357 22.1974C4.975 22.9069 4.66548 23.6735 4.46071 24.4783C4.35595 24.8831 4.11786 25.0593 3.70833 25.0545C2.96548 25.045 2.22262 25.0593 1.47976 25.0497C1.24643 25.045 1.16071 25.1116 1.16071 25.3545C1.175 26.2926 1.175 27.2307 1.16071 28.1688C1.15595 28.4688 1.27976 28.5116 1.53214 28.5069C2.23214 28.4926 2.93214 28.5021 3.63214 28.5021C4.19405 28.5021 4.31786 28.5926 4.46548 29.1212C4.67976 29.8926 4.97024 30.6354 5.38452 31.3212C5.62262 31.7116 5.56071 32.0164 5.2369 32.3259C4.72262 32.8212 4.22738 33.3402 3.7131 33.8354C3.54643 33.9974 3.47976 34.0926 3.68929 34.2926C4.37976 34.9497 5.04643 35.6259 5.7131 36.3116C5.88452 36.4878 5.97976 36.4688 6.14167 36.3069C6.65595 35.7735 7.19405 35.2593 7.70833 34.7259C7.99881 34.4259 8.29405 34.3878 8.64643 34.5974C9.36071 35.0259 10.1226 35.3354 10.9274 35.545C11.3321 35.6497 11.5083 35.8783 11.5036 36.2926C11.4893 36.9926 11.5179 37.6926 11.494 38.3926C11.4845 38.7307 11.5607 38.8688 11.9274 38.845C12.3655 38.8069 12.7988 38.8307 13.2321 38.8307ZM22.394 9.39735C22.394 9.66402 22.3893 9.93069 22.394 10.1974C22.394 10.2926 22.3845 10.4212 22.5274 10.4116C22.9131 10.3878 23.3036 10.5212 23.6702 10.1926C25.0702 8.92116 26.4988 7.68307 27.9131 6.42593C28.656 5.76878 29.5226 5.39735 30.5083 5.39735C32.1845 5.39735 33.4607 6.14497 34.194 7.6545C34.9417 9.19735 34.7369 10.6926 33.6321 12.0069C32.4512 13.4069 31.2274 14.7783 29.9845 16.1259C29.6464 16.4974 29.5417 16.8688 29.575 17.3307C29.5893 17.5212 29.6321 17.6069 29.8369 17.6021C30.3417 17.5926 30.8464 17.5926 31.3512 17.6021C31.5512 17.6069 31.6226 17.5307 31.6179 17.3307C31.6083 16.8974 31.6179 16.464 31.6131 16.0259C31.6131 15.6545 31.7845 15.4164 32.1464 15.3259C32.694 15.1878 33.2083 14.9735 33.694 14.6878C34.0417 14.4831 34.3274 14.5497 34.594 14.8307C34.894 15.145 35.2131 15.4402 35.5131 15.7545C35.6369 15.8831 35.7226 15.8974 35.8512 15.7593C36.2083 15.3878 36.575 15.0164 36.9512 14.6593C37.1036 14.5164 37.0893 14.4212 36.9464 14.2878C36.6321 13.9878 36.3321 13.6735 36.0226 13.3735C35.7512 13.1116 35.7036 12.8259 35.8893 12.5021C36.1798 12.0021 36.394 11.4735 36.5464 10.9164C36.6417 10.5688 36.8655 10.4116 37.2226 10.4164C37.656 10.4212 38.0893 10.4116 38.5274 10.4212C38.7321 10.4259 38.8321 10.3783 38.8274 10.145C38.8131 9.6545 38.8131 9.16402 38.8274 8.67354C38.8321 8.4545 38.756 8.37831 38.5369 8.38307C38.1179 8.39259 37.6988 8.38307 37.275 8.38783C36.894 8.38783 36.6369 8.23545 36.5369 7.84497C36.394 7.30212 36.1798 6.78783 35.8988 6.29735C35.7131 5.97831 35.7512 5.68783 36.0226 5.42593C36.3274 5.13545 36.6131 4.82593 36.9179 4.54021C37.0798 4.38783 37.1321 4.28783 36.9369 4.11164C36.575 3.77831 36.2274 3.43069 35.8988 3.07354C35.7274 2.88783 35.6226 2.9164 35.4702 3.08307C35.1845 3.39259 34.875 3.67354 34.5845 3.97831C34.3226 4.24974 34.0369 4.29735 33.7131 4.11164C33.2274 3.83069 32.7131 3.61164 32.1655 3.46878C31.775 3.36878 31.6179 3.12116 31.6179 2.73545C31.6226 2.3164 31.6131 1.89259 31.6226 1.47354C31.6274 1.26402 31.5655 1.16878 31.3417 1.17831C30.8512 1.19259 30.3607 1.19259 29.8702 1.17831C29.6512 1.17354 29.575 1.24497 29.5845 1.46402C29.5988 1.89735 29.5845 2.33069 29.5893 2.76878C29.594 3.14497 29.4226 3.36878 29.0607 3.46878C28.5179 3.61164 28.0036 3.82593 27.5131 4.10688C27.194 4.29259 26.9036 4.25926 26.6417 3.98783C26.3512 3.68307 26.0369 3.40212 25.756 3.08783C25.575 2.88783 25.4607 2.91164 25.2893 3.09735C24.975 3.43545 24.6464 3.76402 24.3083 4.07831C24.1274 4.24497 24.0893 4.35926 24.2988 4.54021C24.6036 4.80688 24.8702 5.1164 25.1655 5.39735C25.4655 5.67831 25.5179 5.97831 25.3036 6.33545C25.056 6.74497 24.875 7.18307 24.7369 7.64021C24.5274 8.32116 24.4417 8.38783 23.7369 8.38783C23.6226 8.38783 23.5131 8.38783 23.3988 8.38783C22.394 8.39259 22.394 8.39259 22.394 9.39735ZM18.7845 26.9593C18.8083 26.9497 18.8417 26.9497 18.856 26.9354C19.7798 25.8974 20.694 24.8593 21.6179 23.8259C21.7274 23.7021 21.7464 23.5974 21.6798 23.4545C21.4988 23.0783 21.3369 22.6878 21.1417 22.3164C20.8179 21.7069 20.8274 21.6164 21.3226 21.1212C21.7988 20.645 22.2655 20.1593 22.7512 19.6974C22.9607 19.5021 22.9321 19.3878 22.7417 19.2021C22.0893 18.5688 21.4369 17.9307 20.8131 17.2688C20.5845 17.0259 20.4607 17.0688 20.256 17.2878C19.7655 17.8069 19.2464 18.2974 18.7464 18.8116C18.4607 19.1069 18.1702 19.145 17.8083 18.9354C17.4321 18.7212 17.0321 18.5545 16.6464 18.3593C16.4369 18.2545 16.2798 18.2783 16.094 18.4497C15.1607 19.2974 14.2083 20.1259 13.2702 20.964C13.1845 21.0402 13.0512 21.0878 13.0417 21.2402C16.6131 21.4831 18.256 23.1212 18.7845 26.9593ZM13.2464 22.4307C10.8655 22.4212 8.95119 24.3307 8.94643 26.7164C8.94167 29.1069 10.856 31.0354 13.256 31.0545C15.6369 31.0735 17.556 29.1688 17.5702 26.7831C17.5798 24.364 15.6702 22.4402 13.2464 22.4307ZM28.2464 16.3354C27.975 16.2212 27.7321 16.1402 27.5179 16.0164C27.2893 15.8831 27.1464 15.9402 26.9845 16.1212C26.6702 16.4593 26.3417 16.7831 26.0083 17.1021C25.6655 17.4307 25.3655 17.4307 25.0226 17.0926C24.3131 16.3926 23.6131 15.6926 22.9131 14.9831C22.5655 14.6307 22.5702 14.3354 22.9274 13.9688C23.2607 13.6259 23.5988 13.2974 23.9369 12.9593C24.0179 12.8735 24.1369 12.8069 24.056 12.645C23.9179 12.364 23.8036 12.0783 23.6655 11.764C21.5417 13.6402 19.4607 15.4878 17.3512 17.3545C17.4893 17.4259 17.5893 17.4688 17.675 17.5307C17.9988 17.7688 18.2417 17.7164 18.5131 17.4069C18.9798 16.8831 19.494 16.4069 19.9893 15.9164C20.3988 15.5116 20.6893 15.5069 21.0988 15.9116C22.1036 16.9069 23.0988 17.9069 24.0988 18.9116C24.5083 19.3212 24.5083 19.6021 24.094 20.0164C23.5512 20.564 23.0131 21.1116 22.456 21.645C22.2845 21.8116 22.2464 21.945 22.3798 22.145C22.4798 22.2926 22.5464 22.4593 22.6464 22.664C24.5179 20.5497 26.3607 18.464 28.2464 16.3354ZM26.5464 9.20212C25.9274 9.74973 25.3702 10.2497 24.7988 10.7402C24.6464 10.8688 24.675 11.0069 24.7226 11.1545C24.8655 11.6259 25.056 12.0735 25.3083 12.4974C25.4988 12.8212 25.4512 13.1021 25.1845 13.364C24.875 13.664 24.5798 13.9831 24.2607 14.2783C24.094 14.4307 24.1131 14.5307 24.2655 14.6783C24.6321 15.0259 24.9893 15.3783 25.3321 15.745C25.475 15.8974 25.5655 15.8831 25.6988 15.7402C25.9988 15.4259 26.3131 15.1307 26.6131 14.8164C26.8845 14.5307 27.175 14.4878 27.5131 14.6974C27.9226 14.945 28.3607 15.1212 28.8179 15.264C28.9464 15.3021 29.0845 15.3688 29.2083 15.2307C29.7226 14.6497 30.2369 14.0688 30.7845 13.4545C28.2274 13.3831 26.6036 11.5593 26.5464 9.20212ZM33.4369 9.38307C33.4321 7.83545 32.1417 6.5545 30.5893 6.55926C29.0369 6.56402 27.756 7.84497 27.756 9.39259C27.756 10.945 29.0369 12.2354 30.5798 12.2402C32.156 12.245 33.4417 10.9545 33.4369 9.38307Z" fill="#424242"/>
<path d="M13.218 29.2644C11.8227 29.2549 10.7227 28.1454 10.7322 26.7406C10.737 25.3501 11.8751 24.2263 13.256 24.2454C14.6513 24.2644 15.7608 25.3882 15.7513 26.7739C15.7418 28.1692 14.618 29.2739 13.218 29.2644ZM13.2465 28.0882C13.9846 28.0882 14.5799 27.4882 14.5751 26.7549C14.5703 26.0168 13.9703 25.4263 13.237 25.4263C12.4989 25.4311 11.9132 26.0215 11.918 26.7644C11.9132 27.512 12.4989 28.093 13.2465 28.0882Z" fill="#424242"/>
<path d="M32.4465 9.42107C32.437 10.4401 31.6132 11.2592 30.6037 11.2592C29.5799 11.2592 28.737 10.4068 28.7465 9.38774C28.7561 8.35917 29.5942 7.54964 30.6418 7.55917C31.6513 7.56393 32.4561 8.39726 32.4465 9.42107ZM30.5608 10.0782C30.9227 10.102 31.2418 9.81631 31.2656 9.44964C31.2894 9.07345 31.0275 8.76393 30.6561 8.73536C30.2656 8.70678 29.937 8.9925 29.918 9.37345C29.9037 9.73059 30.2037 10.0592 30.5608 10.0782Z" fill="#424242"/>
</g>
<defs>
<clipPath id="clip0_1080_119">
<rect width="40" height="40" fill="white"/>
</clipPath>
</defs>
</svg>
