<svg width="41" height="41" viewBox="0 0 41 41" fill="none" xmlns="http://www.w3.org/2000/svg">
<circle cx="20.5" cy="20.5" r="20.5" fill="#0071BC"/>
<path d="M18.2525 31C18.2525 30.9216 18.2525 30.8041 18.2525 30.7257C18.2525 27.7083 18.2525 24.6909 18.2525 21.6735C18.2525 21.4776 18.1741 21.3992 17.9782 21.3992C17.0377 21.3992 16.1364 21.3992 15.1959 21.3992C15.0392 21.3992 15 21.36 15 21.2033C15 20.1061 15 19.0088 15 17.8724C15 17.7157 15.0392 17.6373 15.1959 17.6373C16.1364 17.6373 17.0377 17.6373 17.9782 17.6373C18.1741 17.6373 18.2133 17.5589 18.2133 17.4022C18.2133 16.4225 18.1741 15.4428 18.2133 14.4632C18.2525 13.2876 18.6052 12.1903 19.4281 11.3282C20.0943 10.7012 20.878 10.3094 21.7793 10.1134C22.5239 9.95668 23.2684 9.99586 24.013 10.035C24.5616 10.0742 25.1494 10.1134 25.698 10.1526C25.8548 10.1526 25.8939 10.1918 25.8939 10.3877C25.8939 11.3674 25.8939 12.3471 25.8939 13.3267C25.8939 13.4835 25.8156 13.5227 25.698 13.5227C24.9535 13.5227 24.2089 13.4835 23.5035 13.5619C22.6414 13.6402 22.132 14.1105 22.132 14.9726C22.0928 15.8347 22.132 16.6968 22.0928 17.5589C22.0928 17.7157 22.1712 17.7157 22.2887 17.7157C23.386 17.7157 24.444 17.7157 25.5413 17.7157C25.7372 17.7157 25.7764 17.7549 25.7372 17.9508C25.5804 19.048 25.4629 20.1453 25.3061 21.2425C25.2669 21.3992 25.2278 21.4384 25.071 21.4384C24.1305 21.4384 23.19 21.4384 22.2496 21.4384C22.0928 21.4384 22.0536 21.4776 22.0536 21.6344C22.0536 24.7301 22.0536 27.8259 22.0536 30.8824C22.0536 30.9216 22.0536 30.9608 22.0536 31C20.7997 31 19.5065 31 18.2525 31Z" fill="white"/>
</svg>
