<svg width="40" height="44" viewBox="0 0 40 44" fill="none" xmlns="http://www.w3.org/2000/svg">
<g clip-path="url(#clip0_617_1094)">
<path d="M13.0289 43.9999C12.1157 43.8389 11.1919 43.7531 10.2787 43.5062C7.4011 42.7118 5.02255 41.1446 3.13245 38.826C1.36978 36.6469 0.318542 34.1351 0.063697 31.3334C-0.276096 27.555 0.69019 24.1307 3.03689 21.1466C4.51286 19.2681 6.3711 17.9048 8.5479 16.9816C9.11068 16.7455 9.59914 16.9065 9.80089 17.3895C10.0026 17.8511 9.80089 18.3127 9.26996 18.5703C9.19563 18.6133 9.11068 18.6347 9.03635 18.6777C6.96574 19.5901 5.2243 20.9426 3.9607 22.8426C1.39101 26.6855 0.976891 30.8075 2.86699 35.0475C4.5341 38.7723 7.45419 41.1124 11.4149 41.9497C15.2907 42.7762 18.8054 41.8316 21.8317 39.2446C24.2527 37.1622 25.6225 34.4893 25.9941 31.2905C26.0685 30.7001 26.1216 30.099 26.0472 29.4979C26.0154 29.2402 25.9941 28.9826 26.0791 28.7357C26.2171 28.3386 26.5038 28.1346 26.918 28.1346C27.3427 28.1346 27.6613 28.403 27.7356 28.8645C27.8842 29.8199 27.8205 30.7753 27.7037 31.7306C27.2896 34.8865 25.9835 37.6023 23.7536 39.8565C21.5768 42.057 18.9541 43.3988 15.8959 43.8497C15.5349 43.9033 15.1739 43.957 14.8128 44.0107C14.2182 43.9999 13.6236 43.9999 13.0289 43.9999Z" fill="#424242"/>
<path d="M19.3894 17.6258C18.0833 17.6258 16.7878 17.6365 15.4817 17.6151C15.1844 17.6151 15.0995 17.6795 15.1313 17.9908C15.28 19.4828 15.4074 20.9856 15.5242 22.4777C15.5455 22.8105 15.6729 22.8856 15.9914 22.8856C20.1008 22.8749 24.1996 22.8749 28.3089 22.8749C29.169 22.8749 29.3389 22.993 29.6469 23.8195C31.1866 27.9737 32.7369 32.1386 34.2659 36.3035C34.3933 36.6578 34.5314 36.7114 34.8712 36.5934C36.0711 36.164 37.2816 35.7668 38.4921 35.3589C38.5877 35.3267 38.6832 35.2945 38.7682 35.2623C39.3203 35.1013 39.7982 35.3267 39.9468 35.799C40.0955 36.2928 39.8619 36.7436 39.3097 36.9369C37.9506 37.4092 36.5808 37.86 35.211 38.3216C34.9561 38.4075 34.7013 38.4933 34.4464 38.5792C33.6607 38.8368 33.289 38.6651 33.0023 37.8815C31.4945 33.8346 29.9973 29.7771 28.4894 25.7195C28.0966 24.6461 28.0966 24.6461 26.9816 24.6461C23.074 24.6461 19.1664 24.6461 15.2588 24.6461C14.1651 24.6461 13.9633 24.4421 13.8677 23.3472C13.581 20.0518 13.2731 16.7671 12.9758 13.4824C12.8484 12.0547 12.7209 10.6378 12.6041 9.21009C12.5829 8.8988 12.4873 8.75925 12.1581 8.67338C10.3636 8.26547 9.19558 7.12763 8.80269 5.31353C8.40981 3.51016 9.02568 1.97516 10.5123 0.880255C11.9352 -0.171709 13.5067 -0.300521 15.0676 0.568959C16.671 1.45991 17.4886 2.86611 17.3506 4.73388C17.2232 6.54798 16.2569 7.79316 14.611 8.48016C14.3456 8.5875 14.2925 8.72705 14.3137 8.99541C14.5155 11.1745 14.7172 13.3535 14.8977 15.5326C14.9296 15.8868 15.1313 15.8546 15.3543 15.8546C17.9346 15.8546 20.5043 15.8546 23.0846 15.8546C23.297 15.8546 23.5094 15.8546 23.7111 15.919C24.0828 16.0264 24.3376 16.3592 24.327 16.7456C24.3164 17.1428 24.1146 17.4219 23.743 17.5614C23.5518 17.6258 23.3607 17.6365 23.1589 17.6365C21.906 17.6258 20.6424 17.6258 19.3894 17.6258ZM13.1351 1.80341C11.7122 1.72827 10.5229 2.84464 10.4273 4.34744C10.3424 5.73217 11.4892 6.97735 12.9333 7.06323C14.3349 7.1491 15.5561 5.98979 15.641 4.50846C15.726 3.12373 14.5792 1.88928 13.1351 1.80341Z" fill="#424242"/>
</g>
<defs>
<clipPath id="clip0_617_1094">
<rect width="40" height="44" fill="white"/>
</clipPath>
</defs>
</svg>
