<svg width="41" height="41" viewBox="0 0 41 41" fill="none" xmlns="http://www.w3.org/2000/svg">
<circle cx="20.5" cy="20.5" r="20.5" fill="#0071BC"/>
<path d="M10 24.8852C10 21.5903 10 18.3341 10 15.0392C10 14.9617 10.0388 14.923 10.0388 14.8454C10.0775 14.4966 10.1551 14.1089 10.2713 13.7988C11.0466 11.473 13.0623 10 15.5044 10C18.4892 10 21.474 10 24.4975 10C25.4278 10 26.3582 10.1938 27.1722 10.6977C29.0328 11.7831 30.0019 13.4112 30.0019 15.5819C30.0019 18.528 30.0019 21.474 30.0019 24.4588C30.0019 24.8464 29.9632 25.1953 29.8856 25.5829C29.3817 27.8312 28.025 29.2654 25.8155 29.8856C25.5054 29.9632 25.1953 29.9632 24.9239 30.0407C21.629 30.0407 18.3729 30.0407 15.078 30.0407C14.8842 30.0019 14.6516 30.0019 14.4578 29.9244C12.2095 29.343 10.7753 27.9862 10.1551 25.7767C10.0775 25.4666 10.0775 25.1565 10 24.8852ZM20.001 25.4278C23.0245 25.4278 25.4666 22.9858 25.4666 19.9622C25.5054 16.9387 23.0245 14.4966 20.001 14.4578C16.9774 14.4578 14.5353 16.8999 14.5353 19.9234C14.4966 22.947 16.9774 25.4278 20.001 25.4278ZM25.8155 12.4809C24.9239 12.4809 24.1487 13.2174 24.1487 14.1477C24.1487 15.0392 24.9239 15.8145 25.8155 15.8145C26.707 15.8145 27.4823 15.078 27.4823 14.1477C27.4823 13.2561 26.707 12.4809 25.8155 12.4809Z" fill="white"/>
<path d="M20.001 15.6597C22.3656 15.6597 24.3037 17.5978 24.3037 19.9624C24.3037 22.327 22.3656 24.2652 20.001 24.2264C17.6364 24.2264 15.6982 22.2882 15.6982 19.9236C15.6982 17.5591 17.6364 15.6597 20.001 15.6597Z" fill="white"/>
<path d="M26.2806 14.1478C26.2806 14.4191 26.0481 14.6517 25.8155 14.6517C25.5441 14.6517 25.3115 14.4191 25.3503 14.1478C25.3503 13.8764 25.5829 13.6826 25.8155 13.6826C26.0481 13.6826 26.2806 13.8764 26.2806 14.1478Z" fill="white"/>
</svg>
