<svg width="41" height="41" viewBox="0 0 41 41" fill="none" xmlns="http://www.w3.org/2000/svg">
<circle cx="20.5" cy="20.5" r="20.5" fill="#0071BC"/>
<g clip-path="url(#clip0_403_350)">
<path d="M18.7284 29.0001C18.7284 24.8515 18.7284 20.7378 18.7284 16.5891C18.7284 16.3102 18.7284 16.3102 19.0073 16.3102C20.1229 16.3102 21.2385 16.3102 22.3192 16.3102C22.4587 16.3102 22.5284 16.3451 22.5284 16.5194C22.5284 16.9726 22.5284 17.4258 22.5284 17.879C22.5284 17.9488 22.4935 17.9836 22.5633 18.0533C22.633 18.0533 22.633 18.0185 22.6678 17.9836C23.3651 16.868 24.3761 16.2754 25.6311 16.1011C26.3981 15.9965 27.2 16.0313 27.9669 16.2405C29.3963 16.5891 30.2678 17.5304 30.6862 18.89C30.8954 19.5524 30.9651 20.2148 31.0348 20.9121C31.0348 21.0167 31.0348 21.1212 31.0697 21.2258C31.0697 23.7708 31.0697 26.3506 31.0697 28.8955C31.0697 29.035 31.0348 29.035 30.9302 29.035C29.6752 29.035 28.4201 29.035 27.1302 29.035C27.1302 26.8387 27.1302 24.6075 27.1302 22.4111C27.1302 21.9928 27.0954 21.5744 27.0256 21.191C26.8513 20.18 26.3284 19.6222 25.3522 19.5176C24.0623 19.413 23.1559 19.9011 22.8422 21.2607C22.7376 21.7488 22.7027 22.2717 22.7027 22.7946C22.7027 24.8864 22.7027 26.9433 22.7027 29.035C21.3431 29.0001 20.0183 29.0001 18.7284 29.0001Z" fill="white"/>
<path d="M12.2789 29C12.2789 28.9303 12.2789 28.8257 12.2789 28.756C12.2789 24.712 12.2789 20.6331 12.2789 16.589C12.2789 16.2753 12.244 16.345 12.5229 16.345C13.6734 16.345 14.8238 16.345 16.0091 16.345C16.1834 16.345 16.2183 16.3798 16.2183 16.5542C16.2183 20.6331 16.2183 24.712 16.2183 28.756C16.2183 28.8257 16.2183 28.9303 16.2183 29C14.9284 29 13.6036 29 12.2789 29Z" fill="white"/>
<path d="M14.5451 10C14.7194 10.0349 14.8937 10.0697 15.068 10.1394C16.1139 10.5229 16.7414 11.6037 16.5322 12.7193C16.3231 13.8 15.3469 14.6018 14.2662 14.567C13.1506 14.5321 12.2093 13.7303 12.035 12.6147C11.8258 11.3945 12.6625 10.244 13.8827 10.0349C13.9176 10.0349 13.9524 10 13.9873 10C14.1965 10 14.3708 10 14.5451 10Z" fill="white"/>
</g>
<defs>
<clipPath id="clip0_403_350">
<rect width="19" height="19" fill="white" transform="translate(12 10)"/>
</clipPath>
</defs>
</svg>
