<svg width="150" height="66" viewBox="0 0 150 66" fill="none" xmlns="http://www.w3.org/2000/svg">
<mask id="mask0_5_103" style="mask-type:luminance" maskUnits="userSpaceOnUse" x="0" y="0" width="129" height="53">
<path d="M0 0H128.803V52.029H0V0Z" fill="white"/>
</mask>
<g mask="url(#mask0_5_103)">
<mask id="mask1_5_103" style="mask-type:luminance" maskUnits="userSpaceOnUse" x="-12" y="-35" width="143" height="137">
<path d="M-11.0591 32.4314L78.901 -34.7983L130.462 34.1961L40.5014 101.426L-11.0591 32.4314Z" fill="white"/>
</mask>
<g mask="url(#mask1_5_103)">
<mask id="mask2_5_103" style="mask-type:luminance" maskUnits="userSpaceOnUse" x="-12" y="-35" width="143" height="137">
<path d="M78.8242 -34.7413L-11.1384 32.4884L40.4246 101.485L130.385 34.2556L78.8242 -34.7413Z" fill="white"/>
</mask>
<g mask="url(#mask2_5_103)">
<path d="M11.5573 20.1033L11.017 20.8741C10.613 21.4541 10.2363 22.039 9.88432 22.6313C9.36383 23.2411 8.86317 23.8656 8.38234 24.5051L7.69579 25.4742L7.0489 26.4755L6.44414 27.514L5.90134 28.5476C6.09467 27.8734 6.31774 27.1992 6.57054 26.5276L6.97454 25.5262L7.55699 24.6687L8.28072 23.6897L9.05402 22.7354L9.85953 21.8209L10.6874 20.9509L11.5573 20.1033ZM16.0112 15.7113L16.9803 14.9926L16.3508 15.7584C14.4745 17.2133 12.6553 18.7822 10.8906 20.4676C9.74552 21.5829 8.6748 22.8148 7.6834 24.1556C5.71546 26.825 4.29527 29.762 3.42035 32.9742L3.09815 33.1824L3.44018 31.9803C3.68803 31.1872 3.9681 30.404 4.27792 29.6381L4.78354 28.5029C5.13796 27.7544 5.52461 27.0208 5.94596 26.2995C6.37474 25.5783 6.82831 24.8868 7.30418 24.2275C8.28568 22.8693 9.35392 21.6176 10.5064 20.475C12.2587 18.7723 14.0928 17.1861 16.0112 15.7113ZM57.0182 1.7573L57.7593 1.8961L59.7892 2.28275C62.1636 2.28523 64.5554 2.36206 66.962 2.51573L67.6163 2.45872L66.7315 2.2654L66.5357 2.01507C65.0189 1.79448 61.8464 1.70773 57.0182 1.7573ZM33.8218 4.86536L34.2258 4.90997C34.781 4.91245 35.2891 4.99176 35.7476 5.14295C35.4081 5.33628 35.0611 5.49242 34.7042 5.60891C37.4008 4.83314 39.3489 4.32752 40.551 4.09702C40.6799 4.0301 39.7653 4.06728 37.8048 4.21351C38.9449 3.87643 40.3676 3.54431 42.0753 3.21467L42.3801 3.08331L41.3144 3.10809L41.354 3.00399C44.5538 2.35215 47.761 1.87131 50.9756 1.5615C60.3221 0.971613 68.7887 1.29382 76.3705 2.52812L75.9466 2.39676C75.5526 2.3224 74.3579 2.16378 72.3577 1.91593C66.325 1.18477 59.4943 1.01871 51.8654 1.42022C44.8661 2.09438 38.8507 3.24193 33.8218 4.86536ZM61.9232 4.36966L62.9543 4.55307C64.7066 4.88519 65.75 5.0909 66.0797 5.17022C67.2421 5.21731 69.1778 5.38089 71.8893 5.66344C71.23 5.46764 70.5658 5.27431 69.8941 5.08843L70.1246 5.03142C72.0826 5.23466 73.25 5.3685 73.6292 5.43046L74.6355 5.48251L75.1659 5.21731L74.6628 5.02894C73.8919 4.91989 73.1162 4.82075 72.3354 4.72904C72.8584 4.91493 73.2872 5.08347 73.6267 5.23714C69.7429 4.73152 65.8417 4.44401 61.9232 4.36966ZM14.4597 13.7831L15.4734 13.0321C32.3074 1.4004 54.0366 -2.07448 80.6632 2.60991C82.9088 3.05604 85.2906 3.64097 87.8063 4.3647C87.5535 4.50845 87.152 4.60264 86.6018 4.64973L90.7607 5.87164L89.809 5.37593L89.9329 5.32141C91.1027 5.65105 93.0186 6.34999 95.6806 7.42071L105.094 12.4199L111.347 16.6854C121.316 24.7629 126.947 30.7088 128.243 34.5233C122.748 27.0679 115.414 20.3784 106.244 14.4572C96.1862 8.53356 87.4717 5.49738 80.1006 5.34619C90.2749 7.329 99.7329 11.1781 108.477 16.8936C113.39 20.2545 117.355 23.5162 120.369 26.6788C122.649 28.9491 124.726 31.2541 126.598 33.5963C127.244 34.5233 127.606 35.4626 127.678 36.4144L127.438 36.5209C123.658 32.248 120.136 28.8549 116.872 26.3417C112.049 22.7974 108.299 20.4032 105.619 19.1614C97.646 15.3842 92.1784 13.0767 89.2166 12.2365L76.4374 9.62658C73.1459 9.0367 68.9919 8.61287 63.9779 8.35758C63.0559 8.26588 62.3792 8.09982 61.943 7.86436L61.6208 7.48763L54.391 6.45161C51.1144 6.04017 49.0002 6.03026 48.0485 6.41939C44.5711 6.84569 40.4543 7.70574 35.7005 8.99952C32.7883 9.87444 29.8884 10.9799 27.0034 12.3207C26.3937 12.6082 25.5411 12.747 24.4456 12.7421C21.4466 13.7979 19.1589 14.8116 17.5801 15.7807L14.477 18.0139C15.4139 15.8576 18.9829 13.2254 25.1792 10.1223C26.2648 9.47044 28.0766 8.77893 30.6146 8.04281L30.1115 8.41955L32.0968 8.41211C35.8368 7.16046 39.6215 6.1988 43.4533 5.52464C43.0543 5.38337 43.0766 5.195 43.5202 4.95706L44.5835 4.65221L48.0906 4.1218C46.1177 3.98301 44.5042 3.95079 43.2476 4.02514C27.9155 7.38105 16.4449 13.4336 8.83591 22.1803C2.6421 29.4696 0.746035 38.3451 3.14772 48.8045C-0.743552 34.1862 4.52329 22.1059 18.9532 12.5686C14.7943 15.1933 11.0443 18.4055 7.70075 22.2075C0.87244 30.9096 -0.396559 40.7691 3.89623 51.7812C3.38813 51.5358 3.04362 51.1243 2.86764 50.5468L1.08559 43.3071C0.589889 39.9289 0.750993 36.5209 1.57386 33.0832L1.5466 32.8825L0.743557 34.8479L0.552711 34.0796C0.60476 33.1006 0.785692 32.1811 1.09551 31.3185C3.25181 24.4134 7.7057 18.5666 14.4597 13.7831Z" fill="#87C71F"/>
</g>
</g>
</g>
<mask id="mask3_5_103" style="mask-type:luminance" maskUnits="userSpaceOnUse" x="4" y="13" width="65" height="53">
<path d="M4.44151 13.959H68.526V65.3535H4.44151V13.959Z" fill="white"/>
</mask>
<g mask="url(#mask3_5_103)">
<mask id="mask4_5_103" style="mask-type:luminance" maskUnits="userSpaceOnUse" x="-12" y="-35" width="143" height="137">
<path d="M-11.0591 32.4314L78.901 -34.7983L130.462 34.1961L40.5014 101.426L-11.0591 32.4314Z" fill="white"/>
</mask>
<g mask="url(#mask4_5_103)">
<mask id="mask5_5_103" style="mask-type:luminance" maskUnits="userSpaceOnUse" x="-12" y="-35" width="143" height="137">
<path d="M78.8242 -34.7413L-11.1384 32.4884L40.4246 101.485L130.385 34.2556L78.8242 -34.7413Z" fill="white"/>
</mask>
<g mask="url(#mask5_5_103)">
<path d="M7.961 37.1381L7.67349 38.1667L7.45786 39.3241L7.7652 38.6425L7.78998 38.9672L7.62888 40.1272L7.55205 41.3045L7.56692 42.4743L7.67101 43.6442L7.86434 44.8066L8.14689 45.9467L8.50875 47.0571L8.36252 46.1128L8.26834 45.0644L8.24603 44.0184L8.12458 42.913L8.06758 41.7828L8.12458 39.8942L7.85195 40.8781L7.71563 41.0888L7.80485 39.919C7.91391 39.1308 8.03288 38.3972 8.15928 37.7156L7.961 37.1381ZM5.91871 43.4186L5.74769 43.6144L5.60889 44.0977L5.76008 45.3568L6.08477 46.6506L6.49372 47.9097L7.00429 49.1514L7.77016 50.47L8.50627 51.5333L8.17415 50.7724L7.78255 49.7512L7.2001 48.45L6.73909 47.2331L6.37723 45.9988L6.09716 44.7149L5.91871 43.4186ZM6.14425 35.8765L5.78734 36.8927L5.44283 38.184C5.27429 39.044 5.13054 39.9338 5.01405 40.8583C4.97191 41.7679 4.97687 42.68 5.03388 43.5971L5.22968 44.9603C5.4007 45.8748 5.62872 46.7572 5.90879 47.6048L6.39706 48.8813L7.14061 50.3188L7.86682 51.4143L8.65498 52.4702C9.1953 53.1517 9.77032 53.8086 10.3825 54.4331C11.6019 55.6798 12.9205 56.7952 14.3382 57.7841C15.6989 58.778 17.2108 59.6405 18.8714 60.3717C20.4924 61.0582 22.0315 61.5936 23.4889 61.9753L22.8048 61.4919L22.2744 60.9169C22.7354 61.1003 23.018 61.1425 23.1171 61.0433C21.4516 60.5352 19.9768 60.0024 18.6954 59.4397C19.3597 59.8908 19.9818 60.2948 20.5667 60.6542C20.0834 60.5129 19.3845 60.2304 18.4699 59.814L17.3273 59.2514L17.3868 59.4199L17.937 59.8834C17.4711 59.7223 16.3532 59.0556 14.5811 57.8857C13.1609 56.9166 11.8349 55.8162 10.6081 54.5868C9.37623 53.355 8.28321 51.9968 7.32898 50.5146L6.55816 49.1167L6.05254 47.8477C5.7576 47.0026 5.51719 46.1276 5.33378 45.2255L5.11815 43.8672C4.91491 41.0814 5.25694 38.417 6.14425 35.8765ZM43.4236 62.7956L44.3109 62.58L45.28 62.3371L46.3804 62.2157C46.7671 62.2058 47.9568 62.1264 49.947 61.9777L50.5518 61.9802C49.9322 62.1686 49.2679 62.3545 48.5566 62.5404C46.549 62.6792 44.8388 62.7634 43.4236 62.7956ZM37.8643 63.1402L37.9684 63.103L39.0614 62.9667C41.0219 63.0385 43.778 62.9766 47.3297 62.7833C49.6917 62.6321 52.0587 62.4313 54.4331 62.181L54.4951 62.3842C47.4363 63.103 41.8919 63.3558 37.8643 63.1402ZM17.3075 20.5122L18.3683 19.8157C25.4965 15.4833 34.3646 13.6195 44.9726 14.2193C34.1985 14.5464 26.0566 16.3186 20.5494 19.5357C17.8775 20.9236 15.1363 23.3749 12.3207 26.8894L10.2164 29.8116C9.43324 31.3061 8.98958 32.5107 8.88053 33.4228C12.8908 26.4334 17.2133 21.8209 21.8531 19.5803C25.4692 17.8329 29.2366 16.6185 33.1501 15.9418C35.9186 15.4089 39.3861 15.0124 43.5475 14.7447C43.8871 14.6753 44.6207 14.8215 45.7484 15.1834C35.2544 16.6779 27.3901 19.2184 22.1554 22.8048C19.9347 24.4431 18.8565 25.2809 18.9259 25.318C17.0869 27.1794 15.8972 28.55 15.3495 29.4249L15.0892 30.2305C13.0816 33.2716 12.0059 35.1106 11.8622 35.7476C11.3219 36.9869 10.9699 38.2534 10.8138 39.5497C10.8039 40.1916 10.784 40.8236 10.7543 41.4457C10.8113 42.6354 10.9798 43.897 11.2624 45.2279L11.1533 47.2727C12.0233 49.3646 12.7743 50.817 13.4063 51.6324C14.2837 52.9188 14.9603 53.6673 15.4387 53.8755C17.4289 55.6402 20.4081 57.1347 24.3762 58.3591C25.4618 58.6987 27.3826 59.1448 30.1387 59.7C30.7832 59.7892 31.6209 60.218 32.6544 60.9863C34.2729 61.5291 35.2965 61.8389 35.7278 61.9133C36.8059 62.2652 38.4889 62.4586 40.7765 62.4908C38.8582 63.3459 35.5345 63.274 30.803 62.2727L26.6763 61.0954C26.7655 60.7558 26.4408 60.4262 25.6972 60.104C22.2199 59.1968 19.6571 58.2352 18.0064 57.2215C17.9321 57.2116 17.8825 57.3206 17.8602 57.5462L16.8837 57.1892L14.5985 55.7195C15.8129 57.0133 16.5763 57.7767 16.8837 58.0047C20.1528 59.524 22.7676 60.4956 24.7257 60.9145C30.0669 62.3222 33.9904 63.0584 36.4887 63.1203C44.2068 63.5516 53.987 62.8056 65.8293 60.8798C65.1031 61.2144 61.0483 61.8588 53.6673 62.8155C50.175 63.1575 47.4165 63.3682 45.3915 63.4475L43.2575 63.8193C40.9252 63.8911 38.5236 63.849 36.05 63.6879C35.3064 63.7226 35.5741 63.7697 36.8506 63.8317C41.7704 64.0324 46.5564 63.8986 51.2061 63.4326C52.78 63.2913 54.3637 63.1302 55.9549 62.9493L68.0352 61.0805L67.3883 61.4548L66.1986 61.6803C62.3371 62.4115 58.4632 63.0509 54.5769 63.5987C57.0281 63.6582 56.8794 63.9234 54.1357 64.3943C47.4636 65.1502 41.4234 65.3683 36.0128 65.0437C34.149 65.1552 29.5266 64.1985 22.148 62.1735C19.4935 61.5539 16.3979 59.9503 12.861 57.3627C10.5188 55.7467 8.27082 53.1443 6.11203 49.5579L5.07849 46.663L4.49108 43.4186L4.58279 39.9413C4.98183 37.5916 5.69812 35.2841 6.73166 33.0163C8.12954 30.3346 8.91027 28.9491 9.07137 28.8574L9.79014 27.8288C9.77032 28.2526 9.84963 28.4038 10.0306 28.2848C10.4916 27.6181 10.9997 26.9638 11.5548 26.3243C11.4557 26.2921 11.2847 26.364 11.0468 26.5399C12.1522 25.2586 13.265 24.0391 14.3878 22.8767L17.3075 20.5122Z" fill="#87C71F"/>
</g>
</g>
</g>
<path d="M47.9954 50.5712L47.926 38.3373L41.9974 48.3009H39.0925L33.1937 38.6744V50.5712H27.1659V27.5012H32.5393L40.649 40.8158L48.5605 27.5012H53.9339L53.9934 50.5712H47.9954Z" fill="#0071BC" fill-opacity="0.4"/>
<path d="M68.4665 42.293V50.5712H61.9332V42.1939L53.1394 27.5012H60.0198L65.4923 36.6618L70.9649 27.5012H77.3L68.4665 42.293Z" fill="#0071BC" fill-opacity="0.4"/>
<path d="M95.0253 51.0372C92.6063 51.0372 90.4351 50.5266 88.5118 49.5005C86.5934 48.4769 85.084 47.0518 83.9811 45.2276C82.8831 43.4034 82.3353 41.3388 82.3353 39.0313C82.3353 36.7263 82.8831 34.6592 83.9811 32.835C85.084 31.0108 86.5934 29.5906 88.5118 28.572C90.4351 27.5483 92.6063 27.0353 95.0253 27.0353C97.132 27.0353 99.0331 27.4095 100.726 28.1556C102.416 28.9041 103.824 29.9798 104.949 31.3875L100.795 35.145C99.3007 33.3406 97.4865 32.4384 95.3525 32.4384C94.1033 32.4384 92.988 32.716 92.0114 33.2712C91.0324 33.8214 90.2715 34.5947 89.7312 35.5911C89.1958 36.59 88.9282 37.7375 88.9282 39.0313C88.9282 40.3275 89.1958 41.4776 89.7312 42.4814C90.2715 43.4802 91.0324 44.2535 92.0114 44.8013C92.988 45.3515 94.1033 45.6241 95.3525 45.6241C97.4865 45.6241 99.3007 44.7269 100.795 42.9275L104.949 46.6849C103.824 48.0878 102.416 49.1635 100.726 49.9169C99.0331 50.663 97.132 51.0372 95.0253 51.0372Z" fill="#0071BC" fill-opacity="0.4"/>
<path d="M120.8 46.0901H111.044L109.23 50.5712H102.568L112.759 27.5012H119.184L129.405 50.5712H122.614L120.8 46.0901ZM118.886 41.2718L115.922 33.8958L112.958 41.2718H118.886Z" fill="#0071BC" fill-opacity="0.4"/>
<path d="M138.827 44.4443H135.268V50.5712H128.744V27.5012H139.293C141.38 27.5012 143.192 27.8482 144.726 28.5422C146.265 29.2312 147.452 30.2177 148.285 31.5065C149.123 32.7904 149.544 34.2998 149.544 36.0372C149.544 37.7028 149.152 39.1577 148.374 40.3994C147.593 41.6436 146.476 42.6177 145.023 43.3241L150 50.5712H143.011L138.827 44.4443ZM142.951 36.0372C142.951 34.9615 142.609 34.1238 141.93 33.529C141.248 32.9341 140.237 32.6367 138.896 32.6367H135.268V39.3981H138.896C140.237 39.3981 141.248 39.1081 141.93 38.5257C142.609 37.9457 142.951 37.1154 142.951 36.0372Z" fill="#0071BC" fill-opacity="0.4"/>
<path d="M47.9954 50.5712L47.926 38.3373L41.9974 48.3009H39.0925L33.1937 38.6744V50.5712H27.1659V27.5012H32.5393L40.649 40.8158L48.5605 27.5012H53.9339L53.9934 50.5712H47.9954Z" fill="#0071BC"/>
<path d="M68.4665 42.293V50.5712H61.9332V42.1939L53.1394 27.5012H60.0198L65.4923 36.6618L70.9649 27.5012H77.3L68.4665 42.293Z" fill="#0071BC"/>
<path d="M95.0253 51.0372C92.6063 51.0372 90.4351 50.5266 88.5118 49.5005C86.5934 48.4769 85.084 47.0518 83.9811 45.2276C82.8831 43.4034 82.3353 41.3388 82.3353 39.0313C82.3353 36.7263 82.8831 34.6592 83.9811 32.835C85.084 31.0108 86.5934 29.5906 88.5118 28.572C90.4351 27.5483 92.6063 27.0353 95.0253 27.0353C97.132 27.0353 99.0331 27.4095 100.726 28.1556C102.416 28.9041 103.824 29.9798 104.949 31.3875L100.795 35.145C99.3007 33.3406 97.4865 32.4384 95.3525 32.4384C94.1033 32.4384 92.988 32.716 92.0114 33.2712C91.0324 33.8214 90.2715 34.5947 89.7312 35.5911C89.1958 36.59 88.9282 37.7375 88.9282 39.0313C88.9282 40.3275 89.1958 41.4776 89.7312 42.4814C90.2715 43.4802 91.0324 44.2535 92.0114 44.8013C92.988 45.3515 94.1033 45.6241 95.3525 45.6241C97.4865 45.6241 99.3007 44.7269 100.795 42.9275L104.949 46.6849C103.824 48.0878 102.416 49.1635 100.726 49.9169C99.0331 50.663 97.132 51.0372 95.0253 51.0372Z" fill="#0071BC"/>
<path d="M120.8 46.0901H111.044L109.23 50.5712H102.568L112.759 27.5012H119.184L129.405 50.5712H122.614L120.8 46.0901ZM118.886 41.2718L115.922 33.8958L112.958 41.2718H118.886Z" fill="#0071BC"/>
<path d="M138.827 44.4443H135.268V50.5712H128.744V27.5012H139.293C141.38 27.5012 143.192 27.8482 144.726 28.5422C146.265 29.2312 147.452 30.2177 148.285 31.5065C149.123 32.7904 149.544 34.2998 149.544 36.0372C149.544 37.7028 149.152 39.1577 148.374 40.3994C147.593 41.6436 146.476 42.6177 145.023 43.3241L150 50.5712H143.011L138.827 44.4443ZM142.951 36.0372C142.951 34.9615 142.609 34.1238 141.93 33.529C141.248 32.9341 140.237 32.6367 138.896 32.6367H135.268V39.3981H138.896C140.237 39.3981 141.248 39.1081 141.93 38.5257C142.609 37.9457 142.951 37.1154 142.951 36.0372Z" fill="#0071BC"/>
<path d="M57.5135 60.7258H56.1553V57.9201H53.0621V60.7258H51.7039V53.8157H53.0621V56.6015H56.1553V53.8157H57.5135V60.7258Z" fill="#424242"/>
<path d="M66.9132 53.8157V60.7258H65.555V53.8157H66.9132Z" fill="#424242"/>
<path d="M78.6463 55.4912C78.044 55.1541 77.5211 54.9855 77.0799 54.9855C76.7825 54.9855 76.547 55.045 76.376 55.164C76.2099 55.283 76.1281 55.4614 76.1281 55.6994C76.1281 55.9175 76.2471 56.1133 76.485 56.2843C76.7279 56.4503 77.0526 56.6065 77.4566 56.7502C77.7788 56.8692 78.0564 57.008 78.2894 57.1666C78.5199 57.3203 78.7107 57.531 78.8644 57.8011C79.023 58.0663 79.1024 58.4059 79.1024 58.8223C79.1024 59.1792 79.0082 59.5113 78.8248 59.8137C78.6389 60.1185 78.3687 60.359 78.0118 60.5374C77.6549 60.7159 77.2286 60.8051 76.7329 60.8051C76.3165 60.8051 75.9026 60.7456 75.4936 60.6266C75.0896 60.5027 74.7129 60.3144 74.3634 60.0615L74.9682 59.0007C75.2061 59.1742 75.4763 59.3155 75.7811 59.427C76.091 59.5411 76.3686 59.5956 76.6139 59.5956C76.8965 59.5956 77.1443 59.5361 77.3575 59.4171C77.5756 59.2932 77.6846 59.0949 77.6846 58.8223C77.6846 58.4654 77.3476 58.1556 76.6734 57.8904C76.2818 57.7317 75.9546 57.583 75.6919 57.4442C75.4267 57.3005 75.1987 57.0923 75.0078 56.8196C74.8145 56.5495 74.7203 56.2124 74.7203 55.8084C74.7203 55.2136 74.9137 54.7352 75.3053 54.3709C75.7018 54.009 76.2223 53.8107 76.8717 53.776C77.3872 53.776 77.816 53.8355 78.1605 53.9545C78.5026 54.0685 78.8372 54.2296 79.1618 54.4403L78.6463 55.4912Z" fill="#424242"/>
<path d="M90.8724 53.8157V55.1342H89.1969V60.7258H87.8387V55.1342H86.2227V53.8157H90.8724Z" fill="#424242"/>
<path d="M98.021 57.2757C98.021 56.6561 98.1796 56.0736 98.4968 55.5308C98.8141 54.9831 99.2429 54.5469 99.7857 54.2222C100.326 53.9 100.911 53.7364 101.54 53.7364C102.175 53.7364 102.762 53.9 103.305 54.2222C103.845 54.5469 104.277 54.9831 104.594 55.5308C104.916 56.0736 105.08 56.6561 105.08 57.2757C105.08 57.9176 104.916 58.51 104.594 59.0503C104.277 59.5857 103.845 60.012 103.305 60.3292C102.762 60.6465 102.175 60.8051 101.54 60.8051C100.906 60.8051 100.316 60.6465 99.7757 60.3292C99.2404 60.012 98.8141 59.5857 98.4968 59.0503C98.1796 58.51 98.021 57.9176 98.021 57.2757ZM99.4287 57.2757C99.4287 57.6797 99.5229 58.049 99.7163 58.3861C99.9071 58.7232 100.167 58.9908 100.499 59.1891C100.829 59.3874 101.193 59.4865 101.59 59.4865C101.979 59.4865 102.334 59.3874 102.651 59.1891C102.973 58.9908 103.226 58.7281 103.404 58.396C103.583 58.0589 103.672 57.6871 103.672 57.2757C103.672 56.8668 103.578 56.4925 103.394 56.1554C103.208 55.8183 102.953 55.5507 102.631 55.3524C102.306 55.1541 101.947 55.055 101.55 55.055C101.159 55.055 100.802 55.1541 100.48 55.3524C100.155 55.5507 99.8972 55.8183 99.7063 56.1554C99.5205 56.4925 99.4287 56.8668 99.4287 57.2757Z" fill="#424242"/>
<path d="M116.43 60.7258L114.972 58.5249H114.06V60.7258H112.702V53.8157H114.794C115.651 53.8157 116.316 54.0239 116.786 54.4403C117.262 54.8566 117.5 55.4267 117.5 56.1455C117.5 56.5693 117.411 56.9683 117.233 57.3451C117.054 57.7169 116.779 58.0068 116.41 58.2175L118.016 60.7258H116.43ZM114.06 57.2162H115.032C115.401 57.2162 115.669 57.1071 115.835 56.889C116.006 56.6709 116.092 56.4404 116.092 56.195C116.092 55.9447 116.018 55.7068 115.874 55.4812C115.728 55.2507 115.451 55.1342 115.042 55.1342H114.06V57.2162Z" fill="#424242"/>
<path d="M131.149 53.8157L128.551 58.5744V60.7258H127.193V58.5744L124.645 53.8157H126.331L127.917 57.008L129.464 53.8157H131.149Z" fill="#424242"/>
</svg>
