<svg width="40" height="40" viewBox="0 0 40 40" fill="none" xmlns="http://www.w3.org/2000/svg">
<g clip-path="url(#clip0_1080_52)">
<path d="M6.10668 0C6.53507 0.151229 6.97186 0.252048 7.35825 0.512497C7.89584 0.882168 8.30743 1.36106 8.53423 1.98278C8.61823 2.20122 8.74422 2.30204 8.96262 2.36925C13.0701 3.60428 17.1693 4.83932 21.2684 6.09116C21.5204 6.16677 21.722 6.14997 21.9572 6.02394C23.0827 5.42743 24.1999 5.48624 25.2331 6.20878C26.2411 6.91451 26.6947 7.93951 26.5267 9.15774C26.3587 10.4264 25.6195 11.2917 24.4015 11.7118C24.1327 11.8042 24.0739 11.9135 24.0403 12.1907C23.9563 12.9385 24.0907 13.451 24.9559 13.6358C25.4767 13.745 25.9303 14.1231 26.2999 14.5432C26.6695 14.9548 26.8711 15.4337 26.8627 15.9966C26.8627 16.3243 26.8711 16.6436 26.8627 16.9712C26.8459 17.3661 26.5855 17.6265 26.2243 17.6181C25.8799 17.6097 25.6363 17.3577 25.6195 16.988C25.6111 16.7024 25.6027 16.4167 25.6195 16.1311C25.6447 15.711 25.4599 15.4085 25.1407 15.1649C24.7123 14.8372 24.2167 14.644 23.6959 14.5012C23.6035 14.476 23.5195 14.4928 23.4271 14.5096C22.9735 14.6356 22.5451 14.812 22.1504 15.0725C21.7388 15.3413 21.5036 15.6942 21.5456 16.2151C21.5708 16.4587 21.554 16.7108 21.5456 16.9544C21.5288 17.3577 21.2936 17.6181 20.9324 17.6265C20.5712 17.635 20.3108 17.3745 20.3024 16.9796C20.294 16.5932 20.2856 16.1983 20.3108 15.8118C20.3528 15.1145 20.7392 14.602 21.2684 14.1819C21.6632 13.871 22.1 13.6526 22.5703 13.4846C22.7551 13.4173 22.8223 13.3249 22.8055 13.1485C22.7971 13.0813 22.7971 13.0141 22.8055 12.9553C22.8895 12.2663 22.8223 11.737 21.9656 11.4934C21.2936 11.3001 20.8652 10.6868 20.5796 10.0315C20.4956 9.84667 20.3864 9.75425 20.1932 9.69544C16.0773 8.46041 11.9614 7.21697 7.85384 5.96513C7.55985 5.87272 7.49265 5.92313 7.49265 6.23398C7.50105 9.83827 7.50105 13.4426 7.49265 17.0468C7.49265 17.2653 7.55985 17.3913 7.75304 17.5089C9.03822 18.3323 9.67661 19.5169 9.68501 21.0376C9.69341 25.9693 9.69341 30.9011 9.67661 35.8328C9.67661 36.1605 9.7354 36.3285 10.0966 36.2613C10.2058 36.2445 10.3318 36.2613 10.4494 36.2613C11.0374 36.2697 11.2474 36.4713 11.2474 37.0594C11.2474 37.7904 11.2474 38.5129 11.2474 39.2439C11.2474 39.7816 11.0206 40 10.483 40C7.24065 40 4.00672 40 0.764385 40C0.226795 40 0.00839983 39.7732 0 39.2439C0.0167997 38.4793 0.0167997 37.74 0.0167997 36.9922C0.0167997 36.4545 0.243595 36.2361 0.772784 36.2277C1.57077 36.2109 1.57077 36.2109 1.57077 35.4127C1.57077 30.649 1.57917 25.8853 1.57077 21.1216C1.57077 19.5253 2.20916 18.2819 3.56993 17.4333C3.77992 17.3073 3.75472 17.1477 3.75472 16.9712C3.75472 13.745 3.75472 10.5188 3.75472 7.29259C3.75472 7.00693 3.73792 6.72128 3.76312 6.43562C3.80512 5.92313 3.66233 5.54505 3.28433 5.13338C1.73037 3.41945 2.64595 0.63012 4.9139 0.084016C4.9979 0.0672128 5.0819 0.0336064 5.1659 0C5.48509 0 5.79588 0 6.10668 0ZM8.45023 26.7843C8.45023 25.6921 8.45023 24.5999 8.45023 23.5077C8.45023 23.2976 8.43343 23.18 8.16464 23.1884C6.47627 23.2052 4.7879 23.1968 3.09114 23.1884C2.85594 23.1884 2.82234 23.2808 2.82234 23.4825C2.83074 25.6837 2.83074 27.8765 2.82234 30.0777C2.82234 30.3214 2.88954 30.3802 3.13314 30.3802C4.7963 30.3718 6.45947 30.3634 8.12264 30.3802C8.41663 30.3802 8.45863 30.2794 8.45023 30.0189C8.44183 28.9435 8.45023 27.8681 8.45023 26.7843ZM5.67829 31.6236C4.8299 31.6236 3.98992 31.632 3.14154 31.6152C2.88114 31.6068 2.82234 31.6908 2.82234 31.9429C2.83074 33.2703 2.83074 34.5978 2.82234 35.9252C2.82234 36.1521 2.87274 36.2361 3.12474 36.2361C4.8047 36.2277 6.47627 36.2277 8.15624 36.2361C8.39983 36.2361 8.45863 36.1605 8.45863 35.9252C8.45023 34.5978 8.44183 33.2703 8.45863 31.9429C8.45863 31.6488 8.34943 31.6068 8.09744 31.6152C7.29105 31.632 6.48467 31.6236 5.67829 31.6236ZM5.63629 21.945C6.20748 21.945 6.77866 21.9534 7.34985 21.945C7.71105 21.9366 8.20664 22.113 8.38303 21.8694C8.55943 21.6173 8.45023 21.1468 8.43343 20.7687C8.36623 19.3909 7.24905 18.2399 5.87148 18.1306C4.46871 18.013 3.18354 18.9708 2.88954 20.3403C2.79714 20.7519 2.84754 21.172 2.82234 21.5837C2.79714 21.8694 2.87274 21.9618 3.17514 21.9534C3.99832 21.9282 4.8215 21.945 5.63629 21.945ZM20.6804 7.30099C20.672 7.13296 20.4956 7.15816 20.3948 7.12455C16.6233 5.97354 12.8433 4.83932 9.07182 3.6967C8.84502 3.62949 8.68543 3.59588 8.65183 3.91514C8.62663 4.09998 8.55103 4.30162 8.45023 4.46125C8.26543 4.7469 8.38303 4.81411 8.65183 4.88973C10.3906 5.40223 12.1294 5.93153 13.8681 6.46083C15.9093 7.07414 17.942 7.68746 19.9832 8.30078C20.1008 8.33438 20.2856 8.48561 20.3444 8.27557C20.4452 7.95631 20.5124 7.62025 20.6804 7.30099ZM6.26627 11.5606C6.26627 9.96429 6.26627 8.35959 6.26627 6.76329C6.26627 6.23398 6.26627 6.24239 5.72868 6.25079C5.61109 6.25079 5.48509 6.27599 5.37589 6.24239C5.0399 6.14157 5.0063 6.3012 5.0063 6.58685C5.0147 9.72065 5.0147 12.8544 5.0147 15.9882C5.0147 16.8788 5.0147 16.8704 5.89668 16.8788C6.18228 16.8788 6.27467 16.82 6.26627 16.5175C6.25787 14.8624 6.26627 13.2073 6.26627 11.5606ZM3.77152 3.1338C3.77992 4.17559 4.63671 5.00735 5.66989 4.99895C6.68627 4.98215 7.51785 4.14199 7.50945 3.11699C7.50945 2.07519 6.65267 1.24344 5.61109 1.25184C4.59471 1.26024 3.76312 2.1172 3.77152 3.1338ZM25.3087 8.75446C25.3171 7.72107 24.4687 6.87251 23.4271 6.87251C22.4108 6.87251 21.5624 7.72107 21.5624 8.72926C21.5624 9.77106 22.4024 10.6196 23.4439 10.6112C24.4687 10.6112 25.3087 9.77946 25.3087 8.75446ZM5.63629 37.4795C4.46871 37.4795 3.29273 37.4795 2.12516 37.4795C1.25997 37.4795 1.27677 37.4795 1.25997 38.3533C1.25157 38.6557 1.33557 38.7398 1.64637 38.7398C4.13272 38.723 6.61067 38.7314 9.09702 38.7314C10.0294 38.7314 10.021 38.7314 10.021 37.7988C10.021 37.5467 9.9538 37.4711 9.69341 37.4711C8.34103 37.4879 6.98866 37.4795 5.63629 37.4795Z" fill="#424242"/>
<path d="M39.9916 39.5882C39.7816 39.8571 39.5296 39.9831 39.1684 39.9831C31.1466 39.9747 23.1163 39.9747 15.0945 39.9747C14.0361 39.9747 13.2297 39.5042 12.7678 38.5548C12.3226 37.6306 12.4402 36.7317 13.0701 35.9167C13.5489 35.3118 14.1957 35.0009 14.9601 34.9841C15.7161 34.9673 16.4721 34.9841 17.2197 34.9757C17.3457 34.9757 17.4717 35.0093 17.5977 34.9421C17.3541 34.2784 17.3541 34.2952 16.6989 34.27C15.8169 34.2448 15.0021 33.9171 14.1789 33.6483C13.8429 33.5391 13.6329 33.245 13.5405 32.9005C13.2045 31.6739 12.8938 30.3885 13.2633 29.1702C13.5405 28.2545 13.3053 27.3807 13.4397 26.5069C13.5909 25.4903 13.8933 25.2047 14.9181 25.2131C15.3801 25.2215 15.8085 25.1543 16.2453 24.9946C18.6476 24.1293 21.1088 23.4991 23.6455 23.1967C26.3335 22.8774 28.845 23.2807 31.1466 24.793C31.785 25.2131 32.4318 25.6332 33.1541 25.9104C33.8849 26.1961 34.6577 26.1709 35.4137 26.2885C36.4049 26.4481 37.3877 26.6329 38.3032 27.0446C39.2272 27.4563 39.9076 28.0612 39.9412 29.1618C39.9412 29.1954 39.9748 29.229 39.9916 29.2626C39.9916 30.2792 39.9916 31.2958 39.9916 32.304C39.5968 33.6483 38.5804 34.1272 37.3037 34.2784C36.7577 34.3456 36.2117 34.3288 35.6657 34.3372C35.0609 34.3456 35.0525 34.3456 34.9097 34.9673C36.3041 34.9673 37.6985 34.9757 39.0844 34.9589C39.4624 34.9505 39.7648 35.0429 39.9916 35.3538C39.9916 35.5134 39.9916 35.6647 39.9916 35.8243C39.7732 36.1436 39.4708 36.2192 39.0844 36.2192C31.1634 36.2108 23.2423 36.2108 15.3297 36.2108C15.2037 36.2108 15.0693 36.2024 14.9433 36.2108C14.2965 36.2528 13.7925 36.7653 13.7673 37.3954C13.7421 38.0255 14.2041 38.5968 14.8257 38.6892C14.9769 38.7144 15.1365 38.706 15.2961 38.706C23.2255 38.706 31.1634 38.706 39.0928 38.6976C39.4708 38.6976 39.7732 38.7733 40 39.0925C39.9916 39.2773 39.9916 39.437 39.9916 39.5882ZM38.6812 32.2368C38.1352 32.2368 37.6481 32.2536 37.1609 32.2284C36.7577 32.2116 36.5225 31.9344 36.5393 31.5731C36.5561 31.2286 36.7997 31.0018 37.1861 30.9934C37.5641 30.985 37.9421 30.9682 38.32 31.0018C38.6392 31.027 38.7232 30.8842 38.7316 30.6069C38.74 30.1784 38.7232 29.7499 38.7064 29.3215C38.6812 28.7838 38.3872 28.4981 37.9589 28.2797C37.4045 28.0024 36.8165 27.8512 36.2201 27.7252C35.4557 27.5655 34.6829 27.4647 33.9101 27.3891C32.6586 27.2631 31.6254 26.6161 30.6258 25.944C28.5174 24.5325 26.2159 24.1461 23.7379 24.4569C21.1424 24.7846 18.6476 25.4483 16.2033 26.3557C16.0185 26.4229 15.8421 26.4733 15.6405 26.4733C14.5737 26.4817 14.5737 26.4817 14.7165 27.5739C14.7333 27.6915 14.7669 27.8008 14.7837 27.9184C14.8173 28.1452 14.8929 28.2797 15.1701 28.2965C15.5145 28.3133 15.7413 28.6157 15.7245 28.935C15.7077 29.271 15.4557 29.5063 15.0777 29.5231C14.9517 29.5315 14.8173 29.5315 14.6913 29.5231C14.4897 29.5063 14.4141 29.5819 14.4141 29.7835C14.3973 30.6489 14.4813 31.4975 14.6997 32.3292C14.7249 32.43 14.7249 32.5393 14.8593 32.5729C15.5649 32.7325 16.2369 33.0518 16.9761 33.0434C17.1861 33.0434 17.2533 32.9677 17.3037 32.7661C17.6397 31.4555 18.74 30.5985 20.0588 30.6069C21.344 30.6153 22.4444 31.4975 22.7552 32.7829C22.8056 33.0014 22.8896 33.077 23.1163 33.077C25.2247 33.077 27.3331 33.0854 29.433 33.0938C29.6346 33.0938 29.727 33.0518 29.7774 32.8333C30.1218 31.4639 31.1886 30.5985 32.5074 30.5985C33.8429 30.5985 34.8929 31.4555 35.2625 32.8585C35.2877 32.9677 35.2877 33.1022 35.4557 33.1022C36.3125 33.0938 37.1777 33.1778 38.0008 32.8669C38.2696 32.7661 38.5216 32.6149 38.6812 32.2368ZM20.0084 34.9841C20.8652 34.9841 21.5708 34.2784 21.5624 33.4214C21.5624 32.5645 20.8568 31.8671 20 31.8671C19.1432 31.8671 18.4376 32.5729 18.446 33.4298C18.446 34.2784 19.1516 34.9841 20.0084 34.9841ZM32.4906 31.8587C31.6338 31.8587 30.9366 32.5729 30.945 33.4298C30.9534 34.2868 31.659 34.9841 32.5158 34.9757C33.3725 34.9757 34.0697 34.2616 34.0613 33.4046C34.0529 32.5561 33.3473 31.8587 32.4906 31.8587ZM30.0966 34.9757C30.0042 34.5052 29.7858 34.3372 29.2986 34.3372C27.2743 34.3624 25.2415 34.3372 23.2087 34.3288C22.5872 34.3288 22.5872 34.3288 22.4276 34.9673C24.9727 34.9757 27.5263 34.9757 30.0966 34.9757Z" fill="#424242"/>
<path d="M16.5645 38.1098C16.5141 38.1098 16.4637 38.1098 16.4049 38.1098C15.9177 38.1014 15.6321 37.8745 15.6321 37.4796C15.6321 37.093 15.9177 36.8661 16.4133 36.8577C16.5561 36.8577 16.6989 36.8493 16.8417 36.8577C17.2365 36.8745 17.5053 37.1266 17.4969 37.4796C17.4969 37.8325 17.2365 38.0846 16.8333 38.1014C16.7493 38.1098 16.6569 38.1098 16.5645 38.1098Z" fill="#424242"/>
<path d="M19.6976 36.8579C19.748 36.8579 19.7984 36.8579 19.8572 36.8579C20.3444 36.8663 20.63 37.0932 20.63 37.4882C20.63 37.8747 20.3444 38.1016 19.8488 38.11C19.706 38.11 19.5632 38.1184 19.4204 38.11C19.0256 38.0932 18.7652 37.8411 18.7652 37.4798C18.7652 37.1268 19.0256 36.8831 19.4288 36.8579C19.5128 36.8579 19.6052 36.8579 19.6976 36.8579Z" fill="#424242"/>
<path d="M22.7888 38.1014C22.688 38.1014 22.5788 38.1098 22.478 38.1014C22.1336 38.0678 21.89 37.8157 21.89 37.488C21.8816 37.1602 22.1252 36.8913 22.4612 36.8661C22.6964 36.8493 22.9316 36.8493 23.1668 36.8661C23.5111 36.8913 23.7547 37.1518 23.7547 37.4712C23.7631 37.7989 23.5195 38.0594 23.1836 38.1014C23.0492 38.1182 22.9148 38.1014 22.7888 38.1014Z" fill="#424242"/>
<path d="M25.9471 36.8579C26.0143 36.8579 26.0731 36.8579 26.1403 36.8579C26.5939 36.8663 26.8795 37.11 26.8711 37.4882C26.8627 37.8663 26.5855 38.0932 26.1235 38.1016C25.9639 38.1016 25.8127 38.11 25.6531 38.1016C25.2583 38.0848 24.9979 37.8243 24.9979 37.4714C25.0063 37.1184 25.2667 36.8747 25.6699 36.8579C25.7623 36.8579 25.8547 36.8579 25.9471 36.8579Z" fill="#424242"/>
<path d="M29.0298 38.1014C28.929 38.1014 28.8198 38.1098 28.719 38.1014C28.3746 38.0678 28.131 37.8073 28.131 37.488C28.131 37.1602 28.3662 36.8997 28.7106 36.8661C28.929 36.8493 29.1558 36.8493 29.3742 36.8661C29.7438 36.8913 29.9958 37.1434 29.9958 37.4796C29.9958 37.8157 29.7438 38.0762 29.3742 38.1014C29.2566 38.1098 29.139 38.1098 29.0298 38.1014Z" fill="#424242"/>
<path d="M32.1798 36.8579C32.8265 36.8579 33.1121 37.0512 33.1205 37.4798C33.1205 37.9083 32.8265 38.11 32.1882 38.11C31.5498 38.11 31.2558 37.9167 31.2474 37.4882C31.2474 37.0596 31.5498 36.8579 32.1798 36.8579Z" fill="#424242"/>
<path d="M35.3045 36.8579C35.3465 36.8579 35.3801 36.8579 35.4221 36.8579C35.9513 36.8579 36.2369 37.0848 36.2369 37.4798C36.2369 37.8747 35.9429 38.1016 35.4221 38.1016C35.2961 38.1016 35.1617 38.11 35.0357 38.1016C34.6409 38.0848 34.3721 37.8327 34.3721 37.4798C34.3721 37.1268 34.6325 36.8747 35.0357 36.8579C35.1281 36.8579 35.2205 36.8579 35.3045 36.8579Z" fill="#424242"/>
<path d="M38.404 38.1013C38.2864 38.1013 38.1688 38.1181 38.0512 38.1013C37.7152 38.0424 37.5137 37.8408 37.4969 37.4962C37.4801 37.1685 37.7236 36.8996 38.0596 36.866C38.2696 36.8492 38.4796 36.8492 38.6812 36.8576C39.0844 36.8744 39.3448 37.1097 39.3532 37.4626C39.3616 37.8324 39.0844 38.0845 38.6644 38.1013C38.5888 38.1097 38.4964 38.1097 38.404 38.1013Z" fill="#424242"/>
<path d="M6.25864 25.3229C6.25864 25.4406 6.27545 25.5582 6.25864 25.6759C6.1998 26.012 5.99808 26.2137 5.65347 26.2305C5.33407 26.2473 5.0567 26.0036 5.02308 25.6591C5.00627 25.449 5.00627 25.2389 5.01468 25.0372C5.03149 24.6338 5.26683 24.3733 5.61985 24.3649C5.98967 24.3565 6.24183 24.6254 6.25864 25.054C6.26704 25.1465 6.26704 25.2389 6.25864 25.3229Z" fill="#424242"/>
<path d="M6.25866 28.4561C6.25866 28.557 6.26706 28.6662 6.25866 28.7671C6.22504 29.1116 5.96448 29.3553 5.64509 29.3553C5.31729 29.3553 5.05673 29.12 5.02311 28.7755C5.0063 28.557 5.0063 28.3301 5.02311 28.1116C5.03992 27.7418 5.30048 27.4897 5.63668 27.4897C5.98129 27.4897 6.23344 27.7334 6.25866 28.1032C6.26706 28.2208 6.26706 28.3385 6.25866 28.4561Z" fill="#424242"/>
<path d="M24.6787 29.0537C22.4948 29.0537 20.3108 29.0537 18.1184 29.0537C17.3541 29.0537 17.1945 28.8856 17.1945 28.1041C17.1945 27.9612 17.1945 27.8184 17.1945 27.6755C17.1945 27.3646 17.3373 27.1629 17.6144 27.0368C20.2772 25.852 23.0659 25.2385 25.9807 25.3226C27.3499 25.3646 28.6014 25.81 29.7606 26.5495C30.441 26.978 31.1214 27.4234 31.8018 27.852C32.0874 28.0284 32.247 28.2637 32.1546 28.5999C32.0538 28.9528 31.785 29.0621 31.4322 29.0621C29.181 29.0453 26.9299 29.0537 24.6787 29.0537ZM19.244 27.7679C22.5955 27.7679 25.9471 27.7679 29.3742 27.7679C28.8366 27.3898 28.3326 27.1377 27.7866 26.9444C26.5687 26.499 25.3171 26.5074 24.0487 26.6251C22.394 26.7763 20.7896 27.1293 19.244 27.7679Z" fill="#424242"/>
</g>
<defs>
<clipPath id="clip0_1080_52">
<rect width="40" height="40" fill="white"/>
</clipPath>
</defs>
</svg>
