<svg width="40" height="40" viewBox="0 0 40 40" fill="none" xmlns="http://www.w3.org/2000/svg">
<path d="M40 24.2365C39.8854 24.3387 39.9062 24.4921 39.8542 24.6147C39.5729 25.2995 39.0833 25.7185 38.3229 25.8003C37.9375 25.8412 37.6458 25.647 37.5937 25.3199C37.5417 24.9929 37.75 24.7476 38.1458 24.6658C38.5938 24.5738 38.8021 24.3796 38.8229 23.9095C38.8542 23.1838 38.8333 22.4581 38.8437 21.7223C38.8437 21.5485 38.7604 21.4974 38.6042 21.5076C38.2812 21.5076 37.9479 21.5178 37.625 21.5076C37.1979 21.4872 36.9479 21.2521 36.9687 20.9148C36.9792 20.5878 37.2292 20.3936 37.6354 20.3629C37.8125 20.3527 38 20.414 38.1771 20.3118C38.0208 20.1074 37.8021 20.0256 37.5937 19.9336C36 19.2591 34.3229 18.9422 32.6146 18.7072C30.7812 18.4619 28.9271 18.421 27.0833 18.4312C23.1875 18.4414 19.3021 18.4312 15.4062 18.4312C15.2604 18.4312 15.1146 18.4312 14.9792 18.421C14.6354 18.3903 14.4167 18.1552 14.4167 17.8486C14.4167 17.542 14.6458 17.3069 15 17.2865C15.5104 17.266 16.0208 17.266 16.5208 17.2865C16.8125 17.2967 16.9375 17.2252 16.9271 16.9083C16.9062 16.0907 16.9167 15.273 16.9167 14.4554C16.9167 14.2918 16.9479 14.1078 16.6771 14.1181C15.2917 14.159 13.8958 14.0261 12.5104 14.2509C11.6562 14.394 11.6562 14.3838 11.4583 15.2219C11.3229 15.7943 11.1979 16.3666 11.0521 16.939C10.9792 17.2047 11.0729 17.2865 11.3229 17.2763C11.6875 17.266 12.0521 17.266 12.4167 17.2763C12.8333 17.2865 13.0625 17.4909 13.0729 17.8384C13.0833 18.1859 12.8542 18.4108 12.4479 18.421C11.8333 18.4312 11.2187 18.4619 10.6146 18.3596C9.72917 18.2063 9.03125 17.7566 8.42708 17.1229C8.16667 16.8572 7.92708 16.479 7.60417 16.3768C7.27083 16.2746 6.92708 16.6221 6.58333 16.755C5.36458 17.2456 4.07292 17.3989 2.78125 17.542C2.46875 17.5727 2.15625 17.6033 1.85417 17.6544C1.38542 17.7362 1.20833 17.9406 1.1875 18.4005C1.1875 18.4414 1.1875 18.4721 1.1875 18.513C1.1875 19.0751 1.1875 19.0751 1.73958 19.0955C2.17708 19.116 2.42708 19.3204 2.42708 19.6679C2.4375 20.0256 2.17708 20.23 1.70833 20.2505C1.17708 20.2607 1.17708 20.2607 1.17708 20.7819C1.17708 21.1295 1.17708 21.4667 1.17708 21.8142C1.17708 22.5808 1.5 22.9998 2.23958 23.2145C2.83333 23.3882 3.44792 23.5415 4.03125 23.7357C4.33333 23.8277 4.38542 23.7459 4.4375 23.47C4.69792 21.9062 5.61458 20.8637 7.16667 20.4549C9.59375 19.811 11.8854 21.6507 11.8021 24.1343C11.7917 24.6249 11.7917 24.6249 12.2812 24.6249C17.6146 24.6249 22.9583 24.6249 28.2917 24.6249C28.8229 24.6249 28.8229 24.6249 28.8125 24.1037C28.7604 22.08 30.2812 20.4447 32.3229 20.3425C34.3333 20.23 36.0417 21.7018 36.2188 23.6948C36.3646 25.279 35.3437 26.8326 33.8021 27.3947C32.2292 27.9671 30.4792 27.4458 29.5 26.0967C29.3333 25.8616 29.1562 25.7696 28.8646 25.7696C23.1458 25.7799 17.4375 25.7799 11.7187 25.7696C11.4271 25.7696 11.2604 25.8616 11.0833 26.0967C10.2604 27.1903 9.14583 27.7116 7.77083 27.5991C6.3125 27.4765 5.27083 26.7099 4.67708 25.4119C4.5625 25.1666 4.4375 25.0337 4.16667 24.9622C3.39583 24.768 2.63542 24.5534 1.875 24.3285C0.677083 24.0117 0 23.1327 0 21.8756C0 20.7308 0 19.5759 0 18.4312C0 17.4193 0.614583 16.7141 1.63542 16.5608C2.73958 16.3871 3.86458 16.336 4.95833 16.0804C6.29167 15.7738 7.45833 15.0788 8.66667 14.4962C9.79167 13.9443 10.8958 13.3822 12.1458 13.1675C12.6042 13.0858 13.0729 13.0142 13.5417 13.0142C15.6458 13.004 17.7604 12.9836 19.8646 13.0245C21.4896 13.0551 22.9687 13.5662 24.3437 14.4349C25.75 15.3241 27.1771 16.2031 28.5833 17.0923C28.8229 17.2456 29.0625 17.3171 29.3438 17.3274C31.8438 17.4091 34.3229 17.6749 36.7292 18.421C37.1771 18.5538 37.6146 18.7276 38.0417 18.9013C39.0521 19.3102 39.6771 20.0461 39.9271 21.0886C39.9375 21.1499 39.9792 21.201 40 21.2623C40 22.2435 40 23.2451 40 24.2365ZM26.6458 17.2149C25.4062 16.4586 24.2187 15.6921 23 14.997C21.5521 14.1794 19.9375 14.0874 18.3125 14.1385C18.0729 14.1487 18.0833 14.2816 18.0833 14.4451C18.0833 15.2526 18.1042 16.0498 18.0729 16.8572C18.0625 17.2047 18.1562 17.3069 18.5208 17.3069C21.0833 17.2865 23.6458 17.2967 26.2083 17.2967C26.3333 17.2967 26.4583 17.3274 26.6458 17.2149ZM10.6354 24.0015C10.6354 22.6217 9.51042 21.5281 8.10417 21.5178C6.6875 21.5178 5.54167 22.6421 5.55208 24.0219C5.5625 25.3813 6.69792 26.5055 8.09375 26.5157C9.48958 26.526 10.6458 25.3915 10.6354 24.0015ZM32.5104 21.5281C31.0937 21.5383 29.9792 22.6523 29.9896 24.0526C30 25.4119 31.1562 26.5362 32.5417 26.5157C33.9271 26.5055 35.0729 25.371 35.0729 24.0117C35.0729 22.6319 33.9271 21.5178 32.5104 21.5281ZM8.71875 15.7636C9.05208 16.1009 9.36458 16.4177 9.67708 16.7346C9.75 16.8061 9.86458 16.8777 9.90625 16.7039C10.0417 16.1622 10.1563 15.6103 10.2917 14.9868C9.70833 15.273 9.21875 15.5183 8.71875 15.7636Z" fill="#424242"/>
<path d="M20.3125 23.3576C18.2188 23.3576 16.125 23.3576 14.0208 23.3576C13.875 23.3576 13.7292 23.3576 13.5938 23.3269C13.3021 23.2656 13.1458 23.051 13.1563 22.775C13.1563 22.4991 13.3125 22.2844 13.6146 22.2333C13.75 22.2129 13.8958 22.2129 14.0417 22.2129C18.2188 22.2129 22.3958 22.2129 26.5729 22.2129C27.1771 22.2129 27.4583 22.3969 27.4688 22.775C27.4792 23.1736 27.1875 23.3576 26.5625 23.3576C24.4792 23.3576 22.3958 23.3576 20.3125 23.3576Z" fill="#424242"/>
<path d="M8.48957 23.0103C8.7604 23.0103 8.93749 23.1125 9.05207 23.2964C9.17707 23.5008 9.17707 23.7359 9.02082 23.9097C8.6979 24.2572 8.36457 24.5945 7.99999 24.9113C7.78124 25.0953 7.5104 25.0748 7.28124 24.8806C7.05207 24.6864 6.98957 24.4105 7.15624 24.1856C7.46874 23.7666 7.86457 23.4089 8.28124 23.0818C8.34374 23.0307 8.4479 23.0205 8.48957 23.0103Z" fill="#424242"/>
<path d="M33.5417 24.4103C33.5313 24.6862 33.4375 24.86 33.2292 24.952C33.0313 25.0542 32.8021 25.0542 32.6458 24.9111C32.2813 24.584 31.9271 24.2467 31.6042 23.8788C31.4167 23.6641 31.4583 23.3882 31.6667 23.1838C31.8646 22.9794 32.1354 22.918 32.375 23.0918C32.7917 23.3984 33.1458 23.7766 33.4792 24.165C33.5313 24.2467 33.5313 24.3592 33.5417 24.4103Z" fill="#424242"/>
</svg>
