<svg width="276" height="230" viewBox="0 0 276 230" fill="none" xmlns="http://www.w3.org/2000/svg">
<g clip-path="url(#clip0_65_448)">
<path opacity="0.1" d="M155.226 0.0377545C190.946 -0.840971 223.554 13.9279 242.073 38.3376C279.306 87.4081 286.201 136.447 261.224 162.219C256.018 167.592 241.136 180.503 219.122 185.122C183.614 192.579 168.176 170.36 138.825 176.078C99.9854 183.647 95.854 228.626 69.7527 229.975C44.8453 231.262 17.5752 191.901 13.55 154.744C6.58096 90.4209 66.6776 8.67437 145.594 0.646585C148.856 0.313925 152.075 0.11935 155.232 0.0377545H155.226Z" fill="#87C71F"/>
</g>
<g clip-path="url(#clip1_65_448)">
<path d="M4.17521 144.287C0.0455852 146.777 0.159506 151.769 0.0683693 154.961C-0.159472 162.921 0.0968495 175.624 2.07907 177.516C6.7612 181.978 9.82567 186.759 13.1351 188.936C14.485 189.825 35.6572 187.91 42.0424 188.434C55.9578 189.574 128.776 189.825 153.65 190.925C197.105 192.839 259.841 191.301 261.909 190.731C262.427 190.588 267.451 183.693 268.562 181.898C270.351 179.014 271.034 175.322 271.006 174.359C270.932 172.227 271.074 167.52 270.863 165.452C270.67 163.548 267.56 163.041 267.56 162.198C267.56 158.414 268.596 144.88 266.796 141.13C266.176 139.836 268.175 138.788 268.374 137.489C268.562 136.263 268.756 134.628 268.71 133.756C268.613 132.035 268.499 130.815 267.56 129.83C256.361 118.051 243.75 102.727 235.303 97.5583C228.411 93.347 170.505 86.8334 145.71 90.7598C117.982 95.1534 82.9285 103.53 63.2487 124.37C60.8051 126.957 38.4767 123.612 4.1809 144.287H4.17521Z" fill="#87C71F"/>
<path d="M168.58 128.006C168.58 128.872 209.249 127.288 210.884 127.43C215.39 127.829 225.449 113.218 224.287 107.514C223.33 102.824 173.148 94.4924 172.504 97.0739C170.682 104.357 168.58 120.415 168.58 128.006Z" fill="#9C9EA1"/>
<path d="M161.067 128.821C161.004 129.687 70.9953 133.072 72.5788 131.551C109.466 95.9741 165.379 95.9342 165.379 96.3103C165.344 104.756 161.648 120.894 161.072 128.821H161.067Z" fill="#9C9EA1"/>
<path d="M267.554 162.192C267.554 163.041 270.664 163.548 270.858 165.446C271.068 167.515 270.932 172.222 271 174.353C271.034 175.316 270.345 179.014 268.556 181.892C267.446 183.687 263.231 189.751 262.712 189.893C260.645 190.463 196.986 191.757 153.531 189.836C128.662 188.742 55.9521 189.563 42.0367 188.429C35.6514 187.904 14.4736 189.819 13.1293 188.93C9.81994 186.753 6.75548 181.978 2.07334 177.51C0.102517 175.629 -0.159501 162.927 0.0683405 154.961C0.159477 151.821 0.0512526 146.925 3.99291 144.401H267.554C268.209 149.906 267.554 159.166 267.554 162.192Z" fill="#7EBC19"/>
<path d="M268.659 181.898C267.548 183.693 262.809 191.135 262.291 191.278C260.223 191.848 184.107 192.286 140.612 191.529C115.288 191.09 15.3451 191.586 13.9952 190.702C10.6858 188.525 6.75553 181.983 2.07909 177.521C1.61202 177.077 1.29874 176.302 1.00824 174.854L271 175.436C270.943 176.649 270.334 179.202 268.659 181.898Z" fill="#383638"/>
<path d="M205.672 142.418C210.668 142.418 214.718 141.517 214.718 140.406C214.718 139.295 210.668 138.395 205.672 138.395C200.677 138.395 196.627 139.295 196.627 140.406C196.627 141.517 200.677 142.418 205.672 142.418Z" fill="white"/>
<path d="M129.716 140.406C129.716 141.518 133.766 142.418 138.761 142.418C143.756 142.418 147.806 141.518 147.806 140.406C147.806 139.295 143.756 138.395 138.761 138.395C133.766 138.395 129.716 139.295 129.716 140.406Z" fill="white"/>
<path d="M243.334 191.443C243.591 181.248 242.058 158.847 218.972 158.841C195.431 158.841 195.664 185.004 195.431 191.831L243.334 191.443Z" fill="#383638"/>
<path d="M80.69 189.899C81.0944 179.71 79.471 158.004 56.385 158.18C33.7775 158.357 33.1395 182.656 32.8035 189.471L80.69 189.899Z" fill="#383638"/>
<path d="M198.011 182.491C197.612 194.07 206.675 203.781 218.249 204.18C229.823 204.578 239.535 195.512 239.928 183.927C240.327 172.347 231.264 162.631 219.684 162.232C208.11 161.833 198.404 170.9 198.005 182.485L198.011 182.491Z" fill="#323031"/>
<path d="M205.672 182.753C205.422 190.098 211.169 196.258 218.511 196.509C225.853 196.76 232.011 191.01 232.261 183.664C232.512 176.319 226.765 170.159 219.422 169.908C212.08 169.657 205.923 175.407 205.667 182.753H205.672Z" fill="#FCFDFF"/>
<path d="M208.942 182.867C208.748 188.411 213.088 193.056 218.625 193.244C224.167 193.438 228.81 189.095 228.997 183.556C229.185 178.017 224.851 173.367 219.309 173.179C213.772 172.985 209.124 177.328 208.936 182.867H208.942Z" fill="#323031"/>
<path d="M36.0046 182.491C35.6059 194.07 44.6683 203.781 56.2426 204.18C67.8169 204.578 77.523 195.512 77.9217 183.927C78.3204 172.347 69.258 162.631 57.6837 162.232C46.1094 161.833 36.4033 170.9 36.0046 182.485V182.491Z" fill="#323031"/>
<path d="M43.6715 182.753C43.4208 190.098 49.1681 196.258 56.5103 196.509C63.8525 196.76 70.0099 191.01 70.2605 183.664C70.5112 176.319 64.7639 170.159 57.4217 169.908C50.0795 169.657 43.9221 175.407 43.6715 182.753Z" fill="#FCFDFF"/>
<path d="M46.9353 182.867C46.7416 188.411 51.082 193.056 56.6186 193.244C62.1608 193.438 66.8031 189.095 66.991 183.556C67.179 178.017 62.8443 173.367 57.3078 173.179C51.7655 172.985 47.1233 177.328 46.9353 182.867Z" fill="#323031"/>
<path opacity="0.14" d="M126.127 130.741L143.067 130.018C143.067 130.018 137.4 107.707 135.48 99.8434C135.48 99.8434 127.534 101.536 120.01 104.055L126.133 130.747L126.127 130.741Z" fill="white"/>
<path opacity="0.14" d="M98.4616 131.619L115.441 131.089C115.441 131.089 111.506 115.754 109.586 107.89C109.586 107.89 101.942 110.916 94.6794 115.144L98.4616 131.619Z" fill="white"/>
<path opacity="0.14" d="M187.154 128.029L201.793 127.63C201.793 127.63 195.773 106.648 193.847 98.7778C193.847 98.7778 185.52 97.2847 178.582 96.7548L187.154 128.023V128.029Z" fill="white"/>
<path opacity="0.2" d="M211.505 127.402L212.342 127.145L213.316 126.627L214.33 125.897L215.173 125.174L216.238 124.125L216.785 123.533C216.785 123.533 212.661 110.055 210.736 102.185C210.736 102.185 211.249 102.311 204.191 100.721L211.505 127.396V127.402Z" fill="white"/>
<path d="M83.538 129.522C83.538 131.533 85.2639 132.491 87.8442 132.297C92.0365 131.984 97.6015 127.442 97.6015 127.385C97.6015 125.083 97.6527 120.917 97.499 119.999C97.4705 119.828 96.7129 119.999 96.3313 119.999C92.1276 119.999 83.5323 125.977 83.5323 129.522H83.538Z" fill="#4D4D4F"/>
<path d="M83.538 127.938C83.538 129.949 85.2639 130.907 87.8442 130.713C92.0365 130.399 97.6015 125.858 97.6015 125.801C97.6015 123.498 97.6527 119.333 97.499 118.415C97.4705 118.244 96.7129 118.415 96.3313 118.415C92.1276 118.415 83.5323 124.393 83.5323 127.938H83.538Z" fill="#87C71F"/>
<path d="M5.80994 151.228C6.84662 154.636 12.6737 152.43 21.1778 149.843C29.682 147.25 41.4842 137.631 37.9299 137.779C33.2363 137.973 27.8365 137.785 19.3323 140.378C10.8281 142.971 4.77896 147.826 5.80994 151.234V151.228Z" fill="#F3F9F5"/>
<path d="M241.996 133.084C242.998 135.813 244.747 139.432 248.506 141.096C250.597 142.025 262.61 141.084 264.826 141.084C264.826 141.084 268.272 138.953 268.272 135.568C268.272 132.183 267.491 128.052 261.283 128.052C255.074 128.052 241.312 131.226 241.996 133.078V133.084Z" fill="white"/>
<path opacity="0.11" d="M141 206C197.333 206 243 205.328 243 204.5C243 203.672 197.333 203 141 203C84.667 203 39 203.672 39 204.5C39 205.328 84.667 206 141 206Z" fill="#204B85"/>
<path d="M169.793 95.3813C169.793 95.3813 165.698 92.116 165.042 92.23L160.594 94.0136C160.594 94.0136 162.052 98.0198 163.693 97.3644C163.937 97.2675 164.872 96.5096 165.492 96.3216H167.982C167.982 96.3216 169.565 99.8946 171.001 99.0398L169.799 95.387L169.793 95.3813Z" fill="#C6A076"/>
<path d="M169.719 96.0594C169.668 95.8828 169.565 95.7232 169.428 95.5922C168.654 94.8513 165.817 92.2813 165.418 92.3325C164.621 92.4408 158.156 94.9197 155.701 95.9455C155.16 96.1734 154.687 96.5039 154.317 96.9028C154.203 97.0282 154.078 97.1536 153.952 97.2676C154.254 97.8488 154.283 98.5269 154.607 99.0968C154.784 99.4045 155.023 99.6838 155.24 99.9687C155.325 100.083 155.41 100.191 155.502 100.305C155.644 100.191 155.838 100.117 156.037 100.094C156.288 100.071 156.55 100.083 156.8 100.1L157.501 99.2507C161.648 100.493 164.359 97.1935 164.359 97.1935L165.042 95.803L167.987 96.4811C169.275 100.436 170.402 100.208 170.63 99.9345C170.824 99.7066 169.992 96.9313 169.725 96.0537L169.719 96.0594Z" fill="#D6AC7F"/>
<path d="M179.003 108.141C177.397 106.3 175.791 104.459 174.185 102.613C173.757 102.123 172.909 101.901 172.356 102.322C171.291 103.109 170.237 103.918 169.201 104.744C168.665 105.172 168.625 106.043 169.007 106.585C170.368 108.614 171.73 110.642 173.091 112.671C173.513 113.304 174.395 113.349 174.976 112.922C176.252 111.981 177.511 111.013 178.753 110.021C179.317 109.571 179.499 108.705 179.003 108.135V108.141ZM172.527 103.952C172.59 104.032 172.573 104.146 172.493 104.203L170.978 105.365C170.898 105.428 170.784 105.411 170.727 105.331L170.465 104.989C170.402 104.909 170.42 104.795 170.499 104.739L172.014 103.576C172.094 103.513 172.208 103.53 172.265 103.61L172.527 103.952Z" fill="#5A595C"/>
<path d="M172.521 104.243L171.006 105.405C170.909 105.479 170.773 105.462 170.704 105.365L170.442 105.023C170.368 104.927 170.385 104.79 170.482 104.721L171.997 103.559C172.094 103.485 172.231 103.502 172.299 103.599L172.561 103.941C172.635 104.038 172.618 104.174 172.521 104.243ZM170.528 104.773C170.465 104.818 170.454 104.909 170.499 104.972L170.761 105.314C170.807 105.377 170.898 105.388 170.961 105.343L172.476 104.18C172.538 104.134 172.55 104.043 172.504 103.981L172.242 103.639C172.197 103.576 172.106 103.565 172.043 103.61L170.528 104.773Z" fill="#404041"/>
<path d="M174.19 110.91C174.452 111.252 174.948 111.315 175.29 111.053L176.862 109.844C177.204 109.582 177.266 109.087 177.004 108.745L175.802 107.177L172.983 109.337L174.185 110.904L174.19 110.91Z" fill="#EC1C24"/>
<path d="M174.817 111.263C174.555 111.263 174.316 111.144 174.156 110.939L172.932 109.337L175.819 107.12L177.044 108.722C177.323 109.087 177.255 109.605 176.89 109.884L175.318 111.092C175.176 111.206 174.999 111.263 174.817 111.263ZM173.057 109.354L174.23 110.882C174.373 111.064 174.583 111.172 174.817 111.172C174.982 111.172 175.136 111.121 175.267 111.018L176.839 109.81C177.164 109.559 177.221 109.098 176.976 108.773L175.802 107.246L173.057 109.354Z" fill="#404041"/>
<path d="M174.35 105.274C174.088 104.932 173.592 104.87 173.25 105.132L171.678 106.34C171.337 106.602 171.274 107.098 171.536 107.44L172.738 109.007L175.557 106.847L174.356 105.28L174.35 105.274Z" fill="#3BB44A"/>
<path d="M172.721 109.064L171.496 107.462C171.217 107.098 171.285 106.579 171.65 106.3L173.222 105.092C173.364 104.978 173.541 104.921 173.723 104.921C173.985 104.921 174.224 105.041 174.384 105.246L175.609 106.847L172.721 109.064ZM173.723 105.012C173.558 105.012 173.404 105.063 173.273 105.166L171.701 106.374C171.376 106.625 171.32 107.086 171.564 107.411L172.738 108.938L175.483 106.83L174.31 105.303C174.168 105.12 173.957 105.012 173.723 105.012Z" fill="#404041"/>
<path d="M163.064 107.398L162.136 106.236L155.307 111.688L156.234 112.851L163.064 107.398Z" fill="#EAEBEC"/>
<path d="M157.968 110.602L158.475 110.38L158.538 110.528L158.629 110.454L158.464 110.232L158.902 109.902L159.062 110.112L159.392 109.85L159.136 109.508L159.791 109.018L160.03 109.337L160.548 108.927L160.412 108.608L161.163 108.283L161.215 108.397L161.391 108.255L161.186 108.004L161.5 107.747L161.71 107.998L162.001 107.765L161.83 107.554L162.149 107.297L162.32 107.514L162.832 107.103L162.371 106.522L155.542 111.976L156.003 112.557L156.305 112.318L156.254 111.885L156.8 111.816L156.812 111.913L157.022 111.742L156.795 111.486L157.21 111.115L157.455 111.395L158.093 110.887L157.968 110.602Z" fill="#CCD5DB"/>
<path d="M168.489 104.511C167.725 103.525 166.945 102.55 166.153 101.587C165.789 101.148 165.173 100.966 164.815 101.302C163.658 102.379 162.502 103.456 161.346 104.539C161.027 104.824 160.964 105.434 161.294 105.861C161.932 106.687 162.582 107.502 163.242 108.306C163.584 108.733 164.194 108.785 164.547 108.551C165.851 107.662 167.161 106.773 168.466 105.884C168.87 105.61 168.836 104.966 168.489 104.516V104.511ZM167.036 105.098C166.894 105.132 166.728 104.892 166.643 104.784C166.449 104.539 166.273 104.283 166.079 104.043C165.885 103.804 165.675 103.57 165.481 103.331C165.396 103.223 165.196 103.012 165.265 102.881C165.339 102.733 165.663 102.835 165.783 102.881C166.142 103.018 166.449 103.28 166.683 103.57C166.916 103.861 167.099 104.22 167.156 104.596C167.173 104.733 167.201 105.063 167.042 105.103L167.036 105.098Z" fill="#4C4C4F"/>
<path d="M165.384 103.228C165.293 103.109 165.191 102.961 165.247 102.847C165.339 102.664 165.697 102.79 165.806 102.83C166.227 102.995 166.535 103.303 166.717 103.53C166.899 103.758 167.133 104.129 167.196 104.573C167.218 104.722 167.247 105.069 167.053 105.115C166.928 105.143 166.803 105.012 166.706 104.892C166.706 104.892 166.671 104.847 166.654 104.824C166.643 104.813 166.637 104.796 166.626 104.79C166.535 104.676 166.449 104.556 166.364 104.442C166.267 104.311 166.165 104.174 166.062 104.049C165.959 103.918 165.851 103.793 165.743 103.667C165.652 103.559 165.555 103.445 165.464 103.331C165.453 103.32 165.447 103.308 165.435 103.297C165.418 103.274 165.401 103.257 165.384 103.228ZM166.666 103.565C166.489 103.342 166.193 103.04 165.783 102.887C165.595 102.812 165.356 102.767 165.304 102.869C165.259 102.966 165.39 103.132 165.435 103.183C165.453 103.206 165.47 103.228 165.487 103.246C165.498 103.257 165.51 103.274 165.515 103.285C165.606 103.399 165.703 103.508 165.794 103.616C165.903 103.741 166.011 103.867 166.113 103.998C166.216 104.129 166.318 104.26 166.415 104.391C166.501 104.505 166.586 104.625 166.677 104.739C166.689 104.75 166.694 104.761 166.706 104.778C166.723 104.801 166.74 104.818 166.757 104.847C166.803 104.904 166.934 105.069 167.036 105.046C167.15 105.018 167.156 104.778 167.127 104.579C167.065 104.146 166.837 103.787 166.66 103.565H166.666Z" fill="#404041"/>
<path d="M169.126 99.5186C167.452 99.5186 166.096 100.875 166.096 102.55C166.096 104.226 167.452 105.582 169.126 105.582C170.801 105.582 172.157 104.226 172.157 102.55C172.157 100.875 170.801 99.5186 169.126 99.5186ZM169.126 105.4C167.554 105.4 166.278 104.123 166.278 102.55C166.278 100.977 167.554 99.7009 169.126 99.7009C170.699 99.7009 171.974 100.977 171.974 102.55C171.974 104.123 170.699 105.4 169.126 105.4Z" fill="#B0D2E2"/>
<path d="M164.199 106.619C164.829 106.619 165.339 106.109 165.339 105.479C165.339 104.85 164.829 104.34 164.199 104.34C163.57 104.34 163.06 104.85 163.06 105.479C163.06 106.109 163.57 106.619 164.199 106.619Z" fill="#454547"/>
<path d="M168.688 105.126C168.471 105.086 168.249 104.989 168.061 104.864C167.964 104.841 167.862 104.813 167.765 104.778C167.663 104.738 167.554 104.704 167.458 104.647C167.389 104.607 167.321 104.556 167.247 104.516C167.23 104.505 167.213 104.493 167.196 104.482C167.19 104.488 167.178 104.493 167.173 104.499C167.161 104.511 167.15 104.516 167.139 104.528C167.139 104.545 167.144 104.568 167.15 104.585C167.161 104.67 167.178 104.83 167.15 104.949C167.241 105.012 167.349 105.046 167.44 105.103C167.554 105.172 167.668 105.234 167.788 105.291C167.908 105.348 168.021 105.411 168.141 105.474C168.141 105.474 168.147 105.474 168.152 105.474C168.175 105.479 168.204 105.491 168.226 105.496C168.283 105.514 168.346 105.525 168.409 105.531C168.511 105.548 168.591 105.605 168.654 105.679C168.751 105.525 168.785 105.325 168.756 105.126C168.733 105.126 168.711 105.12 168.694 105.115L168.688 105.126Z" fill="#4C4C4F"/>
<path d="M167.127 104.938C167.127 104.938 167.127 104.938 167.133 104.938C167.15 104.949 167.167 104.961 167.178 104.972C167.218 104.847 167.201 104.664 167.19 104.568C167.19 104.539 167.184 104.516 167.178 104.494C167.178 104.494 167.173 104.494 167.167 104.499C167.15 104.511 167.133 104.528 167.121 104.539C167.121 104.551 167.121 104.568 167.127 104.579C167.144 104.704 167.15 104.841 167.127 104.938Z" fill="#404041"/>
<path d="M172.22 102.431C172.111 102.51 172.003 102.59 171.895 102.67C171.906 102.698 171.918 102.727 171.912 102.755C171.901 102.932 171.866 103.109 171.844 103.28C171.832 103.371 171.815 103.456 171.77 103.536C171.73 103.599 171.678 103.656 171.627 103.707C171.627 103.707 171.616 103.718 171.61 103.724C171.61 103.724 171.61 103.73 171.61 103.736C171.599 103.781 171.587 103.821 171.57 103.867C171.57 103.884 171.565 103.901 171.559 103.918L172.009 103.576C172.009 103.576 172.02 103.565 172.026 103.565C172.043 103.525 172.06 103.485 172.077 103.439C172.111 103.359 172.123 103.263 172.151 103.183C172.157 103.16 172.168 103.143 172.18 103.126C172.185 103.063 172.197 103 172.208 102.938C172.22 102.772 172.208 102.602 172.208 102.431H172.22Z" fill="#5A595C"/>
<path d="M171.992 103.553L171.576 103.872C171.576 103.872 171.564 103.918 171.553 103.941C171.542 103.958 171.536 103.981 171.53 103.998L172.009 103.633C172.02 103.593 172.032 103.559 172.049 103.525C172.032 103.53 172.009 103.542 171.992 103.553Z" fill="#404041"/>
<path d="M173.535 106.385L173.501 106.408C173.347 106.214 173.08 106.169 172.903 106.306C172.726 106.442 172.704 106.71 172.846 106.91L172.812 106.932C172.783 106.955 172.778 107.001 172.806 107.035L173.245 107.605C173.273 107.639 173.319 107.645 173.347 107.622L174.065 107.069C174.093 107.046 174.099 107.001 174.071 106.967L173.632 106.397C173.604 106.363 173.558 106.357 173.53 106.38L173.535 106.385ZM172.971 106.397C173.108 106.294 173.302 106.328 173.421 106.477L172.926 106.853C172.818 106.699 172.835 106.499 172.966 106.397H172.971ZM173.541 106.932C173.541 106.972 173.564 107.035 173.587 107.069L173.609 107.103C173.638 107.138 173.632 107.183 173.604 107.206L173.592 107.217C173.564 107.24 173.518 107.235 173.49 107.2L173.467 107.166C173.438 107.132 173.387 107.098 173.347 107.086C173.347 107.086 173.336 107.086 173.307 107.046C173.256 106.984 173.268 106.893 173.325 106.853C173.381 106.807 173.467 106.824 173.518 106.887C173.547 106.927 173.547 106.938 173.547 106.938L173.541 106.932Z" fill="#EBEBEB"/>
<path d="M175.352 108.357C175.176 108.494 175.153 108.762 175.295 108.961L174.823 109.326L174.743 109.389L174.709 109.411C174.68 109.434 174.674 109.48 174.703 109.514L175.142 110.084C175.17 110.118 175.216 110.124 175.244 110.101L175.962 109.548C175.99 109.525 175.996 109.48 175.967 109.446L175.529 108.876C175.5 108.842 175.455 108.836 175.426 108.859L175.392 108.881L175.375 108.899C175.273 108.75 175.29 108.551 175.421 108.448C175.552 108.346 175.751 108.38 175.871 108.522L175.95 108.46C175.797 108.272 175.529 108.226 175.352 108.357ZM175.432 109.4C175.432 109.44 175.455 109.503 175.478 109.537L175.5 109.571C175.529 109.605 175.523 109.651 175.495 109.674L175.483 109.685C175.455 109.708 175.409 109.702 175.381 109.668L175.358 109.634C175.329 109.599 175.278 109.565 175.238 109.554C175.238 109.554 175.227 109.554 175.198 109.514C175.147 109.451 175.159 109.36 175.216 109.32C175.273 109.28 175.358 109.292 175.409 109.354C175.438 109.394 175.438 109.406 175.438 109.406L175.432 109.4Z" fill="#EBEBEB"/>
<path d="M156.721 99.1823C156.721 99.1823 159.141 99.7408 161.893 99.5243C163.442 99.4046 164.997 99.5869 166.461 100.031C166.825 100.14 167.173 100.248 167.475 100.339C168.785 100.744 169.702 101.707 170.112 100.721C170.522 99.7351 168.466 98.7037 166.757 98.3162C165.048 97.9286 163.823 95.4725 163.823 95.4725L156.715 99.1823H156.721Z" fill="#D6AC7F"/>
<path d="M154.032 97.2391C154.032 97.2391 155.456 98.9658 157.393 99.3704L156.607 100.396L153.73 97.6038L154.032 97.2391Z" fill="#F58C6D"/>
<path d="M102.215 82.8329C98.8603 84.3089 96.8439 91.0219 110.537 100.71C120.317 107.685 131.094 111.548 134.193 111.947C135.571 112.124 149.8 107.964 160.429 100.55C160.742 100.419 159.455 95.9227 157.398 94.2872C154.869 95.0793 138.579 102.237 135.765 101.342C134.404 100.909 134.13 101.564 133.623 100.704C133.116 99.849 132.512 100.311 131.761 99.7237C131.009 99.1367 121.787 91.3182 119.776 89.7739C115.333 86.3718 108.589 79.6189 102.215 82.8329Z" fill="#037ECF"/>
<path d="M205.188 61.2181C205.188 61.2181 203.707 60.4545 202.374 60.3804C202.106 60.369 202.226 61.0072 202.226 61.0072L205.188 61.2124V61.2181Z" fill="#7B5C45"/>
<path d="M205.188 61.2181C205.251 61.1725 203.342 61.0756 202.836 61.1668C202.329 61.2523 202.306 61.9304 202.864 62.0558C203.189 62.1298 205.034 61.332 205.188 61.2181Z" fill="white"/>
<path d="M205.154 61.2523C205.154 61.2523 204.282 61.6341 202.46 62.0387C202.249 62.0672 203.246 62.3066 205.154 61.2523Z" fill="#1C0000"/>
<path d="M202.961 61.4004C202.967 61.4745 203.035 61.5258 203.109 61.5201C203.183 61.5144 203.24 61.446 203.229 61.3719C203.223 61.2979 203.155 61.2466 203.075 61.2523C203.001 61.258 202.944 61.3263 202.955 61.4004H202.961Z" fill="white"/>
<path d="M221.114 59.2977C221.114 59.2977 220.818 60.3177 220.203 61.4802C219.069 63.6001 217.326 66.9452 217.389 68.33C217.491 70.6094 218.876 72.376 218.876 72.376L220.545 75.1797C220.545 75.1797 218.773 76.5417 218.3 76.8494C217.828 77.1514 210.178 79.8469 208.258 79.9609C207.569 80.0008 207.21 79.5506 207.797 79.1175C208.771 78.3994 207.899 75.8522 208.572 73.9317C208.828 73.2023 208.019 71.3161 207.74 69.4754C207.136 65.4636 202.015 57.2746 202.015 57.2746C202.015 57.2746 203.337 54.2088 203.428 52.8468C203.65 49.5074 209.819 47.8092 214.051 48.7723C220.795 50.3052 222.157 54.1518 221.103 59.3033L221.114 59.2977Z" fill="#7B5C45"/>
<path d="M202.357 55.3541L201.497 59.0696C201.497 59.0696 201.508 60.1752 202.374 61.1098C202.648 61.4061 201.708 63.0986 201.229 64.0047C200.546 65.2868 201.417 65.6573 201.417 65.6573L202.243 65.8168C202.243 65.8168 201.947 66.7172 201.816 67.401C201.736 67.8398 201.976 67.743 202.46 68.1874C201.907 68.6091 201.936 69.2702 202.391 69.5152C202.648 69.652 203.257 69.7432 203.217 70.0965C203.149 70.7119 203.177 71.6066 204.1 72.4044C205.205 73.0313 206.117 72.6153 206.117 72.6153C206.117 72.6153 212.832 70.484 213.971 68.1362C214.381 67.2871 214.598 66.6374 214.621 66.5234C214.695 66.1074 215.122 65.247 215.122 65.247C215.122 65.247 217.691 64.1642 218.164 61.8791C218.483 59.9928 216.979 56.2716 214.7 58.9386C214.137 58.5397 216.859 53.3026 211.494 51.0688C204.51 49.1996 203.633 51.1315 202.357 55.3598V55.3541Z" fill="#8E6C52"/>
<path d="M215.652 59.5769C215.652 59.5769 216.797 58.4941 217.52 60.5513C218.01 61.9475 216.483 63.1214 215.555 63.6172C215.316 63.5431 215.002 63.3721 215.657 62.8137C216.312 62.2552 216.774 61.4631 216.261 61.2921C215.748 61.1155 215.447 59.6908 215.652 59.5826V59.5769Z" fill="#7B5C45"/>
<path d="M210.332 51.3651C210.332 51.3651 211.499 52.4649 211.209 54.3284C212.508 54.3341 214.393 56.3514 212.775 60.5912C212.724 61.3548 213.413 61.8221 214.239 62.751C214.222 62.5344 213.932 56.8928 216.609 57.9869C219.291 59.0754 218.431 62.9333 217.218 63.999C216.005 65.0646 217.623 67.3612 217.623 67.3612C217.623 67.3612 218.192 64.9335 220.197 61.4802C222.202 58.0211 220.949 57.2575 220.949 57.2575C220.949 57.2575 216.677 52.3909 210.326 51.3708L210.332 51.3651Z" fill="#3B2717"/>
<path d="M203.679 50.3907C203.679 50.2824 203.701 50.1798 203.753 50.0829C203.77 49.9348 203.821 49.7809 203.918 49.6442C203.849 49.2452 204.1 48.8463 204.465 48.7039C204.522 48.5044 204.641 48.3221 204.818 48.1967C204.954 48.1055 205.086 48.0428 205.222 48.0143C205.416 47.4616 206.213 47.2165 206.766 47.4901C207.034 47.3248 207.381 47.2906 207.683 47.3932C207.996 47.1026 208.503 47.0114 208.89 47.1595C209.215 46.943 209.665 46.943 209.995 47.1709C210.235 47.1026 210.491 47.1709 210.736 47.2849C211.032 47.0798 211.459 47.114 211.807 47.302C211.989 47.1823 212.211 47.1311 212.439 47.1766C212.775 47.2393 212.997 47.4331 213.106 47.6895C213.521 47.3191 214.017 47.416 214.307 47.7807C214.678 47.7237 215.054 47.8548 215.247 48.1568C215.521 48.191 215.766 48.3164 215.971 48.5101C216.352 48.3677 216.74 48.5842 216.962 48.966C217.241 48.9489 217.503 49.023 217.697 49.1826C217.867 49.1313 218.055 49.1541 218.243 49.3079C218.477 49.5017 218.608 49.7809 218.699 50.0715C218.933 50.1 219.143 50.1855 219.297 50.3109C219.354 50.328 219.411 50.3508 219.474 50.3907C219.781 50.5844 219.935 50.8466 219.969 51.1372C220.3 51.2227 220.567 51.4506 220.687 51.7697C221.097 51.8666 221.291 52.2997 221.257 52.7556C221.456 52.8411 221.604 53.012 221.621 53.2856C221.638 53.4964 221.553 53.6617 221.416 53.7871C221.422 53.8212 221.427 53.8554 221.427 53.8953C221.462 54.0264 221.496 54.1575 221.524 54.2885C221.655 54.4823 221.695 54.7273 221.65 54.9667C221.883 55.2459 221.849 55.7132 221.769 56.1577C222.06 56.3115 222.236 56.6022 222.082 57.0125C222.026 57.1663 221.934 57.2917 221.82 57.3829C221.826 57.4114 221.832 57.4399 221.832 57.4684C221.843 57.6849 221.792 57.8787 221.695 58.0268C221.809 58.363 221.712 58.7335 221.336 59.0241C221.291 59.0583 221.245 59.0868 221.194 59.1039C221.16 59.1723 221.126 59.2349 221.086 59.2919C221.069 59.2691 221.046 59.2235 221.006 59.1552C220.841 59.1723 220.664 59.1267 220.51 59.0241C220.345 58.9158 220.3 58.7449 220.311 58.5625C220.06 58.4428 219.872 58.2434 219.798 57.9755C219.565 57.8502 219.428 57.5709 219.377 57.2119C219.36 57.115 219.024 56.9099 218.933 56.8016C218.858 56.7161 218.807 56.625 218.773 56.5338C218.762 56.5281 218.756 56.5167 218.745 56.511C218.357 56.4426 218.044 56.1919 217.924 55.8557C217.924 55.8557 217.919 55.8557 217.913 55.85C217.457 55.85 217.03 55.6562 216.814 55.2687C216.614 55.2402 216.426 55.1832 216.233 55.0977C215.925 54.961 215.674 54.7501 215.344 54.6817C214.877 54.5849 214.621 54.3341 214.586 53.9751C214.455 53.8953 214.33 53.7984 214.233 53.6902C213.818 53.7529 213.35 53.5933 213.111 53.2799C212.536 53.3711 211.909 53.2343 211.676 52.7385C211.157 52.7043 210.582 52.5448 210.423 52.1629C210.206 52.1458 209.995 52.0946 209.796 52.0205C209.694 51.9806 209.614 51.9293 209.546 51.8609C209.244 51.8609 208.936 51.7583 208.714 51.5532C208.372 51.5988 208.002 51.5646 207.723 51.3936C207.398 51.5304 206.999 51.5418 206.703 51.405C206.424 51.5247 206.088 51.519 205.826 51.3879C205.547 51.5076 205.205 51.5076 204.926 51.3879C204.641 51.6729 204.26 51.878 203.941 51.6729C203.553 51.4221 203.422 50.8181 203.65 50.4078L203.679 50.3907Z" fill="#281402"/>
<path d="M205.433 49.0749C205.433 49.0749 205.433 49.0631 205.427 49.0573C205.433 49.069 205.433 49.0749 205.433 49.0749Z" fill="#281402"/>
<path d="M105.798 59.3603C105.798 59.3603 108.356 65.7199 107.752 67.8626C107.148 70.0053 105.935 72.1081 105.935 72.1081C105.935 72.1081 105.872 76.4334 106.345 76.7696C106.823 77.1058 114.935 80.6788 116.922 80.8783C117.634 80.9467 116.535 78.0575 116.609 77.2996C116.7 76.3821 117.202 74.4502 117.076 73.6695C116.951 72.8831 117.338 71.4756 117.697 69.5722C118.483 65.435 124.02 57.1093 124.02 57.1093C124.02 57.1093 123.365 53.7243 122.732 52.4592C122.1 51.1941 117.116 46.5498 112.986 48.3448C108.857 50.1399 104.704 55.2174 105.798 59.3603Z" fill="#AB8763"/>
<path d="M124.578 54.7957L124.686 59.1437C124.686 59.1437 124.538 60.5171 123.963 61.4573C123.741 61.8164 124.208 63.3949 124.84 64.2497C125.495 65.1387 124.743 66.0162 124.743 66.0162L123.41 66.21C123.41 66.21 123.142 66.8141 123.251 67.5264C123.319 67.988 123.302 67.9937 122.784 68.4325C122.909 68.7687 122.67 69.2246 122.67 69.2246C122.67 69.2246 121.889 69.7659 122.066 70.427C122.242 71.088 122.903 71.9371 121.912 72.7235C120.744 73.3276 119.924 73.1851 119.924 73.1851C119.924 73.1851 112.65 71.1849 111.562 68.706C111.169 67.8056 110.6 66.3126 110.583 66.1929C110.52 65.7541 109.774 65.076 109.774 65.076C109.774 65.076 107.495 63.6228 107.097 61.2294C106.846 59.2577 108.014 56.8244 109.842 57.5253C110.44 57.1321 108.754 52.8524 114.405 50.7496C116.267 50.0829 123.427 50.3507 124.584 54.7957H124.578Z" fill="#C29970"/>
<path d="M125.284 53.1716C125.284 53.1716 125.643 54.3342 125.096 55.7246C123.61 57.987 122.972 53.8441 117.515 54.4025C113.744 54.79 112.724 61.0015 111.745 62.5459C111.608 61.6968 110.964 58.403 109.461 57.7362C107.957 57.0695 106.504 59.0241 107.199 62.808C108.15 66.2386 107.689 68.3243 107.501 68.0906C107.888 66.2386 106.071 64.3637 105.018 62.3179C103.406 59.1951 102.716 54.716 104.927 51.2284C107.045 48.191 108.498 48.1397 110.942 47.6611C114.456 46.3675 121.223 48.419 125.284 53.1773" fill="#341400"/>
<path d="M109.911 58.8019C109.911 58.8019 108.766 57.6337 107.934 59.7365C107.37 61.1668 108.908 62.449 109.848 62.9961C110.098 62.9277 110.429 62.7624 109.774 62.1527C109.119 61.5486 108.669 60.7109 109.21 60.5457C109.751 60.3861 110.116 58.9159 109.911 58.7962V58.8019Z" fill="#AB8763"/>
<path d="M122.362 68.1247C122.362 68.1247 121.434 68.29 120.437 68.1475C122.163 68.4097 122.778 68.4382 122.994 68.1931C123.308 67.8455 122.715 68.0621 122.356 68.1247H122.362Z" fill="#AB8763"/>
<path d="M144.679 116.284C146.599 115.326 147.607 116.894 147.578 116.124C147.556 115.429 152.164 113.868 152.164 113.868C152.164 113.868 157.626 113.48 158.264 113.554C158.908 113.628 160.514 113.497 160.765 113.885C161.021 114.278 162.4 115.64 162.4 115.64C162.4 115.64 166.421 120.729 164.9 121.487C164.017 121.84 162.73 121.139 162.73 121.139C162.73 121.139 163.368 121.595 162.576 122.228C162.058 122.558 161.448 122.575 161.448 122.575C161.448 122.575 161.67 123.077 160.827 123.55C160.326 123.829 159.7 123.629 159.7 123.629C159.7 123.629 159.893 124.524 158.224 124.444C157.25 124.251 156.669 123.909 156.629 123.789C156.59 123.664 151.23 119.703 151.23 119.703L147.111 120.558" fill="#C29970"/>
<path d="M157.393 124.78C157.393 124.78 157.609 122.889 156.641 123.037C155.957 123.191 155.661 124.125 155.593 124.302C155.473 124.598 156.299 125.595 157.393 124.78Z" fill="#8E6C52"/>
<path d="M156.487 122.877C156.487 122.877 156.749 121.492 155.262 121.903C154.829 122.068 153.992 123.39 153.992 123.39C153.992 123.39 154.078 124.729 155.564 124.319C155.564 124.319 156.339 123.396 156.487 122.877Z" fill="#8E6C52"/>
<path d="M155.035 121.931C155.035 121.931 155.342 120.489 153.645 120.928C152.437 121.401 152.289 122.427 152.289 122.427C152.289 122.427 152.266 123.88 153.969 123.436C153.969 123.436 154.864 122.467 155.035 121.925V121.931Z" fill="#8E6C52"/>
<path d="M153.28 121.094C153.178 121.008 153.018 119.857 151.771 120.113C151.457 120.17 151.771 121.988 152.762 121.709C152.973 121.567 153.28 121.094 153.28 121.094Z" fill="#8E6C52"/>
<path d="M168.17 116.512C168.078 116.489 164.228 114.757 162.656 114.312C161.38 113.953 158.287 113.229 158.287 113.229C158.287 113.229 156.59 113.406 155.137 114.232C154.978 114.324 154.294 116.62 153.793 117.076C153.952 117.475 156.003 117.68 156.35 115.839C156.857 115.828 157.911 115.515 157.911 115.515C157.911 115.515 163.624 121.054 164.342 120.928C165.06 120.803 168.79 120.472 168.79 120.472C168.79 120.472 170.38 117.11 168.17 116.506V116.512Z" fill="#8E6C52"/>
<path d="M157.911 115.657C157.911 115.657 165.174 119.743 165.316 120.826C165.424 121.532 164 121.555 163.169 121.299" fill="#C29970"/>
<path d="M169.081 115.036L166.37 115.469C166.37 115.469 164.706 118.073 166.056 121.304C165.954 121.094 168.346 121.823 168.346 121.823C168.346 121.823 168.87 116.495 169.081 115.036Z" fill="#C6E9FA"/>
<path d="M147.732 114.546L150.295 114.255C150.295 114.255 152.346 116.78 150.996 120.011C151.099 119.8 148.353 120.689 148.353 120.689C148.353 120.689 147.937 115.999 147.727 114.546H147.732Z" fill="#BBBDBF"/>
<path d="M215.213 80.941C217.349 82.2004 222.829 85.5797 213.88 100.772C207.512 111.679 199.287 119.971 196.484 121.686C195.237 122.45 181.344 124.849 167.395 122.188C167.036 122.199 166.335 117.332 167.594 114.876C169.73 113.828 189.336 113.965 191.649 111.896C192.765 110.899 193.038 111.81 193.152 110.773C193.266 109.73 194.047 109.919 194.519 109.03C194.986 108.141 200.455 96.6692 201.719 94.3214C204.51 89.1413 207.723 80.6162 215.213 80.9467V80.941Z" fill="#0071BC"/>
<path d="M208.344 76.5416C208.344 76.5416 206.339 82.0294 206.475 82.3713C206.618 82.7132 209.369 79.2542 209.027 79.1915C208.685 79.1231 208.423 76.7924 208.344 76.5416Z" fill="#C6E9FA"/>
<path d="M209.58 213.776C208.497 215.081 204.402 216.933 203.115 217.321C201.827 217.708 196.502 218.381 196.502 219.56C196.502 220.877 201.611 222.375 207.296 221.6C213.259 218.899 212.126 220.728 213.18 221.03C214.233 221.332 217.85 221.538 218.107 220.671C218.363 219.805 217.617 214.169 217.617 214.169C217.617 214.169 210.126 213.121 209.585 213.776H209.58Z" fill="#231F20"/>
<path d="M197.111 130.941C197.647 136.366 198.974 159.468 204.841 171.629C205.826 175.025 207.011 178.239 207.273 181.049C207.535 183.852 207.717 183.955 208.019 185.83C208.207 186.992 208.97 187.733 208.463 188.736C207.643 190.377 208.475 212.602 207.085 214.79C205.695 216.973 209.09 220.837 216.398 219.811C218.215 216.152 218.226 215.964 217.514 215.007C216.808 214.049 218.466 214.483 217.782 212.967C217.093 211.451 221.735 187.762 216.962 176.199C216.683 173.766 216.728 172.649 216.563 172.079C216.398 171.515 217.697 171.749 217.024 169.857C216.352 167.965 215.555 150.037 215.23 148.715C214.911 147.398 216.768 147.467 216.836 145.791C216.899 144.116 219.69 144.224 218.79 138.594C217.89 132.964 217.924 132.035 217.924 132.035L197.111 130.929V130.941Z" fill="#005E9C"/>
<path d="M210.873 220.506C209.939 221.982 205.843 224.518 204.527 225.122C203.206 225.726 197.333 225.868 197.402 227.823C197.447 229.185 203.838 231.037 209.83 229.282C213.476 227.84 216.164 227.515 217.355 227.629C218.545 227.743 221.194 226.706 221.319 225.811C221.439 224.917 219.622 219.492 219.622 219.492C219.622 219.492 211.345 219.765 210.878 220.5L210.873 220.506Z" fill="#231F20"/>
<path d="M199.8 133.779C200.335 139.209 202.779 162.796 208.645 174.957C209.631 178.353 210.816 181.567 211.078 184.377C211.34 187.186 210.913 187.135 211.112 188.292C211.568 190.919 213.083 190.417 212.274 192.064C211.465 193.711 212.285 215.93 210.895 218.118C209.506 220.301 212.9 224.165 220.208 223.139C222.025 219.48 222.037 219.292 221.325 218.335C220.619 217.378 222.276 217.811 221.593 216.295C220.903 214.779 225.546 191.09 220.772 179.527C220.493 177.094 220.539 175.977 220.374 175.407C220.208 174.843 220.772 172.25 220.1 170.364C219.428 168.472 219.61 153.165 220.459 152.111C223.358 148.498 223.985 144.321 223.552 141.039C222.806 135.386 221.729 135.374 221.729 135.374L199.8 133.779Z" fill="#005E9C"/>
<path d="M221.456 127.328C221.456 127.328 209.489 131.59 198.974 127.807C198.051 127.22 198.871 130.388 198.871 130.388C198.871 130.388 207.427 135.112 221.313 130.89C221.718 130.992 221.456 127.328 221.456 127.328Z" fill="#454547"/>
<path d="M209.135 78.7812C209.135 78.7812 199.845 93.1474 197.943 102.071C198.114 106.813 196.684 114.717 197.162 114.021C197.635 113.332 218.978 71.4869 218.978 71.4869L209.135 78.7812Z" fill="#C6E9FA"/>
<path d="M201.224 145.227C199.925 136.691 197.521 108.294 197.521 108.294L197.533 144.731L201.224 145.233V145.227Z" fill="#383638"/>
<path d="M224.355 142.822C226.816 141.688 223.472 128.735 223.774 127.493C224.076 126.251 224.327 123.949 224.11 122.644C223.677 120.034 224.674 120.461 224.577 117.635C227.135 110.192 230.433 97.222 228.365 88.4063C226.844 81.9212 218.414 70.8716 218.414 70.8716C213.903 73.9317 206.162 86.4972 201.753 94.2986C199.065 99.057 196.889 102.322 196.741 112.591C196.621 121.265 195.761 135.95 196.382 142.879C196.598 145.318 199.703 145.484 200.876 146.025C200.876 146.025 212.456 148.299 224.35 142.822H224.355Z" fill="#037ECF"/>
<path d="M206.623 83.4712C197.544 100.835 197.903 104.066 197.721 104.18C196.809 102.054 204.015 85.1523 204.015 85.1523C204.015 85.1523 204.778 83.7276 206.549 82.7133C206.965 83.1236 206.623 83.4712 206.623 83.4712Z" fill="#374993"/>
<path d="M208.253 78.4223C208.253 78.4223 206.048 81.9383 206.054 82.6962C206.054 83.4541 206.282 83.4029 206.282 83.4029C206.282 83.4029 208.549 83.4541 209.574 82.2802C210.594 81.1063 209.483 77.3851 208.253 78.4223Z" fill="#374993"/>
<path d="M218.05 69.6349C218.05 69.6349 218.648 70.2218 218.585 70.9057C218.522 71.5952 208.651 83.1748 208.651 83.1748L208.309 78.4165C208.309 78.4165 216.067 70.541 218.05 69.6349Z" fill="#C6E9FA"/>
<path d="M218.654 70.5638C219.417 70.94 219.935 71.96 220.083 72.7863C220.226 73.6126 213.333 84.8674 213.333 84.8674L209.175 84.4172L212.354 86.5941C212.354 86.5941 198.968 102.391 197.476 104.739C195.983 107.086 203.286 87.0728 210.93 79.4537C217.195 72.2563 218.659 70.5638 218.659 70.5638H218.654Z" fill="#0071BC"/>
<path d="M203.081 97.6779L209.808 95.9626L209.819 97.8603L203.103 99.7237L203.081 97.6779Z" fill="#0071BC"/>
<path d="M205.467 121.652L205.712 122.268L215.857 120.615L215.936 119.828L205.467 121.652Z" fill="#5A5B5D"/>
<path d="M205.41 122.142L216.107 120.148L216.466 123.966C216.466 123.966 216.329 124.074 215.133 124.319C213.937 124.564 206.715 126.222 206.418 126.148C206.122 126.074 205.575 122.951 205.41 122.136V122.142Z" fill="#0071BC"/>
<path d="M204.191 155.764C204.191 155.764 205.325 154.983 207.865 155.114C208.634 155.154 231.27 158.271 231.714 158.824C232.159 159.383 230.057 161.001 229.054 161.115C228.052 161.235 203.884 155.821 204.191 155.758V155.764Z" fill="#797B7D"/>
<path d="M228.559 185.539C228.559 185.539 229.271 184.195 231.327 184.542C232.973 184.821 234.175 182.485 235.816 183.021C237.764 183.659 237.878 181.237 240.504 181.357C242.503 181.448 232.706 158.551 231.652 159.2C230.598 159.85 229.647 159.958 229.687 160.642C229.721 161.326 228.001 185.186 228.559 185.545V185.539Z" fill="#434345"/>
<path d="M227.807 173.208C227.807 173.208 227.163 184.679 226.503 185.009C225.842 185.34 206.179 181.322 205.621 180.593C204.881 179.772 205.086 179.989 204.812 178.684C204.539 177.379 204.015 169.902 204.015 169.902L227.813 173.208H227.807Z" fill="#898B8D"/>
<path d="M229.544 159.713C229.544 159.713 230.171 158.961 230.575 159.713C230.98 160.471 229.618 185.083 228.787 185.63C228.029 186.132 226.195 186.366 226.041 184.622C225.791 181.727 229.647 159.428 229.544 159.707V159.713Z" fill="#737477"/>
<path d="M230.439 159.434C230.439 159.434 230.957 158.642 231.464 159.348C231.971 160.055 234.141 184.001 233.395 184.61C232.711 185.169 230.797 185.767 230.404 184.08C229.755 181.277 230.501 159.149 230.439 159.434Z" fill="#696A6C"/>
<path d="M230.467 159.411C230.467 159.411 230.843 158.608 231.452 159.206C232.056 159.804 238.083 182.491 237.45 183.152C236.875 183.756 235.03 183.978 234.38 182.451C233.298 179.903 230.484 159.138 230.467 159.411Z" fill="#5C5D60"/>
<path d="M231.151 159.246C231.151 159.246 231.396 158.425 232.096 158.932C232.797 159.44 242.457 180.639 241.933 181.351C241.455 182 239.655 182.439 238.761 181.037C237.268 178.707 231.122 158.984 231.151 159.246Z" fill="#454547"/>
<path d="M212.445 156.038C212.445 156.038 212.365 152.858 214.023 151.997C215.68 151.142 221.342 150.288 222.806 157.502C222.054 158.306 220.784 157.4 220.784 157.4C220.784 157.4 220.829 154.795 219.269 153.559C217.178 151.9 213.914 151.501 213.892 155.998C213.687 156.556 212.673 156.374 212.439 156.038H212.445Z" fill="#231F20"/>
<path d="M204.003 155.644C205.188 155.399 228.046 159.286 228.28 159.234C228.513 159.189 229.681 160.505 229.504 161.189C229.322 161.873 227.659 175.117 226.571 175.339C225.483 175.561 203.491 171.663 202.904 171.555C201.89 171.373 203.081 157.776 203.081 157.776C203.081 157.776 203.081 155.832 204.009 155.644H204.003Z" fill="#96999B"/>
<path d="M213.02 171.618C213.02 171.618 212.952 172.968 213.778 174.957C213.937 175.344 216.609 175.766 217.047 175.578C217.48 175.384 217.714 172.307 217.492 172.199C217.264 172.091 213.362 171.293 213.026 171.623L213.02 171.618Z" fill="#D4D6D7"/>
<path d="M215.333 141.341C215.333 141.341 214.222 144.674 213.857 145.649C213.487 146.623 212.923 148.806 212.923 148.806C212.923 148.806 211.847 151.479 212.206 152.197C212.564 152.915 213.282 154.1 214.319 154.658C214.712 154.898 215.692 155.046 215.999 154.522C215.954 154.601 216.791 154.755 217.235 154.47C217.286 154.47 217.998 154.681 218.386 154.254C218.192 154.316 219.383 154.619 219.61 154.032C219.65 153.604 219.508 151.53 219.508 151.53L220.362 147.706C220.362 147.706 220.704 145.763 219.553 142.053C219.326 141.723 215.333 141.341 215.333 141.341Z" fill="#8E6C52"/>
<path d="M216.848 142.327L219.924 141.968C219.924 141.968 220.305 143.033 219.992 143.238C219.679 143.449 216.62 144.025 216.62 144.025L216.848 142.327Z" fill="#C0C1C3"/>
<path d="M217.241 142.697C217.321 143.677 216.592 144.543 215.606 144.623C214.626 144.703 213.761 143.974 213.681 142.988C213.601 142.007 214.33 141.141 215.316 141.062C216.295 140.982 217.161 141.711 217.241 142.697Z" fill="#DFE0E1"/>
<path d="M216.768 142.697C216.825 143.421 216.29 144.053 215.566 144.11C214.843 144.167 214.211 143.632 214.154 142.908C214.097 142.184 214.632 141.552 215.355 141.495C216.079 141.438 216.711 141.973 216.768 142.697Z" fill="#D0D2D3"/>
<path d="M214.074 89.1015C214.074 89.1015 215.504 79.8355 221.097 81.3685C224.065 82.417 229.658 87.6313 227.864 103.491C227.545 116.421 227.118 118.284 227.027 118.996C226.879 120.176 224.805 128.81 221.012 142.047C220.351 142.498 217.326 143.267 213.988 141.352C214.569 139.5 216.591 123.795 216.888 121.287C217.178 118.78 217.993 120.205 217.44 119.549C216.888 118.9 217.736 118.33 217.474 117.56C217.212 116.785 215.959 101.211 215.281 99.1425C213.783 94.5893 214.068 89.1015 214.068 89.1015H214.074Z" fill="#0071BC"/>
<path d="M222.544 137.323C222.493 137.654 222.305 137.904 222.122 137.876C221.94 137.847 221.832 137.557 221.883 137.221C221.934 136.89 222.122 136.639 222.305 136.668C222.487 136.696 222.595 136.987 222.544 137.323Z" fill="#5A5B5D"/>
<path d="M222.242 138.469C222.191 138.799 222.003 139.05 221.82 139.021C221.638 138.993 221.53 138.702 221.581 138.366C221.632 138.035 221.82 137.785 222.003 137.813C222.185 137.842 222.293 138.132 222.242 138.469Z" fill="#5A5B5D"/>
<path d="M221.974 139.677C221.923 140.007 221.735 140.258 221.553 140.229C221.37 140.201 221.262 139.91 221.314 139.574C221.365 139.244 221.553 138.993 221.735 139.021C221.917 139.05 222.026 139.341 221.974 139.677Z" fill="#5A5B5D"/>
<path d="M116.7 76.8152C116.7 76.8152 118.495 81.9439 118.352 82.2859C118.21 82.6278 115.476 79.1516 115.817 79.0889C116.159 79.0263 116.615 77.0602 116.7 76.8152Z" fill="#BBBDBF"/>
<path d="M115.988 213.098C117.076 214.403 121.177 216.238 122.465 216.625C123.752 217.007 129.078 217.668 129.083 218.848C129.089 220.164 123.98 221.674 118.295 220.922C112.326 218.238 113.465 220.062 112.411 220.369C111.357 220.671 107.74 220.888 107.484 220.022C107.228 219.156 107.957 213.52 107.957 213.52C107.957 213.52 115.441 212.448 115.988 213.104V213.098Z" fill="#231F20"/>
<path d="M128.201 130.228C127.682 135.659 126.423 158.762 120.591 170.945C119.611 174.342 118.443 177.561 118.187 180.371C117.931 183.18 117.748 183.277 117.452 185.158C117.27 186.32 116.507 187.061 117.014 188.064C117.839 189.699 117.076 211.93 118.472 214.112C119.867 216.289 116.489 220.164 109.176 219.161C107.347 215.508 107.336 215.32 108.042 214.357C108.749 213.394 107.091 213.839 107.769 212.317C108.452 210.796 103.736 187.124 108.475 175.55C108.749 173.116 108.697 171.999 108.862 171.43C109.028 170.865 107.729 171.105 108.395 169.213C109.062 167.321 109.808 149.387 110.127 148.065C110.446 146.749 108.583 146.823 108.515 145.147C108.447 143.472 105.656 143.586 106.539 137.956C107.421 132.326 107.382 131.391 107.382 131.391L128.195 130.223L128.201 130.228Z" fill="#005E9C"/>
<path d="M114.712 219.834C115.652 221.304 119.753 223.828 121.075 224.432C122.396 225.036 128.269 225.156 128.212 227.111C128.172 228.473 121.787 230.342 115.789 228.61C112.143 227.179 109.449 226.86 108.259 226.98C107.068 227.099 104.414 226.068 104.294 225.173C104.169 224.279 105.969 218.848 105.969 218.848C105.969 218.848 114.245 219.093 114.712 219.828V219.834Z" fill="#231F20"/>
<path d="M125.523 133.072C125.005 138.503 122.63 162.101 116.803 174.279C115.829 177.675 114.655 180.895 114.399 183.704C114.143 186.514 114.576 186.462 114.376 187.619C113.926 190.246 112.417 189.751 113.231 191.397C114.046 193.044 113.294 215.263 114.69 217.446C116.085 219.628 112.707 223.498 105.394 222.495C103.565 218.842 103.554 218.654 104.26 217.691C104.966 216.728 103.309 217.172 103.987 215.651C104.67 214.129 99.9539 190.457 104.693 178.883C104.966 176.45 104.915 175.333 105.08 174.763C105.245 174.199 104.67 171.612 105.337 169.72C106.003 167.828 105.775 152.521 104.921 151.467C102.01 147.86 101.372 143.683 101.794 140.406C102.523 134.753 103.599 134.736 103.599 134.736L125.529 133.078L125.523 133.072Z" fill="#005E9C"/>
<path d="M103.132 127.157C103.132 127.157 115.077 131.482 125.615 127.761C126.543 127.18 125.7 130.342 125.7 130.342C125.7 130.342 117.122 135.021 103.252 130.719C102.848 130.821 103.132 127.157 103.132 127.157Z" fill="#454547"/>
<path d="M115.721 78.6787C115.721 78.6787 124.931 93.0962 126.788 102.032C126.589 106.773 127.978 114.683 127.506 113.987C127.033 113.292 105.923 71.3331 105.923 71.3331L115.726 78.6787H115.721Z" fill="#BBBDBF"/>
<path d="M123.268 145.17C124.612 136.639 127.175 108.255 127.175 108.255L126.965 144.686L123.274 145.165L123.268 145.17Z" fill="#383638"/>
<path d="M100.148 142.64C97.6926 141.495 101.105 128.559 100.814 127.316C100.524 126.074 100.284 123.766 100.506 122.461C100.951 119.857 99.9539 120.273 100.062 117.452C97.5445 109.993 94.3148 97.0055 96.4338 88.2011C97.9888 81.7274 106.482 70.7234 106.482 70.7234C110.976 73.8063 118.648 86.4174 123.011 94.2416C125.677 99.0171 127.836 102.288 127.921 112.557C127.995 121.23 128.776 135.921 128.115 142.845C127.882 145.279 124.783 145.427 123.604 145.962C123.604 145.962 112.012 148.173 100.148 142.634V142.64Z" fill="#0071BC"/>
<path d="M118.204 83.3858C127.187 100.795 126.811 104.032 126.993 104.146C127.916 102.026 120.801 85.084 120.801 85.084C120.801 85.084 120.05 83.6536 118.278 82.6335C117.862 83.0381 118.198 83.3915 118.198 83.3915L118.204 83.3858Z" fill="#1A1A1A"/>
<path d="M116.643 78.4165C116.643 78.4165 118.785 81.8528 118.779 82.6107C118.768 83.3686 118.546 83.3173 118.546 83.3173C118.546 83.3173 116.279 83.3572 115.265 82.1719C114.251 80.9923 115.424 77.368 116.649 78.4108L116.643 78.4165Z" fill="#1A1A1A"/>
<path d="M106.852 69.5836C106.852 69.5836 106.248 70.068 106.311 70.7575C106.368 71.4471 116.176 83.0837 116.176 83.0837L116.546 78.3253C116.546 78.3253 108.834 70.5068 106.852 69.5836Z" fill="#BBBDBF"/>
<path d="M106.242 70.4099C105.479 70.7803 104.949 71.8004 104.801 72.6267C104.653 73.4473 111.483 84.742 111.483 84.742L115.646 84.3146L112.457 86.4743C112.457 86.4743 125.757 102.345 127.238 104.704C128.719 107.063 121.525 87.0043 113.926 79.3454C107.7 72.1138 106.242 70.4099 106.242 70.4099Z" fill="#005E9C"/>
<path d="M121.667 97.6095L114.952 95.8544L114.934 97.7577L121.639 99.6554L121.667 97.6095Z" fill="#0071BC"/>
<path d="M119.15 121.572L118.899 122.182L108.766 120.472L108.692 119.686L119.15 121.572Z" fill="#383638"/>
<path d="M119.201 122.062L108.515 120.011L108.133 123.829C108.133 123.829 108.27 123.937 109.466 124.188C110.662 124.439 117.874 126.137 118.17 126.068C118.466 125.994 119.03 122.877 119.201 122.062Z" fill="#0071BC"/>
<path d="M101.235 84.1323C97.5729 84.3488 93.3579 89.9449 102.83 103.787C109.574 113.731 118.341 121.099 121.109 122.547C122.339 123.191 137.126 124.239 149.669 120.98C150.011 120.968 150.364 116.301 149.008 114.05C146.359 113.913 128.599 114.962 126.275 113.15C125.147 112.272 124.669 112.791 124.492 111.811C124.316 110.83 123.587 111.058 123.085 110.243C122.584 109.434 116.655 98.8974 115.299 96.749C112.314 92.0135 108.333 83.3402 101.247 84.1323H101.235Z" fill="#037ECF"/>
<path d="M146.57 121.692C146.246 121.777 145.944 121.698 145.898 121.521C145.853 121.344 146.08 121.128 146.405 121.048C146.73 120.962 147.032 121.042 147.077 121.219C147.123 121.395 146.895 121.612 146.57 121.692Z" fill="#383638"/>
<path d="M145.397 121.868C145.072 121.954 144.77 121.874 144.725 121.697C144.679 121.521 144.907 121.304 145.232 121.225C145.556 121.139 145.858 121.219 145.904 121.395C145.949 121.572 145.721 121.789 145.397 121.868Z" fill="#383638"/>
<path d="M144.189 122.096C143.865 122.182 143.563 122.102 143.517 121.925C143.472 121.749 143.699 121.532 144.024 121.447C144.349 121.361 144.651 121.441 144.696 121.618C144.742 121.794 144.514 122.011 144.189 122.091V122.096Z" fill="#383638"/>
<path opacity="0.11" d="M209.5 230C217.508 230 224 229.328 224 228.5C224 227.672 217.508 227 209.5 227C201.492 227 195 227.672 195 228.5C195 229.328 201.492 230 209.5 230Z" fill="#204B85"/>
<path opacity="0.11" d="M117.5 230C125.508 230 132 229.328 132 228.5C132 227.672 125.508 227 117.5 227C109.492 227 103 227.672 103 228.5C103 229.328 109.492 230 117.5 230Z" fill="#204B85"/>
</g>
<defs>
<clipPath id="clip0_65_448">
<rect width="263" height="230" fill="white" transform="translate(13)"/>
</clipPath>
<clipPath id="clip1_65_448">
<rect width="271" height="183" fill="white" transform="translate(0 47)"/>
</clipPath>
</defs>
</svg>
