<svg width="40" height="42" viewBox="0 0 40 42" fill="none" xmlns="http://www.w3.org/2000/svg">
<g clip-path="url(#clip0_612_1089)">
<path d="M20 42.0001C13.6749 42.0001 7.33606 42.0001 1.01092 42.0001C0.109283 42.0001 -0.15028 41.679 0.0819606 40.836C0.573764 38.9628 1.01092 37.0629 1.59835 35.2164C2.71857 31.6707 5.20491 29.5566 8.9071 28.794C9.65846 28.6334 10.4235 28.513 11.1885 28.3792C11.6803 28.2855 12.0628 28.5264 12.1448 28.9412C12.2131 29.3426 11.9535 29.6369 11.4754 29.7573C11.1066 29.851 10.5464 29.7306 10.4235 30.0383C10.3142 30.3059 10.6284 30.7341 10.7514 31.0953C10.888 31.4834 11.0519 31.858 11.1885 32.246C11.3525 32.701 11.2295 33.0355 10.7787 33.2094C9.60382 33.6777 8.42896 34.1326 7.25409 34.5875C6.81693 34.7615 6.48906 34.6009 6.28415 34.1594C6.01092 33.584 5.72404 32.9953 5.4918 32.4066C5.32786 31.9918 5.20491 32.0721 4.94535 32.3263C3.94808 33.3298 3.26502 34.5073 2.89617 35.8586C2.49999 37.3171 2.13114 38.7889 1.73497 40.2607C1.653 40.5417 1.70764 40.6219 2.02185 40.6219C7.66393 40.6086 13.3197 40.6086 18.9617 40.6219C19.2213 40.6219 19.3169 40.5684 19.3169 40.2874C19.3033 37.5445 19.3033 34.8016 19.3169 32.0587C19.3169 31.858 19.2486 31.7376 19.112 31.6038C18.0328 30.5601 16.9535 29.5031 15.888 28.4461C15.7104 28.2722 15.5874 28.2454 15.3688 28.3792C14.5355 28.9144 14.5355 28.901 15.0137 29.7573C15.8743 31.2693 16.7213 32.7946 17.5956 34.3066C17.7459 34.5742 17.7732 34.708 17.459 34.8685C16.5437 35.3502 16.5574 35.3636 16.0519 34.4671C15.0683 32.7411 14.0847 31.0017 13.1011 29.2757C12.7459 28.6468 12.8142 28.3926 13.4016 28.0046C13.9891 27.6165 14.5628 27.2419 15.1503 26.8672C15.7104 26.506 15.9426 26.5327 16.4344 27.001C17.5137 28.0581 18.6202 29.1151 19.6858 30.1989C19.9863 30.5066 20.1366 30.4531 20.4098 30.1855C21.4754 29.1151 22.5683 28.0581 23.6612 26.9877C24.1257 26.5327 24.3579 26.506 24.9044 26.8539C25.5191 27.2419 26.1202 27.6433 26.7213 28.0447C27.2268 28.3792 27.3087 28.6736 27.0219 29.1954C25.9153 31.1622 24.7951 33.1157 23.6885 35.0826C23.5519 35.3234 23.4563 35.3368 23.2104 35.2164C22.2541 34.708 22.2541 34.708 22.7869 33.7847C23.6339 32.2862 24.4809 30.7742 25.3552 29.2757C25.4918 29.0348 25.4918 28.9144 25.2459 28.7538C24.4262 28.232 24.4399 28.2186 23.7568 28.8876C22.8415 29.7841 21.9262 30.6806 21.0109 31.577C20.847 31.7376 20.7514 31.8981 20.7514 32.139C20.765 34.8418 20.765 37.5312 20.7514 40.2339C20.7514 40.5684 20.8607 40.6487 21.1749 40.6353C21.9945 40.6086 22.8142 40.6219 23.6339 40.6353C23.9071 40.6353 23.9891 40.555 23.9891 40.2874C23.9754 39.4311 23.9891 38.5614 23.9754 37.7051C23.9754 37.4643 24.0301 37.384 24.2896 37.384C26.4617 37.3974 28.6339 37.3974 30.8197 37.384C31.0929 37.384 31.1339 37.4776 31.1339 37.7185C31.1202 38.5614 31.1339 39.4044 31.1202 40.2607C31.1202 40.5149 31.1475 40.6487 31.4754 40.6487C33.6749 40.6353 35.888 40.6353 38.0874 40.6487C38.3606 40.6487 38.4153 40.5818 38.347 40.3276C37.9098 38.7086 37.5 37.0762 37.0355 35.4706C36.6803 34.2397 35.9699 33.196 35.0546 32.2862C34.7951 32.032 34.7131 32.0855 34.5902 32.3798C34.3443 32.9686 34.071 33.5573 33.7978 34.1326C33.5519 34.6678 33.2377 34.7882 32.6776 34.5742C31.571 34.146 30.4645 33.7178 29.3716 33.2763C28.8251 33.0622 28.6885 32.7545 28.8934 32.1925C29.1257 31.5636 29.3579 30.9348 29.6175 30.3059C29.7268 30.0383 29.6721 29.9447 29.3852 29.9179C29.071 29.8911 28.7705 29.8242 28.4699 29.7573C28.0874 29.6637 27.8552 29.3292 27.9098 28.9679C27.9645 28.6067 28.306 28.3123 28.6749 28.3792C30.4098 28.7003 32.1858 28.8475 33.7841 29.6771C36.2158 30.9482 37.8005 32.8749 38.5246 35.4706C39.0301 37.2636 39.4809 39.0832 39.959 40.8896C40.1639 41.6924 39.9044 42.0135 39.071 42.0135C32.6913 42.0001 26.3525 42.0001 20 42.0001ZM27.4863 40.5952C28.1011 40.5952 28.7022 40.5818 29.3169 40.5952C29.5492 40.5952 29.6721 40.555 29.6585 40.2874C29.6311 39.886 29.6448 39.4713 29.6585 39.0699C29.6721 38.8156 29.5902 38.7487 29.3306 38.7487C28.1147 38.7621 26.8852 38.7621 25.6694 38.7487C25.4508 38.7487 25.3415 38.7889 25.3552 39.0297C25.3688 39.4579 25.3688 39.8727 25.3552 40.3008C25.3415 40.5283 25.4235 40.5952 25.6557 40.5952C26.2705 40.5818 26.8852 40.5952 27.4863 40.5952ZM33.4973 31.2291C33.4973 31.1221 33.429 31.0686 33.347 31.0284C32.7322 30.6806 32.0628 30.4397 31.3661 30.2658C31.1612 30.2123 31.0792 30.3193 31.0109 30.4799C30.847 30.9482 30.6694 31.4031 30.4781 31.858C30.3962 32.0721 30.4372 32.1791 30.6557 32.246C31.0656 32.3932 31.4617 32.5538 31.8579 32.7143C32.6776 33.0355 32.6776 33.0355 33.0328 32.2594C33.1831 31.9249 33.347 31.577 33.4973 31.2291ZM8.70218 30.2524C7.96447 30.4263 7.25409 30.6806 6.59835 31.0552C6.44808 31.1355 6.51639 31.2425 6.55737 31.3496C6.77595 31.8312 6.99453 32.2996 7.19945 32.7946C7.28141 32.9953 7.3907 33.0087 7.58196 32.9418C8.15573 32.701 8.74316 32.4869 9.31693 32.2594C9.52185 32.1791 9.59016 32.0855 9.50819 31.8714C9.31693 31.4165 9.153 30.9482 8.9754 30.4799C8.93442 30.3728 8.9071 30.2123 8.70218 30.2524Z" fill="#424242"/>
<path d="M20 15.3871C17.582 15.3871 15.1776 15.3871 12.7596 15.3871C11.9945 15.3871 11.694 15.1596 11.8033 14.4237C11.9945 13.0322 11.5437 11.9217 10.5328 10.9449C9.90437 10.3428 9.41256 9.62029 8.85245 8.96466C8.56557 8.63016 8.51092 8.32242 8.71584 7.92102C9.3989 6.62315 10.0546 5.32529 10.7104 4.01404C10.847 3.74644 11.0246 3.5725 11.3115 3.46546C14.071 2.34154 16.8306 1.21761 19.5902 0.0803056C19.8907 -0.0401149 20.1503 -0.0401149 20.4508 0.0803056C23.1967 1.20423 25.9426 2.32816 28.6885 3.4387C29.0027 3.55912 29.194 3.75982 29.3443 4.05418C29.9863 5.32529 30.6147 6.59639 31.2841 7.84074C31.5164 8.28228 31.4754 8.61678 31.1612 8.99142C30.2596 10.0351 29.3852 11.1189 28.4973 12.1625C28.306 12.3766 28.2377 12.604 28.2514 12.8716C28.265 13.4068 28.265 13.9554 28.2514 14.4906C28.2514 15.1195 28.0055 15.3603 27.3497 15.3603C24.877 15.3871 22.4453 15.3871 20 15.3871ZM16.4344 7.76046C16.4344 7.62666 16.4481 7.49286 16.4344 7.37244C16.3661 6.98441 16.53 6.78371 16.8989 6.62315C17.8005 6.23513 18.6749 5.79359 19.5492 5.37881C19.8224 5.24501 20.082 5.19149 20.3552 5.32529C21.2841 5.76683 22.2268 6.20837 23.1694 6.66329C23.4426 6.79709 23.5792 7.02456 23.5792 7.3323C23.5792 7.98792 23.5792 8.64354 23.4563 9.29916C23.4016 9.59353 23.4426 9.70057 23.7568 9.75409C25.0137 9.98155 26.2568 10.316 27.3361 11.0252C27.5546 11.1724 27.6229 11.0118 27.7186 10.8914C28.3743 10.1153 29.0164 9.32592 29.6721 8.56326C29.8497 8.36256 29.8497 8.202 29.7268 7.98792C29.2076 6.9978 28.7022 6.00767 28.2104 5.01755C28.1147 4.81685 27.9781 4.69643 27.7732 4.61615C25.2732 3.59926 22.7732 2.58238 20.2869 1.55211C20.0956 1.47183 19.9317 1.47183 19.7404 1.55211C17.2404 2.58238 14.7541 3.59926 12.2541 4.61615C12.0902 4.68305 11.9399 4.74995 11.8579 4.92389C11.3388 5.96753 10.806 7.01118 10.2596 8.05482C10.1776 8.21538 10.1776 8.3358 10.3005 8.48298C10.9973 9.29916 11.6803 10.1287 12.3634 10.9583C12.4453 11.052 12.5 11.1456 12.6503 11.0386C13.7841 10.2893 15.082 9.96817 16.4071 9.71395C16.612 9.67381 16.6257 9.58015 16.5984 9.41959C16.4754 8.871 16.4344 8.32242 16.4344 7.76046ZM19.9863 13.9822C21.8306 13.9822 23.6749 13.9822 25.5191 13.9822C25.929 13.9822 26.4754 14.1561 26.7213 13.9019C26.9672 13.6477 26.7623 13.1259 26.8033 12.7245C26.8306 12.4435 26.7213 12.2695 26.4754 12.1224C25.4235 11.5069 24.2486 11.2527 23.0601 11.0252C22.8825 10.9984 22.8142 11.0787 22.7459 11.1991C22.1858 12.0421 21.3798 12.604 20.5191 13.0991C20.1503 13.3132 19.8361 13.2998 19.4809 13.0857C18.6202 12.5773 17.8142 12.0153 17.2541 11.1724C17.1721 11.052 17.1038 10.9717 16.9399 11.0118C15.888 11.2259 14.8497 11.44 13.8798 11.9217C13.4153 12.1491 13.1011 12.4167 13.2104 12.9921C13.2514 13.1928 13.2377 13.4068 13.2104 13.6075C13.1694 13.9287 13.306 13.9956 13.6066 13.9822C15.724 13.9822 17.8552 13.9822 19.9863 13.9822ZM22.1175 8.202C22.2131 7.85412 22.0902 7.6668 21.776 7.533C21.1749 7.29216 20.5874 6.78371 20 6.78371C19.4126 6.78371 18.8251 7.2654 18.2377 7.54638C18.1694 7.57314 18.1011 7.61328 18.0328 7.64004C17.8962 7.68018 17.8688 7.77384 17.8688 7.90764C17.8688 9.43297 18.265 10.7576 19.7131 11.5872C19.9454 11.721 20.0956 11.721 20.3142 11.5872C21.612 10.8111 22.1311 9.63367 22.1175 8.202Z" fill="#424242"/>
<path d="M19.9863 27.3087C17.7459 27.2552 16.0656 26.2785 15.0819 24.2313C14.6175 23.268 14.153 22.318 13.6885 21.3412C13.5382 21.0067 13.3197 20.7525 12.9918 20.5786C12.2814 20.1905 11.8716 19.5884 11.7486 18.8124C11.6393 18.0765 11.4617 17.3406 11.7623 16.6181C11.9535 16.1498 12.4044 15.9624 12.8005 16.2033C13.1147 16.3906 13.2377 16.685 13.1147 17.0329C12.9098 17.635 13.1011 18.2103 13.1967 18.799C13.2513 19.0666 13.4426 19.2539 13.6885 19.3877C14.3033 19.7089 14.7131 20.2039 15 20.8328C15.4508 21.8095 15.9289 22.7863 16.4071 23.763C17.1311 25.2214 18.347 25.9172 19.9863 25.9172C21.6257 25.9172 22.8415 25.2214 23.5656 23.7496C24.0437 22.7729 24.5218 21.8095 24.9727 20.8194C25.2595 20.2173 25.6557 19.7222 26.2568 19.4145C26.5847 19.2406 26.7896 18.973 26.8169 18.6251C26.8716 18.0765 27.0355 17.5413 26.8442 16.9793C26.7213 16.6047 26.9399 16.2702 27.3087 16.1498C27.6639 16.0293 28.0191 16.2033 28.183 16.5645C28.7705 17.8223 28.1421 19.9096 26.9399 20.6321C26.653 20.806 26.4481 21.0335 26.3115 21.3412C25.847 22.318 25.3688 23.2947 24.9044 24.2715C23.9344 26.2785 22.2814 27.2418 19.9863 27.3087Z" fill="#424242"/>
</g>
<defs>
<clipPath id="clip0_612_1089">
<rect width="40" height="42" fill="white"/>
</clipPath>
</defs>
</svg>
