<svg width="40" height="40" viewBox="0 0 40 40" fill="none" xmlns="http://www.w3.org/2000/svg">
<g clip-path="url(#clip0_1080_95)">
<path d="M40 30.6582C39.5697 31.3515 38.9558 31.8639 38.3993 32.4367C38.2444 32.5934 38.0206 32.5995 37.8084 32.5995C37.2748 32.5995 36.7412 32.6055 36.2077 32.5995C35.5766 32.5934 35.3356 32.3402 35.3299 31.677C35.3241 30.2422 35.3184 28.8073 35.3356 27.3724C35.3413 27.0589 35.2438 26.9805 34.9627 26.9866C33.9988 26.9926 33.9988 26.9805 33.9988 27.9753C33.9988 29.6694 33.9988 31.3635 33.9988 33.0576C33.9988 33.757 33.7751 33.9982 33.1095 33.9982C26.8158 33.9982 20.522 33.9982 14.2282 34.0042C13.8381 34.0042 13.5684 33.8535 13.3561 33.5098C12.6447 32.3643 11.9161 31.2369 11.2046 30.0914C11.067 29.8684 10.9178 29.784 10.6653 29.79C9.64985 29.8021 8.63435 29.796 7.62459 29.796C6.91891 29.796 6.70089 29.5609 6.70089 28.8073C6.70089 27.6437 6.68942 26.4862 6.70663 25.3226C6.71237 24.9729 6.60336 24.8945 6.28781 24.9006C5.36411 24.9187 5.36411 24.9006 5.36411 25.8531C5.36411 26.866 5.36411 27.8728 5.36411 28.8857C5.36411 29.5488 5.15183 29.79 4.5322 29.796C3.75193 29.8081 2.97167 29.8081 2.1914 29.796C1.6062 29.79 1.37671 29.5307 1.37097 28.9037C1.37097 27.1011 1.37097 25.2924 1.38244 23.4898C1.38244 23.1642 1.34802 22.8688 1.13574 22.6216C0.177616 21.5244 -0.12646 20.2282 0.0456585 18.7692C0.0743449 18.516 0.114506 18.2929 0.246463 18.0819C0.642335 17.473 1.03247 16.858 1.41113 16.2431C1.60046 15.9356 1.84142 15.803 2.1914 15.809C2.97167 15.8211 3.75193 15.809 4.5322 15.815C5.14609 15.8211 5.36411 16.0502 5.36984 16.7133C5.37558 17.9131 5.38132 19.1189 5.36411 20.3186C5.35837 20.6261 5.45017 20.7105 5.73703 20.7105C6.70089 20.7105 6.70089 20.7225 6.70089 19.7157C6.70089 18.733 6.70089 17.7503 6.70089 16.7616C6.70089 16.0381 6.92464 15.809 7.61312 15.809C8.58845 15.809 9.56379 15.7909 10.5391 15.8211C10.9006 15.8331 11.0956 15.7005 11.285 15.393C11.9562 14.2897 12.6734 13.2106 13.3504 12.1133C13.5741 11.7516 13.8495 11.6008 14.2569 11.6069C15.3986 11.625 16.546 11.6069 17.6878 11.6189C17.9287 11.6189 18.0263 11.5586 18.032 11.2753C18.0492 10.2082 18.0607 10.2082 17.0567 10.2082C15.9149 10.2082 14.7675 10.2082 13.6258 10.2082C12.9201 10.2082 12.7021 9.97304 12.7021 9.21943C12.7021 8.45376 12.6963 7.68809 12.7021 6.92242C12.6963 6.26527 12.9373 6 13.5741 6C17.8771 6 22.18 6 26.4887 6C27.1026 6 27.3493 6.26527 27.3551 6.89228C27.3608 7.70015 27.3608 8.50199 27.3551 9.30986C27.3493 9.94289 27.1084 10.1961 26.4945 10.2021C25.1405 10.2082 23.7922 10.2142 22.4382 10.1961C22.1169 10.1901 22.0137 10.2805 22.0194 10.6242C22.0366 11.6008 22.0194 11.6008 22.9603 11.6008C23.907 11.6008 24.8593 11.6129 25.806 11.5948C26.2191 11.5888 26.483 11.7516 26.7067 12.1073C27.4067 13.2407 28.1353 14.356 28.8353 15.4895C28.9787 15.7246 29.1393 15.809 29.4033 15.803C30.654 15.7909 31.899 15.7969 33.1497 15.7969C33.7751 15.7969 33.9988 16.0321 33.9988 16.6832C34.0046 18.1301 34.0046 19.5831 33.9931 21.03C33.9931 21.3194 34.0734 21.3978 34.3431 21.3978C35.3299 21.3978 35.3299 21.4038 35.3299 20.3608C35.3299 19.6253 35.3299 18.8837 35.3299 18.1482C35.3356 17.4428 35.5594 17.2077 36.2134 17.2017C36.7699 17.2017 37.3322 17.2077 37.8887 17.2017C38.1067 17.2017 38.3075 17.2499 38.4624 17.4127C38.9788 17.9673 39.5525 18.4677 39.9943 19.0947C40 22.9532 40 26.8057 40 30.6582ZM22.1571 32.5995C24.6299 32.5995 27.0969 32.5934 29.5696 32.6055C29.9311 32.6055 30.0172 32.503 30.0172 32.1292C30.0057 27.5231 30.0114 22.9171 30.0057 18.317C30.0057 17.9613 30.1147 17.4971 29.9483 17.2861C29.7475 17.0389 29.2885 17.1956 28.9443 17.2077C28.5083 17.2258 28.2157 17.057 27.9747 16.6711C27.2805 15.5377 26.5518 14.4224 25.8462 13.2889C25.7199 13.0839 25.5822 12.9995 25.347 12.9995C21.7956 13.0056 18.25 13.0056 14.6986 12.9995C14.4634 12.9995 14.3257 13.0779 14.1938 13.2829C13.4766 14.4344 12.7365 15.5799 12.0193 16.7314C11.8128 17.063 11.5546 17.2137 11.176 17.2077C10.2523 17.1956 9.32856 17.2137 8.40486 17.1956C8.13521 17.1896 8.02046 17.2378 8.02046 17.5694C8.03194 21.0541 8.03194 24.5388 8.02046 28.0235C8.02046 28.3129 8.10079 28.3973 8.37617 28.3913C9.2884 28.3792 10.1949 28.3973 11.1071 28.3792C11.5431 28.3672 11.8357 28.542 12.071 28.9279C12.7537 30.0432 13.4709 31.1284 14.1536 32.2437C14.3142 32.503 14.4864 32.5995 14.779 32.5995C17.246 32.5934 19.7015 32.5995 22.1571 32.5995ZM36.6609 24.9006C36.6609 26.866 36.6609 28.8314 36.6666 30.7968C36.6666 30.9415 36.5749 31.1766 36.8216 31.1827C37.2748 31.2008 37.7625 31.3274 38.0895 30.8149C38.1928 30.6582 38.3362 30.5315 38.4739 30.411C38.6231 30.2783 38.6747 30.1216 38.6747 29.9106C38.669 26.5645 38.669 23.2185 38.669 19.8785C38.669 19.77 38.7091 19.6434 38.6288 19.565C38.1756 19.1189 37.8657 18.4436 37.051 18.5883C36.7642 18.6365 36.6552 18.6727 36.6609 19.0043C36.6724 20.9697 36.6609 22.9351 36.6609 24.9006ZM31.3367 24.9186C31.3367 27.1614 31.3367 29.3981 31.3367 31.6409C31.3367 32.5995 31.3367 32.5814 32.2432 32.6055C32.5932 32.6115 32.6735 32.509 32.6735 32.1473C32.662 27.487 32.6678 22.8266 32.6678 18.1663C32.6678 17.1956 32.6678 17.2077 31.7383 17.1896C31.417 17.1836 31.3253 17.274 31.331 17.6177C31.3482 20.0594 31.3367 22.489 31.3367 24.9186ZM4.03306 22.8206C4.03306 21.0722 4.02732 19.3238 4.0388 17.5815C4.0388 17.268 3.94126 17.2378 3.67161 17.1956C2.74218 17.051 2.06518 17.3343 1.70947 18.2929C1.68652 18.3532 1.64636 18.4135 1.60046 18.4617C1.40539 18.6908 1.39392 18.9621 1.36523 19.2515C1.27917 20.1136 1.47998 20.8552 2.01928 21.5123C2.19713 21.7294 2.31762 21.9886 2.47826 22.2237C2.65038 22.4649 2.70775 22.7241 2.70775 23.0256C2.70201 24.4725 2.70201 25.9194 2.70201 27.3664C2.70201 28.4154 2.70201 28.4033 3.7003 28.4033C3.98716 28.4033 4.0388 28.3009 4.0388 28.0235C4.02732 26.2872 4.03306 24.5569 4.03306 22.8206ZM19.9769 8.80343C21.6924 8.80343 23.4078 8.80343 25.1233 8.80343C26.024 8.80343 26.0068 8.80343 26.0297 7.86896C26.0412 7.49516 25.9437 7.39267 25.5822 7.39267C22.0366 7.40473 18.491 7.3987 14.9396 7.3987C14.0159 7.3987 14.0274 7.3987 14.0159 8.39347C14.0102 8.713 14.0962 8.80946 14.406 8.80946C16.2649 8.7974 18.1238 8.80343 19.9769 8.80343ZM33.9988 24.1952C33.9988 24.3037 33.9988 24.4122 33.9988 24.5207C33.9988 25.6542 33.9988 25.6421 35.0659 25.5939C35.2668 25.5818 35.3356 25.5215 35.3299 25.3105C35.3184 24.8222 35.3241 24.3278 35.3241 23.8395C35.3241 22.7422 35.3241 22.7422 34.2742 22.7905C34.2627 22.7905 34.2455 22.7905 34.234 22.7905C34.0505 22.7663 33.9816 22.8507 33.9873 23.0497C34.0046 23.4355 33.9988 23.8154 33.9988 24.1952ZM20.0114 11.6069C20.6884 11.6069 20.6884 11.6069 20.6884 10.8955C20.6884 10.2021 20.6884 10.1961 20.0286 10.2021C19.2426 10.2082 19.3516 10.0876 19.3516 10.9135C19.3573 11.7274 19.254 11.5948 20.0114 11.6069ZM6.70089 22.8387C6.70089 22.1092 6.70089 22.1032 6.01242 22.1092C5.26084 22.1152 5.38132 22.0127 5.37558 22.7724C5.36984 23.5079 5.37558 23.5079 6.06979 23.5079C6.70089 23.5079 6.70089 23.5079 6.70089 22.8387Z" fill="#424242"/>
<path d="M16.1615 24.1954C15.7313 24.1954 15.301 24.1893 14.8764 24.1954C14.5264 24.2014 14.2224 24.117 14.0847 23.7372C13.947 23.3574 14.1363 23.086 14.3887 22.8449C15.7313 21.5547 17.0738 20.2585 18.4106 18.9683C19.6096 17.8168 20.803 16.6593 22.0021 15.5077C22.0767 15.4354 22.1513 15.357 22.2373 15.2907C22.4898 15.0978 22.7594 15.0435 23.0348 15.2244C23.2987 15.3992 23.3733 15.6645 23.3159 15.972C23.1438 16.8281 22.9659 17.6781 22.7881 18.5282C22.6102 19.3662 22.4553 20.2103 22.2488 21.0423C22.1685 21.3738 22.2775 21.398 22.5357 21.398C23.4077 21.3859 24.2798 21.398 25.1461 21.3919C25.4961 21.3919 25.8002 21.4703 25.9493 21.8381C26.0985 22.2179 25.9149 22.4892 25.6625 22.7364C23.0864 25.2203 20.5104 27.6981 17.9344 30.1821C17.6647 30.4413 17.3721 30.592 17.0221 30.375C16.6836 30.164 16.6722 29.8324 16.7467 29.4767C17.091 27.8368 17.4237 26.197 17.7852 24.5631C17.8598 24.2315 17.7909 24.1652 17.4869 24.1773C17.0451 24.2074 16.6033 24.1954 16.1615 24.1954ZM18.5024 27.6318C18.531 27.6439 18.554 27.662 18.5827 27.674C20.2407 26.0764 21.8988 24.4727 23.6429 22.7967C22.8856 22.7967 22.2373 22.7967 21.5947 22.7967C20.8546 22.7967 20.5965 22.4651 20.7571 21.7175C20.9923 20.5961 21.2333 19.4808 21.4685 18.3594C21.4972 18.2328 21.5603 18.1122 21.4685 17.9374C19.8047 19.5411 18.1524 21.1327 16.5058 22.7183C16.5861 22.8328 16.6722 22.7967 16.741 22.7967C17.3549 22.8027 17.963 22.7906 18.5769 22.8027C19.1392 22.8087 19.4088 23.1403 19.3285 23.7251C19.2998 23.9241 19.2482 24.123 19.2023 24.322C18.9671 25.4253 18.7318 26.5285 18.5024 27.6318Z" fill="#424242"/>
<path d="M9.3686 24.1834C9.3686 23.3635 9.37434 22.5435 9.36287 21.7236C9.35713 21.4885 9.4145 21.392 9.66694 21.392C10.7054 21.3739 10.7054 21.3619 10.7054 22.4652C10.7054 23.8458 10.6997 25.2204 10.7111 26.601C10.7111 26.8904 10.6595 27.0049 10.3497 27.0049C9.3686 26.9989 9.3686 27.011 9.3686 25.986C9.3686 25.3832 9.3686 24.7803 9.3686 24.1834Z" fill="#424242"/>
<path d="M10.0399 18.6064C10.6996 18.6064 10.6996 18.6064 10.6996 19.3239C10.6996 20.0051 10.6996 20.0051 10.0456 20.0051C9.36285 20.0051 9.36285 20.0051 9.36285 19.2696C9.36859 18.6064 9.36859 18.6064 10.0399 18.6064Z" fill="#424242"/>
</g>
<defs>
<clipPath id="clip0_1080_95">
<rect width="40" height="40" fill="white"/>
</clipPath>
</defs>
</svg>
