<svg width="60" height="22" viewBox="0 0 60 22" fill="none" xmlns="http://www.w3.org/2000/svg">
<g clip-path="url(#clip0_249_57)">
<path d="M60 16.8641C59.8281 17.0174 59.8594 17.2474 59.7812 17.4313C59.3594 18.4585 58.625 19.0871 57.4844 19.2097C56.9062 19.271 56.4688 18.9798 56.3906 18.4892C56.3125 17.9986 56.625 17.6306 57.2188 17.508C57.8906 17.37 58.2031 17.0787 58.2344 16.3735C58.2813 15.285 58.25 14.1965 58.2656 13.0927C58.2656 12.832 58.1406 12.7554 57.9062 12.7707C57.4219 12.7707 56.9219 12.786 56.4375 12.7707C55.7969 12.74 55.4219 12.3874 55.4531 11.8815C55.4688 11.3909 55.8437 11.0996 56.4531 11.0536C56.7188 11.0383 57 11.1303 57.2656 10.977C57.0312 10.6704 56.7031 10.5477 56.3906 10.4097C54 9.39788 51.4844 8.92262 48.9219 8.57001C46.1719 8.20206 43.3906 8.14074 40.625 8.15607C34.7812 8.1714 28.9531 8.15607 23.1094 8.15607C22.8906 8.15607 22.6719 8.15607 22.4688 8.14074C21.9531 8.09474 21.625 7.74213 21.625 7.2822C21.625 6.82227 21.9688 6.46966 22.5 6.43899C23.2656 6.40833 24.0312 6.40833 24.7812 6.43899C25.2188 6.45433 25.4062 6.34701 25.3906 5.87175C25.3594 4.64527 25.375 3.41879 25.375 2.19231C25.375 1.94701 25.4219 1.67105 25.0156 1.68638C22.9375 1.74771 20.8438 1.5484 18.7656 1.88568C17.4844 2.10032 17.4844 2.08499 17.1875 3.34213C16.9844 4.20067 16.7969 5.0592 16.5781 5.91774C16.4688 6.31635 16.6094 6.43899 16.9844 6.42366C17.5312 6.40833 18.0781 6.40833 18.625 6.42366C19.25 6.43899 19.5938 6.74562 19.6094 7.26687C19.625 7.78812 19.2812 8.12541 18.6719 8.14074C17.75 8.15607 16.8281 8.20206 15.9219 8.04875C14.5938 7.81879 13.5469 7.14422 12.6406 6.1937C12.25 5.79509 11.8906 5.22784 11.4062 5.07453C10.9062 4.92122 10.3906 5.44248 9.875 5.64178C8.04688 6.37767 6.10938 6.60764 4.17188 6.82227C3.70312 6.86826 3.23438 6.91426 2.78125 6.99091C2.07812 7.11356 1.8125 7.42018 1.78125 8.11007C1.78125 8.1714 1.78125 8.21739 1.78125 8.27872C1.78125 9.12192 1.78125 9.12192 2.60938 9.15258C3.26562 9.18325 3.64062 9.48987 3.64062 10.0111C3.65625 10.5477 3.26562 10.8543 2.5625 10.885C1.76562 10.9003 1.76562 10.9003 1.76562 11.6822C1.76562 12.2035 1.76562 12.7094 1.76562 13.2306C1.76562 14.3805 2.25 15.009 3.35938 15.331C4.25 15.5916 5.17188 15.8216 6.04688 16.1129C6.5 16.2508 6.57812 16.1282 6.65625 15.7143C7.04688 13.3686 8.42188 11.8048 10.75 11.1916C14.3906 10.2258 17.8281 12.9853 17.7031 16.7108C17.6875 17.4467 17.6875 17.4467 18.4219 17.4467C26.4219 17.4467 34.4375 17.4467 42.4375 17.4467C43.2344 17.4467 43.2344 17.4467 43.2188 16.6648C43.1406 13.6292 45.4219 11.1763 48.4844 11.023C51.5 10.8543 54.0625 13.062 54.3281 16.0515C54.5469 18.4278 53.0156 20.7582 50.7031 21.6014C48.3438 22.4599 45.7188 21.678 44.25 19.6543C44 19.3017 43.7344 19.1637 43.2969 19.1637C34.7188 19.1791 26.1562 19.1791 17.5781 19.1637C17.1406 19.1637 16.8906 19.3017 16.625 19.6543C15.3906 21.2947 13.7188 22.0766 11.6562 21.908C9.46875 21.724 7.90625 20.5742 7.01562 18.6271C6.84375 18.2592 6.65625 18.0599 6.25 17.9526C5.09375 17.6613 3.95312 17.3393 2.8125 17.0021C1.01562 16.5268 0 15.2083 0 13.3226C0 11.6055 0 9.87314 0 8.15607C0 6.6383 0.921875 5.58046 2.45312 5.35049C4.10938 5.08987 5.79688 5.01321 7.4375 4.62994C9.4375 4.17001 11.1875 3.1275 13 2.25363C14.6875 1.42575 16.3438 0.582549 18.2188 0.260598C18.9062 0.13795 19.6094 0.0306328 20.3125 0.0306328C23.4688 0.0153018 26.6406 -0.0153603 29.7969 0.0459638C32.2344 0.0919568 34.4531 0.858507 36.5156 2.16164C38.625 3.49544 40.7656 4.81391 42.875 6.14771C43.2344 6.37767 43.5938 6.48499 44.0156 6.50032C47.7656 6.62297 51.4844 7.02157 55.0938 8.14074C55.7656 8.34004 56.4219 8.60067 57.0625 8.86129C58.5781 9.47453 59.5156 10.5784 59.8906 12.1421C59.9062 12.2341 59.9688 12.3108 60 12.4028C60 13.8745 60 15.377 60 16.8641ZM39.9688 6.33168C38.1094 5.19718 36.3281 4.04736 34.5 3.00485C32.3281 1.77837 29.9062 1.64039 27.4688 1.71704C27.1094 1.73237 27.125 1.93168 27.125 2.17697C27.125 3.38812 27.1562 4.58394 27.1094 5.79509C27.0938 6.31635 27.2344 6.46966 27.7812 6.46966C31.625 6.43899 35.4688 6.45433 39.3125 6.45433C39.5 6.45433 39.6875 6.50032 39.9688 6.33168ZM15.9531 16.5115C15.9531 14.4418 14.2656 12.8014 12.1562 12.786C10.0312 12.786 8.3125 14.4724 8.32812 16.5421C8.34375 18.5812 10.0469 20.2676 12.1406 20.2829C14.2344 20.2982 15.9688 18.5965 15.9531 16.5115ZM48.7656 12.8014C46.6406 12.8167 44.9688 14.4878 44.9844 16.5881C45 18.6271 46.7344 20.3136 48.8125 20.2829C50.8906 20.2676 52.6094 18.5658 52.6094 16.5268C52.6094 14.4571 50.8906 12.786 48.7656 12.8014ZM13.0781 4.15467C13.5781 4.6606 14.0469 5.13586 14.5156 5.61112C14.625 5.71844 14.7969 5.82575 14.8594 5.56513C15.0625 4.75258 15.2344 3.92471 15.4375 2.98952C14.5625 3.41879 13.8281 3.78673 13.0781 4.15467Z" fill="#424242"/>
<path d="M30.4688 15.5456C27.3281 15.5456 24.1875 15.5456 21.0313 15.5456C20.8125 15.5456 20.5938 15.5456 20.3906 15.4996C19.9531 15.4076 19.7188 15.0856 19.7344 14.6717C19.7344 14.2578 19.9688 13.9358 20.4219 13.8592C20.625 13.8285 20.8438 13.8285 21.0625 13.8285C27.3281 13.8285 33.5938 13.8285 39.8594 13.8285C40.7656 13.8285 41.1875 14.1044 41.2031 14.6717C41.2188 15.2696 40.7813 15.5456 39.8438 15.5456C36.7188 15.5456 33.5938 15.5456 30.4688 15.5456Z" fill="#424242"/>
<path d="M12.7344 15.0244C13.1406 15.0244 13.4063 15.1777 13.5781 15.4537C13.7656 15.7603 13.7656 16.1129 13.5313 16.3735C13.0469 16.8948 12.5469 17.4007 12 17.876C11.6719 18.1519 11.2656 18.1213 10.9219 17.83C10.5781 17.5387 10.4844 17.1248 10.7344 16.7875C11.2031 16.1589 11.7969 15.6223 12.4219 15.1317C12.5156 15.0551 12.6719 15.0397 12.7344 15.0244Z" fill="#424242"/>
<path d="M50.3125 17.1247C50.2969 17.5386 50.1563 17.7992 49.8438 17.9372C49.5469 18.0905 49.2032 18.0905 48.9688 17.8759C48.4219 17.3853 47.8907 16.8794 47.4063 16.3274C47.125 16.0055 47.1875 15.5916 47.5 15.2849C47.7969 14.9783 48.2032 14.8863 48.5625 15.147C49.1875 15.6069 49.7188 16.1741 50.2188 16.7567C50.2969 16.8794 50.2969 17.048 50.3125 17.1247Z" fill="#424242"/>
</g>
<defs>
<clipPath id="clip0_249_57">
<rect width="60" height="22" fill="white"/>
</clipPath>
</defs>
</svg>
