<svg width="263" height="230" viewBox="0 0 263 230" fill="none" xmlns="http://www.w3.org/2000/svg">
<g clip-path="url(#clip0_65_183)">
<path opacity="0.1" d="M142.225 0.0377545C177.946 -0.840971 210.554 13.9279 229.073 38.3376C266.306 87.4081 273.2 136.447 248.224 162.219C243.018 167.592 228.136 180.503 206.122 185.122C170.614 192.579 155.176 170.36 125.825 176.078C86.9854 183.647 82.8539 228.626 56.7527 229.975C31.8452 231.262 4.5752 191.901 0.550013 154.744C-6.41907 90.4209 53.6775 8.67437 132.594 0.646585C135.856 0.313925 139.075 0.11935 142.232 0.0377545H142.225Z" fill="#87C71F"/>
</g>
<g clip-path="url(#clip1_65_183)">
<path opacity="0.11" d="M146.732 207.688C187.265 207.688 220.123 207.023 220.123 206.204C220.123 205.385 187.265 204.72 146.732 204.72C106.2 204.72 73.3415 205.385 73.3415 206.204C73.3415 207.023 106.2 207.688 146.732 207.688Z" fill="#204B85"/>
<path d="M144.591 196.406C186.238 196.406 219.999 162.743 219.999 121.218C219.999 79.6931 186.238 46.0305 144.591 46.0305C102.945 46.0305 69.1835 79.6931 69.1835 121.218C69.1835 162.743 102.945 196.406 144.591 196.406Z" fill="#F1F8FA"/>
<path d="M161.235 117.676C176.952 117.676 189.694 104.972 189.694 89.3006C189.694 73.6291 176.952 60.9249 161.235 60.9249C145.518 60.9249 132.776 73.6291 132.776 89.3006C132.776 104.972 145.518 117.676 161.235 117.676Z" fill="white"/>
<path d="M77.7699 166.763C77.7699 166.763 64.4374 205.072 68.4836 206.169C72.5357 207.265 101.465 183.012 101.465 183.012L77.7641 166.763H77.7699Z" fill="#005994"/>
<path d="M210.925 166.763C210.925 166.763 224.257 205.072 220.211 206.169C216.159 207.265 187.23 183.012 187.23 183.012L210.931 166.763H210.925Z" fill="#005994"/>
<path d="M144.591 37C97.9422 37 60.1207 74.7052 60.1207 121.218C60.1207 167.731 97.9364 205.436 144.586 205.436C191.235 205.436 229.05 167.731 229.05 121.218C229.05 74.7052 191.241 37 144.591 37ZM144.591 196.405C102.947 196.405 69.1835 162.741 69.1835 121.218C69.1835 79.6954 102.941 46.0305 144.591 46.0305C186.242 46.0305 219.999 79.6895 219.999 121.218C219.999 162.746 186.236 196.405 144.591 196.405Z" fill="#005994"/>
<g style="mix-blend-mode:multiply" opacity="0.23">
<path d="M141.651 124.76H146.656L144.156 80.4694L141.651 124.76Z" fill="#78C9E5"/>
</g>
<path d="M140.91 123.745H145.915L143.415 79.455L140.91 123.745Z" fill="#78C9E5"/>
<g style="mix-blend-mode:multiply" opacity="0.23">
<path d="M141.804 123.481L145.591 126.742L182.154 80.7391L141.804 123.481Z" fill="#78C9E5"/>
</g>
<path d="M141.063 122.467L144.85 125.727L181.413 79.7247L141.063 122.467Z" fill="#78C9E5"/>
<g style="mix-blend-mode:multiply" opacity="0.23">
<path d="M143.415 128.648C146.871 128.648 149.673 125.854 149.673 122.408C149.673 118.962 146.871 116.169 143.415 116.169C139.959 116.169 137.158 118.962 137.158 122.408C137.158 125.854 139.959 128.648 143.415 128.648Z" fill="#78C9E5"/>
</g>
<g style="mix-blend-mode:multiply" opacity="0.23">
<path d="M143.415 131.017C146.871 131.017 149.673 128.223 149.673 124.777C149.673 121.331 146.871 118.538 143.415 118.538C139.959 118.538 137.158 121.331 137.158 124.777C137.158 128.223 139.959 131.017 143.415 131.017Z" fill="#78C9E5"/>
</g>
<path d="M143.415 129.985C146.871 129.985 149.673 127.191 149.673 123.745C149.673 120.3 146.871 117.506 143.415 117.506C139.959 117.506 137.158 120.3 137.158 123.745C137.158 127.191 139.959 129.985 143.415 129.985Z" fill="#78C9E5"/>
<g style="mix-blend-mode:multiply" opacity="0.23">
<path d="M140.622 125.645C141.11 127.246 142.868 128.038 144.221 127.651C146.091 127.123 146.956 124.426 145.809 122.901C145.074 121.922 143.574 121.517 142.315 122.057C140.963 122.637 140.18 124.185 140.622 125.645Z" fill="#78C9E5"/>
</g>
<path d="M144.591 49.9418C145.791 52.1701 145.803 54.9027 144.591 57.131C143.38 54.9027 143.392 52.1759 144.591 49.9418Z" fill="#78C9E5"/>
<path d="M108.846 59.4941C111.004 60.8253 112.38 63.1884 112.451 65.7158C110.287 64.3905 108.922 62.0215 108.846 59.4941Z" fill="#78C9E5"/>
<path d="M82.6807 85.5828C85.2154 85.659 87.5914 87.0194 88.9205 89.1774C86.3799 89.107 84.0157 87.7348 82.6807 85.5828Z" fill="#78C9E5"/>
<path d="M73.1062 121.218C75.341 120.022 78.0816 120.01 80.3165 121.218C78.0816 122.426 75.3469 122.414 73.1062 121.218Z" fill="#78C9E5"/>
<path d="M82.6807 156.859C84.0157 154.707 86.3858 153.335 88.9205 153.265C87.5914 155.422 85.2154 156.783 82.6807 156.859Z" fill="#78C9E5"/>
<path d="M108.846 182.948C108.922 180.42 110.287 178.051 112.451 176.726C112.38 179.259 111.004 181.617 108.846 182.948Z" fill="#78C9E5"/>
<path d="M144.591 192.494C143.392 190.266 143.38 187.533 144.591 185.305C145.803 187.533 145.791 190.26 144.591 192.494Z" fill="#78C9E5"/>
<path d="M180.331 182.948C178.173 181.617 176.796 179.253 176.726 176.726C178.89 178.051 180.255 180.42 180.331 182.948Z" fill="#78C9E5"/>
<path d="M206.496 156.859C203.961 156.783 201.585 155.422 200.256 153.265C202.797 153.335 205.161 154.707 206.496 156.859Z" fill="#78C9E5"/>
<path d="M216.077 121.218C213.842 122.414 211.101 122.426 208.866 121.218C211.101 120.01 213.836 120.022 216.077 121.218Z" fill="#78C9E5"/>
<path d="M206.496 85.5828C205.161 87.7348 202.791 89.107 200.256 89.1774C201.585 87.0194 203.961 85.659 206.496 85.5828Z" fill="black"/>
<path d="M180.331 59.4941C180.255 62.0215 178.89 64.3905 176.726 65.7158C176.796 63.1826 178.173 60.8253 180.331 59.4941Z" fill="#78C9E5"/>
<g style="mix-blend-mode:multiply" opacity="0.23">
<path d="M144.591 49.9359C185.559 49.9359 218.894 82.5101 219.97 123.094C219.988 122.473 219.999 121.845 219.999 121.218C219.999 79.6954 186.236 46.0305 144.591 46.0305C102.947 46.0305 69.1835 79.6954 69.1835 121.218C69.1835 121.845 69.1953 122.467 69.2129 123.094C70.2892 82.5101 103.623 49.9359 144.591 49.9359Z" fill="#78C9E5"/>
</g>
<path d="M140.622 124.637C141.11 126.237 142.868 127.029 144.221 126.642C146.091 126.114 146.956 123.417 145.809 121.892C145.074 120.913 143.574 120.508 142.315 121.048C140.963 121.628 140.18 123.176 140.622 124.637Z" fill="#005994"/>
<path d="M161.235 40.8937C183.495 44.9691 204.108 59.371 214.236 79.7247C212.818 77.2795 211.395 74.8401 209.731 72.559C198.398 56.3745 180.466 45.192 161.241 40.8878L161.235 40.8937Z" fill="#78C9E5"/>
<path d="M143.303 199.883C120.673 199.894 97.7835 189.463 84.1216 171.267C85.9565 173.419 87.8032 175.553 89.8557 177.5C103.947 191.368 123.613 199.126 143.303 199.883Z" fill="#78C9E5"/>
<path d="M169.804 94.3318C170.021 94.5429 170.098 94.5136 170.239 94.7247C170.692 95.3991 172.18 95.9327 173.027 96.2493C174.491 97.4163 176.826 99.756 177.343 97.4632C177.802 95.4342 178.184 94.4256 177.82 93.2353C177.796 93.118 176.932 92.5668 176.855 92.4319C176.155 91.136 175.467 89.7931 174.65 88.6497C173.444 86.9667 171.862 87.9108 172.121 88.4151C172.203 88.5734 175.02 89.7873 174.479 89.4472C173.838 88.4796 173.879 88.6438 173.168 88.116C171.727 87.0488 170.145 88.1981 171.368 88.978C171.556 89.0953 172.303 89.0836 172.644 89.1833C172.709 89.2009 172.756 89.2243 172.78 89.2595C172.809 89.3006 172.192 88.8725 171.85 88.6614C170.333 87.7173 169.31 89.1774 169.745 89.7521C169.904 89.9632 171.039 89.6289 171.221 89.8107C171.386 89.969 170.021 88.9722 169.586 89.2888C168.481 90.0922 168.828 92.1739 169.139 92.6899L170.263 91.6344C170.21 91.5523 170.704 92.3439 170.886 92.7427C171.08 93.2998 171.057 93.2353 170.809 93.0359" fill="#FDBEA3"/>
<path d="M169.804 89.2419C170.945 88.9721 171.686 90.0101 172.003 90.96C171.321 90.2564 170.88 89.4119 169.804 89.2419Z" fill="#E18A71"/>
<path d="M170.998 88.3682C171.515 88.4385 171.974 88.5148 172.462 88.7493C172.874 89.0894 173.103 89.5292 173.285 90.0101C172.944 89.6876 172.644 89.2712 172.292 88.9897C171.88 88.7904 171.398 88.6379 170.998 88.374V88.3682Z" fill="#E18A71"/>
<path d="M172.397 87.7466C172.874 87.8521 173.309 88.0691 173.744 88.2685C174.032 88.5441 174.156 88.9252 174.268 89.3005C174.121 89.1422 173.991 88.9721 173.868 88.808C173.827 88.7552 173.615 88.5089 173.591 88.503C173.138 88.3447 172.744 88.075 172.397 87.7466Z" fill="#E18A71"/>
<path opacity="0.11" d="M238.572 226.552C238.572 227.373 228.368 228.036 215.788 228.036C203.209 228.036 193.005 227.373 193.005 226.552C193.005 225.731 203.209 225.068 215.788 225.068C228.368 225.068 238.572 225.731 238.572 226.552Z" fill="#204B85"/>
<path d="M228.521 160.454C228.403 161.497 228.068 163.004 227.821 164.207C227.504 165.761 226.71 165.719 226.769 165.08C226.792 164.846 227.251 161.193 227.31 160.964C227.357 160.764 227.121 160.794 227.039 161.58C227.039 161.58 226.816 162.512 226.663 163.345C226.274 165.368 225.551 164.916 225.545 164.382C225.545 164.183 225.81 160.958 225.816 160.764C225.816 160.676 225.733 159.287 225.681 158.9C225.533 158.243 225.416 158.155 225.322 158.501C225.128 160.108 224.781 161.128 224.31 160.829C223.928 160.583 224.21 158.888 224.257 157.715C224.287 156.994 224.845 155.434 225.339 154.795C225.904 153.229 226.898 150.837 228.362 152.326C229.662 153.646 230.532 155.516 230.809 156.583C230.85 156.683 230.891 156.988 230.897 157.123C230.968 158.431 230.909 159.216 230.826 160.465C230.703 162.307 230.068 162.77 230.027 162.271C230.015 162.113 230.191 159.222 229.944 159.732C229.909 160.764 229.539 162.008 229.397 163.204C229.215 164.787 228.451 164.658 228.456 164.019C228.456 163.784 228.739 160.888 228.745 160.659C228.745 160.618 228.756 160.325 228.627 160.307C228.568 160.301 228.527 160.377 228.515 160.454H228.521Z" fill="#FDBEA3"/>
<path d="M177.055 93.2352L192.252 105.895L190.394 104.887L204.767 108.317L203.173 119.699L188.506 112.774L187.318 112.492L186.647 111.771L173.197 97.2814L177.055 93.2352Z" fill="#87C71F"/>
<path d="M220.493 147.025C220.493 147.025 225.569 167.948 226.763 185.721C226.763 185.721 222.158 189.574 217.835 190.184C217.835 190.184 210.36 173.612 204.614 157.733L220.487 147.025H220.493Z" fill="#0071BC"/>
<path d="M215.783 151.529C215.783 151.529 211.054 172.275 203.403 189.926C203.403 189.926 198.151 190.77 194.005 189.392C194.005 189.392 195.569 163.825 198.251 145.929L215.783 151.523V151.529Z" fill="#0071BC"/>
<path d="M206.314 106.757C207.49 105.989 207.026 103.309 206.92 101.873L213.889 96.5425C213.918 96.7243 213.918 102.295 213.948 102.477C214.348 105.045 218.823 107.86 219.276 108.112C221.999 109.637 218.047 123.458 204.226 115.87C204.167 115.841 204.108 115.806 204.05 115.77C201.28 114.211 203.938 108.306 206.308 106.757H206.314Z" fill="#FDBEA3"/>
<path d="M196.969 120.473C197.034 119.289 197.486 112.082 201.774 109.103C203.362 108.001 206.308 106.758 206.308 106.763C206.59 107.602 206.837 109.103 209.366 109.144C214.718 109.232 216.13 105.731 216.13 105.731C219.635 108.476 220.717 108.118 221.758 109.021C225.069 111.9 227.38 113.255 223.11 124.185L220.411 136.963L221.758 148.392C209.725 154.085 202.05 153.851 197.839 148.521C197.839 148.521 196.287 133.251 196.963 120.473H196.969Z" fill="#87C71F"/>
<path d="M212.477 109.707L208.443 114.111L205.914 109.777L212.477 109.707Z" fill="white"/>
<path d="M210.425 109.959C210.425 109.959 208.978 112.281 206.849 109.672L208.831 109.103L210.431 109.959H210.425Z" fill="#0071BC"/>
<path d="M230.274 155.065C230.291 154.977 230.315 154.865 230.338 154.742C230.309 154.877 230.291 154.983 230.274 155.065Z" fill="#87C71F"/>
<path d="M230.238 155.253C230.238 155.253 230.244 155.212 230.256 155.17C230.25 155.212 230.244 155.241 230.238 155.253Z" fill="#87C71F"/>
<path d="M230.338 154.748C230.35 154.689 230.362 154.625 230.379 154.549C230.368 154.613 230.35 154.684 230.338 154.748Z" fill="#87C71F"/>
<path d="M230.256 155.176C230.256 155.176 230.268 155.112 230.28 155.071C230.274 155.112 230.262 155.147 230.256 155.176Z" fill="#87C71F"/>
<path d="M230.38 154.549C230.385 154.508 230.397 154.467 230.403 154.42C230.397 154.461 230.385 154.508 230.38 154.549Z" fill="#87C71F"/>
<path d="M233.308 132.793C231.803 129.023 229.486 120.567 226.521 114.099C223.787 108.124 215.882 104.195 218.723 117.195C219.611 121.253 222.81 129.691 225.598 134.834L225.11 153.874C226.433 153.98 230.527 153.769 230.527 153.769C231.203 150.409 233.302 132.793 233.302 132.793H233.308Z" fill="#87C71F"/>
<path d="M230.521 153.851C230.515 153.886 230.503 153.927 230.497 153.98C230.503 153.939 230.515 153.898 230.521 153.851Z" fill="#87C71F"/>
<path d="M230.403 154.426C230.427 154.32 230.45 154.203 230.474 154.068C230.45 154.173 230.427 154.297 230.403 154.426Z" fill="#87C71F"/>
<path d="M230.538 153.769C230.538 153.769 230.527 153.822 230.521 153.852C230.532 153.798 230.538 153.769 230.538 153.769Z" fill="#87C71F"/>
<path d="M224.869 153.898C224.869 153.898 229.062 153.587 230.75 153.223C230.75 153.223 231.115 154.924 230.456 155.534C229.797 156.144 225.71 156.396 225.21 155.856C224.757 155.37 224.869 153.892 224.869 153.892V153.898Z" fill="#F2F2F2"/>
<path d="M225.545 155.047C225.68 155.106 225.833 155.041 225.886 154.906C225.945 154.772 225.88 154.619 225.745 154.566C225.61 154.508 225.457 154.572 225.404 154.707C225.345 154.842 225.41 154.994 225.545 155.047Z" fill="#87C71F"/>
<path d="M178.79 93.81C178.79 93.81 175.397 97.4456 174.221 99.1227C174.221 99.1227 172.527 97.9382 172.603 96.8768C172.686 95.8155 176.032 92.3088 176.902 92.3733C177.69 92.432 178.784 93.81 178.784 93.81H178.79Z" fill="#F2F2F2"/>
<path d="M173.909 96.8826C173.75 96.9413 173.662 97.1172 173.721 97.2814C173.78 97.4456 173.956 97.5277 174.121 97.469C174.279 97.4104 174.368 97.2345 174.309 97.0703C174.25 96.912 174.074 96.824 173.909 96.8826Z" fill="#87C71F"/>
<path d="M210.525 172.627C209.331 170.815 208.308 168.898 207.355 166.957L207.478 167.08C206.032 166.294 204.603 165.467 203.238 164.523C204.814 165.127 206.332 165.848 207.825 166.611C208.837 168.563 209.778 170.557 210.531 172.627H210.525Z" fill="#040710"/>
<path d="M233.932 212.015L217.723 189.967L224.063 181.804C224.063 181.804 229.727 186.466 231.762 191.134C235.843 200.487 238.272 205.565 239.695 208.315C238.037 209.769 235.961 211.3 233.926 212.015H233.932Z" fill="#0071BC"/>
<path d="M236.731 215.827L233.926 212.015C235.961 211.3 238.037 209.769 239.695 208.315C241.313 211.435 241.642 211.57 241.642 211.57C241.642 211.57 240.589 214.537 236.731 215.827Z" fill="#FDBEA3"/>
<path d="M191.235 217.627L194.246 188.032L203.656 186.853C203.656 186.853 204.138 199.038 202.538 203.87C200.215 210.895 198.88 215.446 198.116 218.395C196.022 218.36 193.387 218.184 191.235 217.621V217.627Z" fill="#0071BC"/>
<path d="M197.204 222.576C197.204 222.576 194.316 224.828 190.688 222.999L191.235 217.633C193.381 218.196 196.022 218.372 198.116 218.407C197.175 222.4 197.204 222.582 197.204 222.582V222.576Z" fill="#FDBEA3"/>
<path d="M206.737 86.9667C206.737 86.9667 204.073 88.5558 204.15 91.4936C204.167 92.2384 203.25 96.003 203.25 96.003C202.785 100.665 205.655 103.767 206.767 103.808C209.437 103.902 211.613 102.576 212.936 101.322C215.365 99.0112 216.823 91.1594 214.924 88.5792C212.371 85.1137 208.037 85.4127 206.743 86.9667H206.737Z" fill="#FDBEA3"/>
<path d="M203.22 97.7035C203.22 97.7035 203.938 98.1316 205.449 97.6566C206.408 97.3517 207.837 96.349 208.143 96.9881C209.537 99.8732 209.478 103.392 206.99 103.82C204.497 104.248 202.879 98.7532 203.226 97.7035H203.22Z" fill="#263238"/>
<path d="M213.677 96.0265C213.595 95.4284 213.26 92.08 213.465 91.3998C213.36 91.3295 213.165 91.2943 212.924 91.2767C211.748 91.2005 210.831 90.2388 210.784 89.066C210.784 89.066 208.513 89.1188 206.214 88.6672C203.244 88.0867 204.02 84.7208 204.079 84.7032C204.867 84.5038 211.231 83.507 214.853 85.8643C218.411 88.1805 216.694 93.8392 216.377 94.7833C216.347 94.8654 216.271 94.9182 216.182 94.9241L213.895 96.2141C213.783 96.2141 213.689 96.1379 213.677 96.0323V96.0265Z" fill="#263238"/>
<path d="M216.259 87.3126C216.259 87.3126 219.076 88.8783 216.853 94.3142C216.853 94.3142 215.024 92.5198 216.259 87.3126Z" fill="black"/>
<path d="M204.585 91.9921C204.585 91.9921 203.467 94.238 201.868 95.6981C201.333 96.1906 202.95 97.7974 203.662 97.8677C205.238 98.0261 204.585 91.9921 204.585 91.9921Z" fill="#FDBEA3"/>
<path d="M216.588 96.8239C215.859 98.0964 214.536 98.6476 213.636 98.0612C212.736 97.4748 212.595 95.9678 213.324 94.6953C214.053 93.4228 215.377 92.8716 216.277 93.458C217.176 94.0444 217.318 95.5514 216.588 96.8239Z" fill="#FDBEA3"/>
<path d="M213.036 99.9319C212.519 101.99 210.501 103.433 208.425 103.591C208.131 103.609 207.831 103.609 207.537 103.603C209.843 103.345 212.048 102.096 213.03 99.9319H213.036Z" fill="#E18A71"/>
<path d="M206.99 98.1316C206.649 99.017 205.508 99.6093 204.614 99.2047C205.543 99.1636 206.296 98.7473 206.99 98.1316Z" fill="#FDBEA3"/>
<path d="M205.514 93.8802C205.496 94.1324 205.626 94.3435 205.79 94.3493C205.955 94.3611 206.108 94.1617 206.12 93.9154C206.137 93.6633 206.008 93.4522 205.843 93.4463C205.679 93.4346 205.526 93.6339 205.514 93.8802Z" fill="#263238"/>
<path d="M215.806 94.197C215.13 94.1325 214.53 94.5136 214.412 95.1763L214.324 95.0121C214.642 95.1645 215.047 95.3229 215.012 95.7803C214.977 95.9738 214.806 96.0793 214.683 96.1966C214.518 96.3197 214.471 96.396 214.242 96.4781L214.33 96.3901C214.3 96.6892 214.33 97.041 214.565 97.2873C214.253 97.1055 214.13 96.7244 214.13 96.3725C214.206 96.2904 214.242 96.2611 214.348 96.1673C214.447 96.0559 214.73 95.8272 214.73 95.7275C214.742 95.534 214.383 95.358 214.206 95.276C214.142 95.2466 214.112 95.1763 214.13 95.1118C214.265 94.367 215.106 93.9097 215.8 94.197H215.806Z" fill="#E18A71"/>
<path d="M207.208 92.7486C207.343 92.5726 207.273 92.0214 206.537 91.6813C206.126 91.4937 205.755 91.6051 205.702 91.6344C205.591 91.7048 205.538 91.8631 205.585 91.9921C205.673 92.2208 206.014 92.1387 206.455 92.4378C206.767 92.6489 206.643 92.7016 206.955 92.8013C206.984 92.8131 207.131 92.8541 207.214 92.7544L207.208 92.7486Z" fill="#263238"/>
<path d="M214.436 103.738C214.436 103.738 211.96 107.936 208.831 109.103C208.831 109.103 210.842 110.112 212.295 111.097C212.295 111.097 216.576 107.039 216.853 106.271C216.853 106.271 216.541 104.353 214.436 103.738Z" fill="white"/>
<path d="M206.937 105.802L206.496 107.332L208.825 109.103C208.825 109.103 206.955 109.93 206.096 110.452C206.096 110.452 205.097 109.343 205.079 107.485C205.079 107.485 205.467 106.2 206.937 105.796V105.802Z" fill="white"/>
<path d="M214.765 86.8201C214.765 86.8201 213.283 84.4863 205.861 83.161C205.861 83.161 204.632 86.6618 214.765 86.8201Z" fill="#263238"/>
<path d="M215.753 86.6325C215.753 86.6325 214.353 84.7267 209.901 83.4601C209.901 83.4601 209.572 85.9112 215.753 86.6325Z" fill="#263238"/>
<path d="M215.118 87.1251C215.118 87.1251 215.112 86.0989 216.553 84.9906C216.553 84.9906 217.323 86.2514 215.118 87.1251Z" fill="#263238"/>
<path d="M215.089 86.9785C215.089 86.9785 215.824 86.2631 217.629 86.5269C217.629 86.5269 217.253 87.9577 215.089 86.9785Z" fill="#263238"/>
<path d="M204.673 93.8803C204.673 94.8186 205.249 95.575 205.955 95.575C206.661 95.575 207.237 94.8186 207.237 93.8803C207.237 92.9421 206.661 92.1857 205.955 92.1857C205.249 92.1857 204.673 92.9421 204.673 93.8803Z" stroke="#F2F2F2" stroke-width="0.37" stroke-miterlimit="10"/>
<path d="M204.714 93.4405C204.714 93.4405 204.526 92.9244 203.891 93.03" stroke="#F2F2F2" stroke-width="0.37" stroke-miterlimit="10"/>
<path d="M208.255 97.3048C208.255 97.3048 209.501 98.7473 209.419 100.049C209.419 100.049 208.09 98.6652 208.255 97.3048Z" fill="#263238"/>
<path d="M203.885 97.9674C203.885 97.9674 205.555 96.1437 206.814 96.8767C206.814 96.8767 205.185 98.8881 203.885 97.9674Z" fill="#263238"/>
<path d="M208.561 98.2079C208.561 98.2079 209.707 99.9553 209.125 101.175C209.125 101.175 207.843 99.4628 208.561 98.2079Z" fill="#263238"/>
<path d="M208.655 110.452L210.425 111.941L208.443 114.111L206.955 111.566L208.655 110.452Z" fill="#0071BC"/>
<path d="M189.312 223.116C190.458 222.582 190.035 220.841 191.435 221.826C192.334 222.459 192.805 223.591 193.74 223.714C195.804 223.661 197.198 222.582 197.198 222.582L197.428 222.565C197.428 222.565 198.427 224.324 198.145 227.778C198.127 227.971 197.969 228.124 197.775 228.135L194.152 228.341C190.717 227.179 191.511 229.337 181.813 228.153C181.643 228.129 181.496 228 181.472 227.83C181.319 226.845 181.437 223.62 189.317 223.11L189.312 223.116Z" fill="#0071BC"/>
<path d="M235.09 216.284C235.673 215.164 234.267 214.044 235.978 213.968C237.078 213.921 238.148 214.531 238.96 214.062C240.566 212.76 241.001 211.054 241.001 211.054L241.171 210.901C241.171 210.901 243.047 211.681 244.935 214.59C245.041 214.754 245.012 214.971 244.865 215.1L242.124 217.475C238.695 218.647 240.648 219.873 232.244 224.851C232.097 224.939 231.903 224.928 231.773 224.805C231.05 224.118 229.162 221.491 235.084 216.29L235.09 216.284Z" fill="#0071BC"/>
<path d="M207.178 93.8979L213.583 94.3143" stroke="#F2F2F2" stroke-width="0.37" stroke-miterlimit="10"/>
<path d="M222.187 127.446C221.199 125.34 220.499 123.141 220.093 120.849C221.081 122.954 221.775 125.153 222.187 127.446Z" fill="#C48D37"/>
<path d="M198.58 113.249C198.221 114.545 197.933 115.741 197.422 116.984C197.322 115.659 197.68 114.257 198.58 113.249Z" fill="#C48D37"/>
<path d="M214.236 118.128C213.124 121.922 208.855 134.347 204.614 134.834C208.272 134.218 212.666 121.64 214.236 118.128Z" fill="#C48D37"/>
<path d="M200.256 125.727C201.115 130.583 202.385 142.85 205.914 145.935C201.827 142.944 200.562 130.712 200.256 125.727Z" fill="#C48D37"/>
<path d="M218.753 136.664C217.665 136.974 216.453 137.203 215.341 137.408C215.141 137.443 214.936 137.52 214.795 137.567C214.847 137.666 215.012 137.719 215.118 137.784C214.895 137.801 214.453 137.69 214.689 137.397C215.824 136.64 217.417 136.523 218.758 136.658L218.753 136.664Z" fill="#C48D37"/>
<path d="M218.282 137.227C217.817 137.842 217.212 138.253 216.729 138.804C216.553 139.003 216.582 139.138 216.818 139.285C216.418 139.338 216.265 138.951 216.429 138.634C216.812 137.913 217.517 137.455 218.282 137.227Z" fill="#C48D37"/>
<path opacity="0.11" d="M68.9483 230.006C97.0862 230.006 119.897 226.538 119.897 222.26C119.897 217.981 97.0862 214.513 68.9483 214.513C40.8103 214.513 18 217.981 18 222.26C18 226.538 40.8103 230.006 68.9483 230.006Z" fill="#204B85"/>
<path d="M24.9162 142.322L18 220.559H34.7495L24.9162 142.322Z" fill="#A6BBC4"/>
<path d="M25.9572 157.176C25.9572 157.176 28.4331 223.561 32.5558 225.936C36.6726 228.311 108.834 231.003 125.037 216.648C125.037 216.648 118.891 207.324 117.403 199.214C115.915 191.104 112.48 151.177 112.48 151.177L25.9631 157.182L25.9572 157.176Z" fill="white"/>
<path d="M55.2334 177.095L41.9774 178.884L40.9952 164.887L54.7806 163.925L55.2334 177.095Z" stroke="#CDCDCD" stroke-width="0.5" stroke-miterlimit="10"/>
<path d="M72.965 176.72L59.1797 177.682L58.127 162.729L71.9829 162.723L72.965 176.72Z" stroke="#CDCDCD" stroke-width="0.5" stroke-miterlimit="10"/>
<path d="M89.6263 174.586L76.3761 176.48L75.394 162.483L89.1794 161.521L89.6263 174.586Z" stroke="#CDCDCD" stroke-width="0.5" stroke-miterlimit="10"/>
<path d="M57.1272 197.285L43.2888 197.537L42.3067 183.54L56.0921 182.572L57.1272 197.285Z" stroke="#CDCDCD" stroke-width="0.5" stroke-miterlimit="10"/>
<path d="M74.2766 195.373L60.5617 197.35L59.5031 182.338L73.2415 180.661L74.2766 195.373Z" stroke="#CDCDCD" stroke-width="0.5" stroke-miterlimit="10"/>
<path d="M91.5494 195.186L77.6876 195.133L76.7054 181.136L90.4908 180.168L91.5494 195.186Z" stroke="#CDCDCD" stroke-width="0.5" stroke-miterlimit="10"/>
<path d="M58.3916 215.223L44.6004 216.19L43.5829 201.718L57.4036 201.226L58.3916 215.223Z" stroke="#CDCDCD" stroke-width="0.5" stroke-miterlimit="10"/>
<path d="M105.98 160.349L92.193 161.312L93.1772 175.311L106.964 174.347L105.98 160.349Z" stroke="#CDCDCD" stroke-width="0.5" stroke-miterlimit="10"/>
<path d="M107.29 178.994L93.5035 179.958L94.4877 193.956L108.275 192.992L107.29 178.994Z" stroke="#CDCDCD" stroke-width="0.5" stroke-miterlimit="10"/>
<path d="M109.593 211.646L95.8015 212.608L95.3192 197.69L108.605 197.649L109.593 211.646Z" stroke="#CDCDCD" stroke-width="0.5" stroke-miterlimit="10"/>
<path d="M75.588 214.021L61.0322 213.634L60.8146 200.985L74.6059 200.024L75.588 214.021Z" stroke="#CDCDCD" stroke-width="0.5" stroke-miterlimit="10"/>
<path d="M92.7904 212.819L78.9991 213.78L78.017 199.783L91.7729 198.352L92.7904 212.819Z" stroke="#CDCDCD" stroke-width="0.5" stroke-miterlimit="10"/>
<path d="M111.434 136.318L24.9162 142.322L25.963 157.182L112.48 151.177L111.434 136.318ZM41.0834 151.124C39.719 151.218 38.5369 150.198 38.4428 148.837C38.3487 147.477 39.372 146.298 40.7364 146.204C42.1009 146.11 43.283 147.131 43.3771 148.491C43.4712 149.852 42.4479 151.03 41.0834 151.124ZM55.8157 150.092C54.4513 150.186 53.2691 149.166 53.175 147.805C53.0809 146.445 54.1043 145.266 55.4687 145.172C56.8331 145.078 58.0152 146.099 58.1093 147.459C58.2034 148.82 57.1801 149.998 55.8157 150.092ZM70.5479 149.06C69.1835 149.154 68.0014 148.133 67.9073 146.773C67.8132 145.413 68.8365 144.234 70.2009 144.14C71.5653 144.046 72.7475 145.067 72.8416 146.427C72.9357 147.788 71.9123 148.966 70.5479 149.06ZM85.2802 148.028C83.9157 148.122 82.7336 147.101 82.6395 145.741C82.5454 144.381 83.5687 143.202 84.9332 143.108C86.2976 143.014 87.4797 144.035 87.5738 145.395C87.6679 146.755 86.6446 147.934 85.2802 148.028ZM100.012 146.996C98.648 147.09 97.4659 146.069 97.3718 144.709C97.2777 143.348 98.301 142.17 99.6654 142.076C101.03 141.982 102.212 143.003 102.306 144.363C102.4 145.723 101.377 146.902 100.012 146.996Z" fill="#87C71F"/>
<path d="M68.3366 167.039C67.1545 169.625 65.2255 171.847 62.8201 173.372C64.0022 170.786 65.9371 168.569 68.3366 167.039Z" fill="#4C4C4C"/>
<path d="M68.7542 172.956C66.1606 171.777 63.9317 169.854 62.4026 167.455C64.9961 168.634 67.2192 170.563 68.7542 172.956Z" fill="#4C4C4C"/>
<path d="M88.1972 202.903C87.0151 205.489 85.0861 207.711 82.6807 209.236C83.8628 206.65 85.7977 204.433 88.1972 202.903Z" fill="#4C4C4C"/>
<path d="M88.6089 208.819C86.0153 207.641 83.7864 205.717 82.2573 203.319C84.8508 204.498 87.0739 206.427 88.6089 208.819Z" fill="#4C4C4C"/>
<path d="M52.4517 186.888C51.2696 189.474 49.3406 191.697 46.9352 193.221C48.1173 190.635 50.0522 188.419 52.4517 186.888Z" fill="#78C9E5"/>
<path d="M52.8692 192.805C50.2757 191.626 48.0467 189.703 46.5176 187.305C49.1112 188.483 51.3343 190.413 52.8692 192.805Z" fill="#78C9E5"/>
<path d="M111.369 220.559C114.527 218.079 117.479 215.024 118.444 211.018C118.315 215.229 114.998 218.782 111.369 220.559Z" fill="#CDCDCD"/>
<path d="M28.4155 159.281C29.0448 169.572 29.7093 180.737 30.668 190.958C31.1267 196.229 31.7031 201.489 32.4441 206.726C33.1675 211.271 33.7791 215.926 35.5376 220.207L35.9728 221.098L36.5315 221.919C35.2494 220.377 34.673 218.389 34.079 216.513C33.1439 213.329 32.5558 210.057 32.003 206.79C29.627 191.069 28.7448 175.16 28.4214 159.281H28.4155Z" fill="#CDCDCD"/>
<path d="M25.9572 157.176L29.3153 156.941L28.4155 143.395L24.9162 142.322L25.9572 157.176Z" fill="#3D9315"/>
<path d="M32.4676 141.795C34.6377 137.098 39.5014 134.336 43.4065 139.05C46.894 142.961 43.2536 148.89 38.6898 149.752C41.4246 148.433 43.8946 145.571 43.6594 142.44C43.4712 140.487 41.8892 138.745 40.1836 137.907C37.0725 136.593 34.2378 139.508 32.4676 141.795Z" fill="#4C4C4C"/>
<path d="M47.2763 140.463C49.4464 135.766 54.3101 133.004 58.2152 137.719C61.7027 141.63 58.0623 147.559 53.4985 148.421C56.2332 147.101 58.7033 144.24 58.4681 141.108C58.2799 139.156 56.6979 137.414 54.9923 136.576C51.8812 135.262 49.0465 138.176 47.2763 140.463Z" fill="#4C4C4C"/>
<path d="M62.1967 139.789C64.1669 135.426 68.6718 132.899 72.2711 137.238C75.494 140.845 72.13 146.333 67.9073 147.09C70.3891 145.858 72.6416 143.243 72.424 140.381C72.2476 138.61 70.8126 137.015 69.26 136.253C66.4253 135.051 63.8317 137.707 62.1967 139.783V139.789Z" fill="#4C4C4C"/>
<path d="M76.8172 138.493C78.7756 134.154 83.2629 131.632 86.8445 135.954C90.0556 139.543 86.7093 145.008 82.4984 145.759C84.9684 144.527 87.2092 141.929 86.9916 139.085C86.821 137.326 85.386 135.743 83.8452 134.981C81.0222 133.784 78.4463 136.429 76.8172 138.493Z" fill="#4C4C4C"/>
<path d="M92.3022 137.309C94.2136 133.04 98.6245 130.577 102.141 134.816C105.294 138.335 102.006 143.706 97.8717 144.433C100.289 143.225 102.477 140.675 102.259 137.895C102.088 136.177 100.689 134.623 99.1832 133.884C96.4249 132.711 93.896 135.297 92.3022 137.314V137.309Z" fill="#4C4C4C"/>
<path d="M63.2318 188.231C63.0789 191.063 64.9785 194.347 68.0014 194.517C72.5652 194.517 75.5822 188.647 71.8241 185.428C67.5897 181.611 63.0848 186.601 64.8785 191.192C62.5731 186.319 67.6485 180.972 72.1829 185.029C73.3238 186.056 74.1707 187.539 74.1354 189.146C74.006 192.26 71.1478 195.127 67.9779 194.963C64.7491 194.681 62.8378 191.187 63.2377 188.231H63.2318Z" fill="#87C71F"/>
<path d="M102.441 162.57C99.6242 162.16 96.172 163.737 95.7251 166.728C95.3016 171.255 100.889 174.797 104.447 171.366C108.652 167.514 104.088 162.582 99.3302 163.937C102.147 162.834 106.041 164.353 106.535 167.584C106.905 170.762 103.629 173.63 100.518 173.313C97.4188 172.897 94.8194 169.795 95.2781 166.658C95.8603 163.479 99.5243 161.902 102.441 162.57Z" fill="#87C71F"/>
<path d="M66.4076 189.293C67.1133 189.744 67.7544 190.26 68.3837 190.794L67.9955 190.835C68.713 189.726 69.507 188.665 70.4362 187.721C70.7479 187.41 71.0831 187.099 71.4772 186.888C70.9949 187.475 70.4127 188.401 69.9657 189.023C69.407 189.82 68.8248 190.606 68.219 191.374C67.578 190.712 66.9546 190.043 66.4017 189.293H66.4076Z" fill="#87C71F"/>
<g style="mix-blend-mode:multiply" opacity="0.23">
<path d="M180.16 54.9144C181.701 55.7353 183.207 56.6149 184.683 57.5356C186.806 56.7557 190.294 55.0727 193.922 52.8561C187.118 47.9656 179.555 44.0602 171.445 41.3511C174.597 46.4527 177.914 51.7068 180.166 54.9144H180.16Z" fill="#3D64A1"/>
</g>
</g>
<defs>
<clipPath id="clip0_65_183">
<rect width="263" height="230" fill="white"/>
</clipPath>
<clipPath id="clip1_65_183">
<rect width="227" height="193" fill="white" transform="translate(18 37)"/>
</clipPath>
</defs>
</svg>
