<svg width="46" height="40" viewBox="0 0 46 40" fill="none" xmlns="http://www.w3.org/2000/svg">
<g clip-path="url(#clip0_617_1098)">
<path d="M0 11.0662C0.299479 10.117 1.00625 9.62432 1.88073 9.2278C8.32552 6.32002 14.7464 3.36418 21.1792 0.420352C22.3771 -0.132367 23.575 -0.144383 24.7729 0.408336C31.3495 3.42426 37.938 6.42816 44.5266 9.43207C45.2812 9.7685 45.7245 10.3332 46 11.0782C46 11.3786 46 11.679 46 11.9794C45.7005 12.9286 45.0177 13.4453 44.1312 13.8298C42.3224 14.6108 40.5375 15.4639 38.7406 16.269C38.4292 16.4011 38.3333 16.5693 38.3333 16.9058C38.3453 20.0779 38.3094 23.238 38.3573 26.4101C38.3813 28.1644 37.6984 29.5462 36.4286 30.6877C34.7995 32.1536 32.8469 33.0307 30.7625 33.5714C24.6411 35.1575 18.6036 35.0854 12.6859 32.6222C12.3146 32.466 12.2786 32.5742 12.2667 32.9226C12.2307 33.5594 12.3146 33.968 13.0094 34.2924C14.3031 34.8932 14.8542 36.4552 14.4349 37.825C14.0396 39.1587 12.7578 40.0599 11.3682 39.9998C9.93073 39.9397 8.73281 38.8824 8.46927 37.4405C8.21771 36.0947 8.94844 34.6889 10.2542 34.1362C10.6495 33.968 10.7573 33.7637 10.7333 33.3792C10.7094 32.8866 10.7094 32.3939 10.7333 31.8893C10.7453 31.6489 10.6495 31.5048 10.4578 31.3726C9.87083 30.9761 9.35573 30.5075 8.88854 29.9668C8.06198 29.0055 7.64271 27.9121 7.64271 26.6264C7.65469 23.3822 7.64271 20.138 7.65469 16.8938C7.65469 16.5573 7.55885 16.4011 7.2474 16.2569C5.45052 15.4519 3.66562 14.5988 1.85677 13.8178C0.982292 13.4333 0.299479 12.9286 0 11.9674C0 11.667 0 11.3666 0 11.0662ZM13.3328 17.3504C13.4406 17.3984 13.5365 17.4465 13.6203 17.4946C16.3276 18.7322 19.0349 19.9578 21.7302 21.2194C22.5807 21.6159 23.3953 21.6279 24.2339 21.2314C24.9167 20.907 25.6234 20.5946 26.3182 20.2822C32.1641 17.6027 38.0099 14.9352 43.8677 12.2557C44.1792 12.1116 44.4547 11.9313 44.4547 11.5468C44.4547 11.1743 44.2031 10.9941 43.9036 10.8619C37.3151 7.85802 30.7385 4.8421 24.162 1.82618C23.3833 1.46571 22.6047 1.47773 21.826 1.83819C15.2615 4.8421 8.6849 7.84601 2.12031 10.8499C1.79688 10.9941 1.53333 11.1743 1.54531 11.5708C1.55729 11.9674 1.83281 12.1236 2.15625 12.2678C5.15104 13.6375 8.14583 14.9953 11.1286 16.3771C11.3802 16.4973 11.5839 16.5093 11.8354 16.3771C12.4943 16.0166 13.1651 15.6922 13.8359 15.3558C15.3812 14.5748 16.9266 13.7817 18.4719 12.9887C18.6036 12.9166 18.8552 12.9166 18.6995 12.6282C18.0646 11.4627 18.5557 10.2972 19.4901 9.56424C21.3109 8.13438 24.713 8.12236 26.5339 9.56424C27.9474 10.6817 27.9714 12.3639 26.5938 13.5174C26.2823 13.7817 25.9349 13.986 25.5635 14.1422C23.8625 14.8151 22.1495 14.8391 20.4604 14.1061C20.1729 13.986 19.9453 13.974 19.6698 14.1182C17.7771 15.0914 15.8844 16.0527 13.9917 17.0139C13.7521 17.086 13.5245 17.1581 13.3328 17.3504ZM12.2667 24.6799C12.2667 26.5423 12.2786 28.4047 12.2547 30.2672C12.2547 30.6276 12.3625 30.8199 12.6859 30.952C13.1411 31.1323 13.5844 31.3726 14.0396 31.5408C19.5021 33.4873 25.0245 33.5474 30.5828 32.0094C32.3078 31.5288 33.937 30.8199 35.3146 29.6303C36.2969 28.7892 36.824 27.7559 36.812 26.4101C36.7641 23.5144 36.8 20.6186 36.8 17.7108C36.8 17.1581 36.8 17.1581 36.2849 17.3864C32.4635 19.1287 28.6422 20.883 24.8208 22.6252C23.587 23.19 22.3771 23.1779 21.1432 22.6132C18.3281 21.3155 15.513 20.0419 12.6979 18.7442C12.3146 18.5639 12.2547 18.6601 12.2547 19.0325C12.2786 20.919 12.2667 22.8055 12.2667 24.6799ZM10.7333 29.6664C10.7333 29.378 10.7333 29.2218 10.7333 29.0656C10.7333 25.7493 10.6854 22.433 10.7693 19.1167C10.7932 18.1073 10.5057 17.5787 9.57135 17.3023C9.23594 17.2062 9.2 17.2542 9.2 17.5666C9.21198 20.6066 9.18802 23.6586 9.21198 26.6985C9.21198 27.876 9.7151 28.8253 10.7333 29.6664ZM23 13.0608C23.8745 13.0488 24.701 12.8926 25.4318 12.4119C26.2583 11.8712 26.2464 11.1863 25.4318 10.6336C24.174 9.76851 21.826 9.76851 20.5682 10.6216C19.7177 11.1863 19.7177 11.8592 20.5682 12.4119C21.3109 12.9046 22.1495 13.0608 23 13.0608ZM13.0333 36.9238C13.0453 36.0587 12.3745 35.3858 11.512 35.3858C10.6734 35.3858 9.99063 36.0347 9.97865 36.8757C9.96667 37.7289 10.6375 38.4378 11.476 38.4618C12.3026 38.4738 13.0214 37.7649 13.0333 36.9238Z" fill="#424242"/>
</g>
<defs>
<clipPath id="clip0_617_1098">
<rect width="46" height="40" fill="white"/>
</clipPath>
</defs>
</svg>
