<svg width="30" height="30" viewBox="0 0 30 30" fill="none" xmlns="http://www.w3.org/2000/svg">
<g clip-path="url(#clip0_612_1068)">
<path d="M15.0041 26.129C12.2065 26.129 9.40076 26.129 6.60312 26.121C6.34513 26.121 6.28063 26.1855 6.28869 26.4355C6.30482 26.9758 6.30482 27.5242 6.29675 28.0645C6.28063 29.1371 5.43408 29.9839 4.36985 29.9919C3.29756 30 2.44295 29.1452 2.42683 28.0564C2.41876 27.5 2.41876 26.9516 2.42683 26.3952C2.43489 26.1935 2.38651 26.1048 2.16883 26.121C1.92696 26.1371 1.68509 26.129 1.44322 26.121C0.645048 26.1048 0.032309 25.4919 0.00812196 24.7016C5.96084e-05 24.371 5.96084e-05 24.0323 0.00812196 23.7016C0.0242467 23.1452 0.274179 22.7097 0.765983 22.4516C0.943354 22.3548 0.975604 22.2581 0.975604 22.0806C0.967542 21.0403 0.975604 20.0081 0.975604 18.9677C0.967542 17.4194 1.58028 16.1774 2.82188 15.25C2.88638 15.2016 3.00732 15.1613 2.967 15.0565C2.93475 14.9597 2.82188 15.0081 2.74932 15.0081C2.33008 15 1.90277 15.0081 1.48353 15.0081C0.645048 14.9919 0.00812196 14.3548 0.00812196 13.5484C0.00812196 12.7419 0.645047 12.0887 1.47547 12.1048C2.14464 12.1129 2.82188 11.9919 3.48299 12.2177C3.6523 12.2742 3.62005 12.1129 3.63618 12.0242C3.91836 10.7177 4.20861 9.41129 4.48273 8.09677C4.80522 6.53226 6.00651 5.44355 7.60285 5.33065C7.7641 5.32258 7.83666 5.30645 7.78829 5.1129C7.70766 4.77419 7.75604 4.42742 7.75604 4.08871C7.74798 3.23387 7.74798 2.37903 7.75604 1.51613C7.74798 0.612903 8.36071 0 9.27176 0C13.0933 0 16.9068 0 20.7284 0C21.6394 0 22.2521 0.612903 22.2602 1.50806C22.2683 2.59677 22.2602 3.68548 22.2683 4.77419C22.2683 4.95161 22.1312 5.17742 22.2441 5.28226C22.3489 5.37903 22.5908 5.33871 22.7681 5.37097C24.1387 5.58871 25.2433 6.65323 25.5255 8.03226C25.7996 9.3629 26.0979 10.6855 26.372 12.0161C26.4123 12.1935 26.4446 12.2258 26.6461 12.1774C27.404 12.0161 28.1699 12.0161 28.9278 12.1532C29.6292 12.2742 30.0807 12.9839 30.0081 13.6855C29.9356 14.4032 29.3389 14.9677 28.6053 14.9839C28.1618 15 27.7184 14.9839 27.275 14.9919C27.2024 14.9919 27.0976 14.9435 27.0573 15.0323C27.0089 15.1452 27.1299 15.1774 27.2024 15.2339C28.1296 15.9113 28.7101 16.8145 28.952 17.9355C29.0165 18.25 29.0487 18.5726 29.0487 18.8952C29.0487 19.9516 29.0487 21.0081 29.0406 22.0726C29.0406 22.25 29.0729 22.3548 29.2503 22.4435C29.734 22.7016 29.9839 23.121 30.0081 23.6694C30.0242 24.0242 30.0242 24.379 30.0081 24.7258C29.9839 25.4839 29.3712 26.0887 28.6053 26.121C28.3312 26.129 28.057 26.129 27.791 26.121C27.6297 26.1129 27.5894 26.1774 27.5894 26.3306C27.5975 26.8871 27.5975 27.4355 27.5894 27.9919C27.5733 29.1371 26.7348 30 25.6383 30C24.5418 30 23.7195 29.129 23.7114 27.9839C23.7114 27.4677 23.6872 26.9516 23.7195 26.4435C23.7356 26.1532 23.6227 26.121 23.3809 26.129C20.5832 26.129 17.7937 26.129 15.0041 26.129ZM15.0041 22.2581C19.2529 22.2581 23.5099 22.2581 27.7587 22.2661C27.9845 22.2661 28.0651 22.2258 28.0651 21.9758C28.049 20.9113 28.0651 19.8387 28.057 18.7742C28.049 16.9194 26.6058 15.4919 24.7434 15.4919C18.2452 15.4919 11.7469 15.4919 5.24059 15.4919C3.37818 15.4919 1.94309 16.9274 1.93502 18.7823C1.92696 19.8306 1.94309 20.879 1.92696 21.9274C1.9189 22.2016 1.99146 22.2742 2.26558 22.2742C6.51444 22.2581 10.7633 22.2581 15.0041 22.2581ZM15.0283 23.2258C10.594 23.2258 6.15969 23.2258 1.7254 23.2258C1.63672 23.2258 1.53997 23.2177 1.45128 23.2258C1.16104 23.25 0.983666 23.4194 0.967541 23.7097C0.959479 23.9435 0.967541 24.1694 0.967541 24.4032C0.967541 25.0403 1.08848 25.1613 1.7254 25.1613C10.5698 25.1613 19.4223 25.1613 28.2667 25.1613C28.3473 25.1613 28.4279 25.1613 28.5085 25.1613C28.831 25.1452 29.0084 24.9677 29.0245 24.6452C29.0326 24.4113 29.0245 24.1855 29.0245 23.9516C29.0245 23.3548 28.8955 23.2258 28.2989 23.2258C23.8807 23.2258 19.4545 23.2258 15.0283 23.2258ZM15.0041 5.32258C16.8907 5.32258 18.7692 5.32258 20.6558 5.32258C21.1315 5.32258 21.2927 5.16129 21.2927 4.68548C21.2927 3.66129 21.2927 2.62903 21.2927 1.60484C21.2927 1.12903 21.1315 0.967742 20.6558 0.967742C16.8907 0.967742 13.1175 0.967742 9.35238 0.967742C8.87671 0.967742 8.71546 1.12903 8.71546 1.60484C8.71546 2.62097 8.71546 3.6371 8.71546 4.66129C8.71546 5.17742 8.86864 5.32258 9.38463 5.32258C11.2551 5.32258 13.1256 5.32258 15.0041 5.32258ZM25.9366 14.6371C25.4771 12.4919 25.0256 10.3952 24.5741 8.29839C24.3 7.03226 23.3889 6.29032 22.0828 6.29032C20.7525 6.29032 19.4223 6.29032 18.092 6.29032C14.6735 6.29032 11.2632 6.29032 7.84472 6.29032C6.66762 6.29032 5.69208 7.06452 5.45021 8.16935C5.0874 9.85484 4.7246 11.5323 4.36985 13.2177C4.2731 13.6855 4.17636 14.1452 4.07155 14.6613C4.62785 14.5 5.14384 14.5161 5.65177 14.5161C11.4486 14.5161 17.2374 14.5161 23.0342 14.5242C23.9855 14.5242 24.945 14.4355 25.9366 14.6371ZM5.32121 27.2016C5.32121 26.9113 5.31315 26.621 5.32121 26.3226C5.32927 26.1613 5.26477 26.121 5.11159 26.121C4.61172 26.129 4.1038 26.129 3.60393 26.121C3.43462 26.121 3.37818 26.1613 3.37818 26.3387C3.38625 26.9113 3.37818 27.4839 3.38625 28.0564C3.39431 28.5968 3.82161 29.0161 4.34567 29.0242C4.86972 29.0242 5.29702 28.6129 5.32121 28.0726C5.32927 27.7903 5.32121 27.5 5.32121 27.2016ZM26.6058 27.2016C26.6058 26.9113 26.5977 26.621 26.6058 26.3226C26.6139 26.1613 26.5494 26.121 26.3962 26.121C25.8963 26.129 25.3884 26.129 24.8885 26.121C24.7192 26.121 24.6628 26.1613 24.6628 26.3387C24.6708 26.9113 24.6628 27.4839 24.6708 28.0564C24.6789 28.5968 25.1062 29.0161 25.6303 29.0242C26.1543 29.0242 26.5816 28.6129 26.6058 28.0726C26.6139 27.7903 26.6058 27.5 26.6058 27.2016ZM2.16883 14.0323C2.40264 14.0323 2.63645 14.0403 2.86219 14.0323C3.26531 14.0161 3.27337 13.8548 3.31368 13.4274C3.33787 13.1694 3.10406 13.0806 2.87832 13.0726C2.40264 13.0645 1.93502 13.0645 1.45934 13.0726C1.1691 13.0806 0.975604 13.2823 0.967541 13.5403C0.959479 13.8145 1.16104 14.0161 1.46741 14.0323C1.70928 14.0403 1.94309 14.0323 2.16883 14.0323ZM27.799 14.0323C28.0409 14.0323 28.2828 14.0403 28.5246 14.0323C28.831 14.0242 29.0326 13.8145 29.0245 13.5403C29.0165 13.2742 28.823 13.0806 28.5327 13.0726C28.057 13.0645 27.5894 13.0645 27.1137 13.0726C26.888 13.0806 26.6542 13.1694 26.6784 13.4274C26.7187 13.8629 26.7348 14.0161 27.1379 14.0323C27.3556 14.0403 27.5814 14.0323 27.799 14.0323Z" fill="#424242"/>
<path d="M15.0041 21.7743C12.6579 21.7743 10.3118 21.7743 7.95758 21.7743C7.40128 21.7743 7.26422 21.6372 7.26422 21.0807C7.26422 20.4275 7.24003 19.7743 7.48191 19.1452C7.97371 17.8549 9.18306 16.9517 10.5617 16.9517C13.5206 16.9355 16.4875 16.9275 19.4464 16.9517C21.2443 16.9678 22.6875 18.4436 22.7359 20.242C22.7439 20.5565 22.7439 20.863 22.7359 21.1775C22.7359 21.613 22.5666 21.7823 22.1312 21.7823C20.2365 21.7823 18.3419 21.7823 16.4472 21.7823C15.9716 21.7743 15.4878 21.7743 15.0041 21.7743ZM14.988 20.8065C17.1567 20.8065 19.3174 20.7984 21.4862 20.8146C21.7281 20.8146 21.7845 20.742 21.7765 20.5162C21.7765 18.9275 20.7606 17.9113 19.1723 17.9113C16.3908 17.9113 13.6093 17.9113 10.8278 17.9113C9.2395 17.9113 8.22364 18.9355 8.22364 20.5162C8.22364 20.7501 8.28008 20.8146 8.52195 20.8146C10.6746 20.8065 12.8272 20.8065 14.988 20.8065Z" fill="#424242"/>
<path d="M25.6384 17.9032C26.7026 17.9032 27.5814 18.7742 27.5733 19.8387C27.5733 20.9113 26.6946 21.7742 25.6303 21.7661C24.5742 21.758 23.7115 20.8951 23.7115 19.8387C23.7034 18.7742 24.5661 17.9032 25.6384 17.9032ZM26.6059 19.8548C26.6139 19.3306 26.1866 18.8871 25.6626 18.8709C25.1385 18.8548 24.687 19.2822 24.6709 19.8064C24.6548 20.3467 25.0901 20.7984 25.6303 20.8064C26.1624 20.8064 26.5978 20.379 26.6059 19.8548Z" fill="#424242"/>
<path d="M4.3376 17.9033C5.40989 17.8952 6.28062 18.7581 6.28868 19.8307C6.29675 20.8952 5.42601 21.7742 4.35372 21.7742C3.29755 21.7742 2.42682 20.9194 2.41876 19.8629C2.41069 18.7904 3.27337 17.9113 4.3376 17.9033ZM3.3943 19.8145C3.37818 20.3387 3.79742 20.7904 4.32953 20.8065C4.85359 20.8226 5.30508 20.4033 5.32926 19.8791C5.35345 19.3387 4.91809 18.8871 4.37791 18.871C3.84579 18.8629 3.40236 19.2904 3.3943 19.8145Z" fill="#424242"/>
<path d="M15.4314 4.61296C15.4153 4.63715 15.4073 4.6936 15.3831 4.70167C15.1251 4.79038 14.8751 4.89522 14.6091 4.95167C14.472 4.98393 14.472 4.82264 14.4559 4.73393C14.4075 4.41941 14.2382 4.29038 13.9238 4.34683C13.8674 4.35489 13.8029 4.35489 13.7464 4.34683C13.3917 4.29038 13.1498 4.37909 13.1095 4.79038C13.0934 4.93554 13.0208 4.97586 12.8596 4.92747C12.1178 4.70167 12.1178 4.70973 12.3597 3.99199C12.5935 3.29038 12.8354 2.5807 13.0692 1.87909C13.1659 1.57264 13.3514 1.4436 13.6658 1.4436C14.3672 1.4436 14.3995 1.45167 14.6252 2.13715C14.8751 2.88715 15.1251 3.64522 15.375 4.39522C15.3831 4.4678 15.4073 4.53231 15.4314 4.61296ZM13.9883 3.35489C13.9319 3.18554 13.8996 3.00006 13.7787 2.81457C13.69 3.01618 13.6255 3.17747 13.6013 3.37102C13.7303 3.38715 13.8512 3.40328 13.9883 3.35489Z" fill="#424242"/>
<path d="M16.8343 5.10489C16.7053 5.00811 16.5763 4.92747 16.4553 4.83876C16.0603 4.5565 16.0603 4.5565 16.3425 4.16134C16.544 3.87908 16.7295 3.59682 16.9472 3.33069C17.06 3.1936 17.0439 3.09682 16.9391 2.96779C16.6811 2.62908 16.4473 2.27424 16.1974 1.93553C16.0925 1.79843 16.0684 1.72585 16.2377 1.60489C16.8423 1.1694 16.8343 1.16134 17.2616 1.75811C17.6647 2.31456 17.6647 2.31456 18.0598 1.76618C18.4951 1.16134 18.4871 1.1694 19.0837 1.60489C19.2369 1.71779 19.2449 1.79037 19.132 1.93553C18.8741 2.27424 18.6483 2.62908 18.3903 2.95972C18.2774 3.10489 18.2855 3.20972 18.3984 3.35489C18.6402 3.67747 18.8741 4.00811 19.1079 4.33876C19.1401 4.38714 19.2127 4.4436 19.2046 4.48392C19.1562 4.82263 18.7934 4.83876 18.608 5.04037C18.5032 5.15327 18.4387 5.07263 18.3742 4.98392C18.1888 4.71779 17.9953 4.45972 17.8179 4.1936C17.7131 4.03231 17.6405 4.00811 17.5276 4.18553C17.3583 4.45166 17.1729 4.6936 16.9875 4.95166C16.9391 4.99198 16.8907 5.04037 16.8343 5.10489Z" fill="#424242"/>
<path d="M10.6424 1.45166C11.0616 1.45166 11.4889 1.45972 11.9082 1.45166C12.0452 1.45166 12.0936 1.49198 12.1017 1.63714C12.15 2.41134 12.15 2.4194 11.3922 2.4194C11.1825 2.4194 11.118 2.46779 11.1261 2.68553C11.1422 3.32263 11.1261 3.95166 11.1342 4.58876C11.1342 4.76618 11.11 4.85489 10.8923 4.85489C10.1586 4.85489 10.1586 4.86295 10.1586 4.12101C10.1586 3.63714 10.1506 3.15327 10.1667 2.6694C10.1748 2.46779 10.1022 2.4194 9.90869 2.4194C9.15083 2.4194 9.15889 2.41134 9.18308 1.65327C9.19114 1.49198 9.24758 1.45166 9.3927 1.45166C9.81194 1.45972 10.2312 1.45166 10.6424 1.45166Z" fill="#424242"/>
<path d="M19.8415 3.12904C19.8415 2.64517 19.8496 2.1613 19.8334 1.67743C19.8254 1.48388 19.8899 1.44356 20.0753 1.44356C20.809 1.43549 20.809 1.42743 20.809 2.17743C20.809 2.98388 20.8009 3.79033 20.817 4.59678C20.817 4.7984 20.7606 4.84678 20.5671 4.84678C19.8496 4.84678 19.8496 4.85485 19.8496 4.12904C19.8415 3.7984 19.8415 3.45969 19.8415 3.12904Z" fill="#424242"/>
<path d="M15.0041 14.0322C11.8517 14.0322 8.6993 14.0322 5.54692 14.0322C4.94224 14.0322 4.77293 13.8226 4.90999 13.2258C5.28892 11.5726 5.66785 9.91127 6.05485 8.25804C6.26447 7.33869 6.97395 6.77417 7.92531 6.77417C12.6418 6.77417 17.3583 6.77417 22.0667 6.77417C23.0261 6.77417 23.7275 7.33869 23.9533 8.28223C24.3403 9.95159 24.7272 11.6129 25.1062 13.2822C25.2271 13.8064 25.0417 14.0322 24.4934 14.0322C21.3249 14.0322 18.1645 14.0322 15.0041 14.0322ZM5.94197 13.0564C6.04678 13.0645 6.12741 13.0645 6.20803 13.0645C12.0694 13.0645 17.9307 13.0645 23.792 13.0726C24.0339 13.0726 24.0661 13.0161 24.0097 12.7903C23.6791 11.379 23.3566 9.96772 23.0261 8.55643C22.8971 7.98385 22.5827 7.74191 22.0022 7.74191C17.3421 7.74191 12.674 7.74191 8.014 7.74191C7.40932 7.74191 7.11101 7.98385 6.97395 8.57256C6.86108 9.07256 6.74015 9.57256 6.62727 10.0726C6.39347 11.0645 6.16772 12.0484 5.94197 13.0564Z" fill="#424242"/>
<path d="M15.0364 19.3549C16.6972 19.3549 18.3581 19.3549 20.0189 19.3468C20.2366 19.3468 20.3333 19.3791 20.3253 19.6371C20.3092 20.3226 20.3253 20.3226 19.6319 20.3226C16.415 20.3226 13.2062 20.3145 9.98935 20.3307C9.71523 20.3307 9.6588 20.25 9.66686 19.992C9.68298 19.3549 9.67492 19.3549 10.3118 19.3549C11.8921 19.3549 13.4642 19.3549 15.0364 19.3549Z" fill="#424242"/>
</g>
<defs>
<clipPath id="clip0_612_1068">
<rect width="30" height="30" fill="white"/>
</clipPath>
</defs>
</svg>
