<svg width="36" height="24" viewBox="0 0 36 24" fill="none" xmlns="http://www.w3.org/2000/svg">
<g clip-path="url(#clip0_612_1080)">
<path d="M11.5032 4.39217C13.734 4.39217 15.9648 4.39217 18.2062 4.39217C19.919 4.39217 21.6106 4.54903 23.2283 5.16603C24.4653 5.63662 25.5648 6.34773 26.5269 7.22616C27.2988 7.93727 28.1551 8.28237 29.1913 8.40786C30.6609 8.58564 32.0776 9.01439 33.3992 9.7255C34.3507 10.2484 35.1754 10.9072 35.6829 11.8798C35.9049 12.2981 36.0424 12.7373 36.0212 13.2288C36.0001 13.9085 36.0212 14.5883 36.0106 15.268C36.0001 16.4392 35.2071 17.234 34.023 17.2445C33.6001 17.2445 33.1772 17.2549 32.7543 17.2445C32.5534 17.234 32.4688 17.2863 32.4054 17.5059C31.8979 19.2941 30.4494 20.4026 28.6838 20.3922C26.9499 20.3817 25.512 19.2523 25.0256 17.5164C24.9728 17.3177 24.8988 17.2445 24.6873 17.2445C21.0292 17.2549 17.371 17.2549 13.7023 17.2445C13.4803 17.2445 13.4274 17.3281 13.3745 17.5164C12.8776 19.2628 11.4292 20.3817 9.67408 20.3817C7.94016 20.3817 6.47056 19.2523 6.00536 17.5268C5.93135 17.2758 5.82563 17.234 5.6036 17.2445C4.74721 17.2549 3.89082 17.2549 3.02386 17.2445C2.52695 17.2445 2.23091 17.0039 2.24148 16.617C2.24148 16.2301 2.53752 16 3.03444 15.9896C3.9014 15.9896 4.77893 15.9791 5.64589 15.9896C5.84677 15.9896 5.93135 15.9477 5.99479 15.7281C6.4917 13.9608 7.92959 12.8418 9.68466 12.8418C11.4397 12.8418 12.8882 13.9608 13.3851 15.7177C13.438 15.9164 13.5014 15.9896 13.7234 15.9896C17.3816 15.9791 21.0397 15.9791 24.7084 15.9896C24.9305 15.9896 24.9833 15.9059 25.0362 15.7177C25.5225 13.9713 26.9816 12.8523 28.7366 12.8523C30.4706 12.8523 31.9296 13.9817 32.4054 15.7072C32.4688 15.9164 32.5322 16.0105 32.7648 16C33.1983 15.9791 33.6318 16 34.0758 15.9896C34.4988 15.9791 34.7419 15.7386 34.7419 15.3203C34.7525 14.5673 34.7525 13.8039 34.7419 13.051C34.7314 12.6222 34.4882 12.2876 34.2344 11.9739C33.4838 11.0536 32.4371 10.5726 31.3481 10.2066C30.1111 9.77779 28.8212 9.56864 27.5208 9.42224C27.2988 9.40132 27.1296 9.32812 26.9604 9.18171C26.2943 8.62747 25.6177 8.08367 24.9305 7.55034C23.4714 6.41047 21.7904 5.86668 19.9613 5.70982C19.1684 5.64707 18.3754 5.63662 17.5825 5.63662C13.0891 5.63662 8.59567 5.63662 4.10228 5.63662C3.99655 5.63662 3.89082 5.63662 3.7851 5.63662C3.3199 5.62616 3.03444 5.38564 3.04501 4.99871C3.04501 4.62224 3.33047 4.38171 3.80624 4.38171C6.34369 4.39217 8.92342 4.39217 11.5032 4.39217ZM12.2115 16.6275C12.2115 15.2471 11.0591 14.1177 9.66351 14.1281C8.27849 14.1386 7.14721 15.2575 7.14721 16.617C7.12607 17.9974 8.26792 19.1373 9.66351 19.1373C11.0697 19.1373 12.2115 18.0079 12.2115 16.6275ZM28.6838 14.1177C27.2882 14.1281 26.1569 15.2575 26.1675 16.6484C26.1781 18.0183 27.3199 19.1268 28.6943 19.1268C30.0899 19.1268 31.2424 17.9974 31.2318 16.617C31.2318 15.2366 30.0899 14.1177 28.6838 14.1177Z" fill="#424242"/>
<path d="M18.4917 10.8236C16.8635 10.8236 15.2459 10.8236 13.6177 10.8236C13.5014 10.8236 13.3745 10.834 13.2582 10.8131C12.9093 10.7713 12.6662 10.4994 12.6873 10.1752C12.7085 9.8301 12.9093 9.62095 13.2477 9.56866C13.3745 9.54774 13.512 9.5582 13.6389 9.5582C16.8107 9.5582 19.9719 9.5582 23.1437 9.5582C23.7569 9.5582 24.275 9.40134 24.7296 8.98304C25.0468 8.69023 25.4274 8.70069 25.6706 8.98304C25.9137 9.25493 25.882 9.62095 25.5648 9.92421C24.9411 10.5098 24.201 10.8131 23.3446 10.8131C21.7375 10.834 20.1093 10.8236 18.4917 10.8236Z" fill="#424242"/>
<path d="M9.89614 1.2549C8.68028 1.2549 7.46443 1.2549 6.24857 1.2549C5.9631 1.2549 5.74108 1.15033 5.61421 0.878431C5.49791 0.637908 5.5402 0.418301 5.70936 0.219608C5.85738 0.0522876 6.04769 0 6.28028 0C8.70143 0 11.112 0 13.5331 0C13.9878 0 14.2838 0.261438 14.2732 0.637909C14.2627 1.01438 13.9772 1.24444 13.512 1.2549C12.2961 1.2549 11.1014 1.2549 9.89614 1.2549Z" fill="#424242"/>
<path d="M4.23965 7.52942C5.36035 7.52942 6.48106 7.52942 7.61234 7.52942C8.10925 7.52942 8.40529 7.76994 8.40529 8.15687C8.40529 8.5438 8.10925 8.78432 7.61234 8.78432C5.33921 8.78432 3.06608 8.78432 0.792952 8.78432C0.285463 8.78432 0 8.55426 0 8.15687C0 7.76994 0.285463 7.52942 0.792952 7.52942C1.9348 7.52942 3.08722 7.52942 4.23965 7.52942Z" fill="#424242"/>
<path d="M22.5939 22.7451C23.7252 22.7451 24.867 22.7451 25.9983 22.7451C26.4952 22.7451 26.7913 22.9856 26.7913 23.3726C26.7913 23.7595 26.4952 24 25.9983 24C23.7252 24 21.4521 24 19.1789 24C18.682 24 18.386 23.7595 18.386 23.3726C18.386 22.9856 18.6714 22.7451 19.1789 22.7451C20.3208 22.7451 21.4626 22.7451 22.5939 22.7451Z" fill="#424242"/>
<path d="M15.9224 24C15.4995 24 15.0766 24.0105 14.6537 24C14.2202 23.9896 13.9453 23.7282 13.9559 23.3621C13.9664 23.0066 14.2308 22.7556 14.6431 22.7451C15.4995 22.7347 16.3559 22.7347 17.2228 22.7451C17.6563 22.7451 17.9312 23.017 17.9206 23.3831C17.91 23.7386 17.6457 23.9896 17.2334 24C16.7999 24.0105 16.3559 24 15.9224 24Z" fill="#424242"/>
<path d="M3.33033 9.11299e-06C3.74266 9.11299e-06 4.155 -0.0104484 4.55676 9.11299e-06C4.95852 0.0104666 5.22284 0.271905 5.22284 0.62746C5.22284 0.983016 4.95852 1.24445 4.54619 1.25491C3.73209 1.26537 2.90742 1.26537 2.09333 1.25491C1.69156 1.25491 1.42725 0.983016 1.42725 0.62746C1.42725 0.271905 1.69156 0.0104666 2.1039 9.11299e-06C2.50566 -0.0104484 2.91799 9.11299e-06 3.33033 9.11299e-06Z" fill="#424242"/>
</g>
<defs>
<clipPath id="clip0_612_1080">
<rect width="36" height="24" fill="white"/>
</clipPath>
</defs>
</svg>
